<?xml version="1.0" encoding="UTF-8"?>
<svg id="Layer_1" xmlns="http://www.w3.org/2000/svg" xmlns:xlink="http://www.w3.org/1999/xlink" version="1.1" viewBox="0 0 508.8 94.3">
  <!-- Generator: Adobe Illustrator 30.3.0, SVG Export Plug-In . SVG Version: 2.1.1 Build 73)  -->
  <defs>
    <style>
      .st0 {
        fill: none;
      }

      .st1 {
        fill: url(#linear-gradient2);
      }

      .st2 {
        fill: url(#linear-gradient1);
      }

      .st3 {
        fill: #2b303a;
      }

      .st4 {
        fill: url(#linear-gradient);
      }

      .st5 {
        fill: #9ca3af;
      }

      .st6 {
        clip-path: url(#clippath-11);
      }

      .st7 {
        clip-path: url(#clippath-10);
      }

      .st8 {
        clip-path: url(#clippath-12);
      }

      .st9 {
        clip-path: url(#clippath-1);
      }

      .st10 {
        clip-path: url(#clippath-3);
      }

      .st11 {
        clip-path: url(#clippath-4);
      }

      .st12 {
        clip-path: url(#clippath-2);
      }

      .st13 {
        clip-path: url(#clippath-7);
      }

      .st14 {
        clip-path: url(#clippath-6);
      }

      .st15 {
        clip-path: url(#clippath-9);
      }

      .st16 {
        clip-path: url(#clippath-8);
      }

      .st17 {
        clip-path: url(#clippath-5);
      }

      .st18 {
        fill: #6e0e0f;
        isolation: isolate;
        opacity: .4;
      }

      .st19 {
        clip-path: url(#clippath);
      }
    </style>
    <linearGradient id="linear-gradient" x1="47.1" y1="8" x2="47.1" y2="90.2" gradientTransform="translate(0 96.4) scale(1 -1)" gradientUnits="userSpaceOnUse">
      <stop offset="0" stop-color="#f69220"/>
      <stop offset="1" stop-color="#d72027"/>
    </linearGradient>
    <linearGradient id="linear-gradient1" x1="47.1" y1="15.1" x2="47.1" y2="90.7" gradientTransform="translate(0 96.4) scale(1 -1)" gradientUnits="userSpaceOnUse">
      <stop offset="0" stop-color="#f69220"/>
      <stop offset="1" stop-color="#d72027"/>
    </linearGradient>
    <linearGradient id="linear-gradient2" x1="47.1" y1="15.1" x2="47.1" y2="90.7" gradientTransform="translate(0 96.4) scale(1 -1)" gradientUnits="userSpaceOnUse">
      <stop offset="0" stop-color="#f69220"/>
      <stop offset="1" stop-color="#d72027"/>
    </linearGradient>
    <clipPath id="clippath">
      <path class="st0" d="M135.2,25l3.2,8.7h-6.3l3.2-8.7h0ZM147.4,43l-8.6-23.2h-7.2l-8.6,23.2h5.7l1.6-4.4h9.8l1.6,4.4h5.7Z"/>
    </clipPath>
    <clipPath id="clippath-1">
      <path class="st0" d="M157.1,38v-13.3h5.1c3.1,0,5.5,2.5,5.5,6.6s-2.4,6.8-5.5,6.8h-5.1ZM151.6,19.7v23.2h10.7c6.6,0,11-4.9,11-11.6s-4.4-11.6-11-11.6h-10.7Z"/>
    </clipPath>
    <clipPath id="clippath-2">
      <path class="st0" d="M190.1,24.6c1.7,0,3.1,1.3,3.1,2.9s-1.3,3-3.3,3h-5.8v-5.9h6ZM199.3,43l-5.6-8.3c3.1-1.3,4.7-4.1,4.7-7.1s-3.1-7.8-8.2-7.8h-11.6v23.2h5.4v-7.6h4l4.9,7.6h6.4Z"/>
    </clipPath>
    <clipPath id="clippath-3">
      <rect class="st0" x="204.2" y="19.7" width="5.6" height="23.2"/>
    </clipPath>
    <clipPath id="clippath-4">
      <path class="st0" d="M226.2,25l3.2,8.7h-6.3l3.2-8.7h-.1ZM238.4,43l-8.6-23.2h-7.2l-8.6,23.2h5.7l1.6-4.4h9.8l1.6,4.4h5.7Z"/>
    </clipPath>
    <clipPath id="clippath-5">
      <polygon class="st0" points="248.1 19.7 242.6 19.7 242.6 43 259 43 259 37.9 248.1 37.9 248.1 19.7"/>
    </clipPath>
    <clipPath id="clippath-6">
      <path class="st0" d="M279.5,38v-13.3h5.1c3.1,0,5.5,2.5,5.5,6.6s-2.4,6.8-5.5,6.8h-5.1ZM274,19.7v23.2h10.7c6.6,0,11-4.9,11-11.6s-4.4-11.6-11-11.6h-10.7Z"/>
    </clipPath>
    <clipPath id="clippath-7">
      <polygon class="st0" points="318.5 19.7 301 19.7 301 43 318.5 43 318.5 38 306.4 38 306.4 33.6 316.8 33.6 316.8 28.8 306.4 28.8 306.4 24.7 318.5 24.7 318.5 19.7"/>
    </clipPath>
    <clipPath id="clippath-8">
      <path class="st0" d="M332.8,43.4c5.7,0,9.6-3.2,9.6-7.3s-2.9-5.5-6.3-6.6l-5.1-1.7c-1.3-.4-1.9-1-1.9-1.8s1.3-1.9,3.2-1.9,4.1,1.1,4.7,2.8l5.1-1.5c-.9-3.4-4.4-6.1-9.6-6.1s-9,3.1-9,6.9,2.3,5.1,5.3,6.1l5.8,1.9c1.5.5,2.2,1.2,2.2,2.2s-1.4,2.2-3.6,2.2-5-1.7-5.6-3.9l-5.2,1.6c.9,3.7,4.2,7.1,10.5,7.1h-.1Z"/>
    </clipPath>
    <clipPath id="clippath-9">
      <rect class="st0" x="347.6" y="19.7" width="5.6" height="23.2"/>
    </clipPath>
    <clipPath id="clippath-10">
      <path class="st0" d="M382.8,29.8h-11.9v4.7h6.1c-.4,1.9-2.3,3.8-5.6,3.8-4.9,0-7.4-3.4-7.4-7s2.7-6.9,6.7-6.9,5,1.4,6.1,3.5l5.1-1.5c-1.4-3.9-5.4-7.2-11.3-7.2s-12.2,5.2-12.2,12.1,5.3,12.1,12.5,12.1,11.8-4.6,11.8-10.9v-2.8h0Z"/>
    </clipPath>
    <clipPath id="clippath-11">
      <polygon class="st0" points="403 33 392.6 19.7 388.1 19.7 388.1 43 393.6 43 393.6 29.7 404 43 408.5 43 408.5 19.7 403 19.7 403 33"/>
    </clipPath>
    <clipPath id="clippath-12">
      <path class="st0" d="M424.2,43.4c5.7,0,9.6-3.2,9.6-7.3s-2.9-5.5-6.3-6.6l-5.1-1.7c-1.3-.4-1.9-1-1.9-1.8s1.3-1.9,3.2-1.9,4.1,1.1,4.7,2.8l5.1-1.5c-.9-3.4-4.4-6.1-9.6-6.1s-9,3.1-9,6.9,2.3,5.1,5.3,6.1l5.8,1.9c1.5.5,2.2,1.2,2.2,2.2s-1.4,2.2-3.6,2.2-5-1.7-5.6-3.9l-5.2,1.6c.9,3.7,4.2,7.1,10.5,7.1h-.1Z"/>
    </clipPath>
  </defs>
  <g>
    <path class="st4" d="M47.1,94.2h0c14.8,0,28-6.8,36.7-17.5,4.4-5.7,7-14.3-2.8-24.4-11.5-11.8-32.9-29-33.9-29s-22.3,17.1-33.9,29c-9.8,10.1-7.2,18.7-2.8,24.4,8.6,10.7,21.9,17.6,36.7,17.6h0Z"/>
    <path class="st2" d="M47.1,12c2.4,0,25.1,18.3,47.1,36.5v-1.4C94.2,21.1,73.1,0,47.1,0h0C21.1,0,0,21.1,0,47.1s0,.9,0,1.4C22,30.4,44.7,12.1,47.1,12.1h0Z"/>
    <path class="st1" d="M47.1,12c2.4,0,25.1,18.3,47.1,36.5v-1.4C94.2,21.1,73.1,0,47.1,0h0C21.1,0,0,21.1,0,47.1s0,.9,0,1.4C22,30.4,44.7,12.1,47.1,12.1h0Z"/>
    <path class="st18" d="M81,52.3c-11.5-11.8-32.9-29-33.9-29s-22.3,17.1-33.9,29c-3.5,3.6-5.4,6.9-6.2,10.1,1.1-2.2,2.8-4.6,5.5-7.1,11.8-10.7,33.6-26.2,34.6-26.2s22.8,15.5,34.6,26.2c2.6,2.4,4.4,4.7,5.5,6.9-.9-3.1-2.7-6.4-6.2-9.9Z"/>
  </g>
  <g class="st19">
    <rect class="st3" x="121.2" y="17.9" width="28.1" height="26.9"/>
  </g>
  <g class="st9">
    <rect class="st3" x="149.8" y="17.9" width="25.4" height="26.9"/>
  </g>
  <g class="st12">
    <rect class="st3" x="176.8" y="17.9" width="24.4" height="26.9"/>
  </g>
  <g class="st10">
    <rect class="st3" x="202.4" y="17.9" width="9.3" height="26.9"/>
  </g>
  <g class="st11">
    <rect class="st3" x="212.1" y="17.9" width="28.1" height="26.9"/>
  </g>
  <g class="st17">
    <rect class="st3" x="240.7" y="17.9" width="20.1" height="26.9"/>
  </g>
  <g class="st14">
    <rect class="st3" x="272.2" y="17.9" width="25.4" height="26.9"/>
  </g>
  <g class="st13">
    <rect class="st3" x="299.2" y="17.9" width="21.2" height="26.9"/>
  </g>
  <g class="st16">
    <rect class="st3" x="320.5" y="17.4" width="23.7" height="27.9"/>
  </g>
  <g class="st15">
    <rect class="st3" x="345.8" y="17.9" width="9.3" height="26.9"/>
  </g>
  <g class="st7">
    <rect class="st3" x="356.6" y="17.4" width="28" height="27.9"/>
  </g>
  <g class="st6">
    <rect class="st3" x="386.2" y="17.9" width="24.1" height="26.9"/>
  </g>
  <g class="st8">
    <rect class="st3" x="411.9" y="17.4" width="23.7" height="27.9"/>
  </g>
  <g>
    <path class="st5" d="M122,71.7l2.9-.9c.5,2.3,2.5,4,5.5,4s4.3-1.5,4.3-3-.8-2-2.8-2.7l-4.7-1.5c-2.5-.8-4.3-2.3-4.3-4.7s2.8-5.4,7-5.4,6.7,2.1,7.5,4.8l-2.8.8c-.6-1.8-2.4-3-4.8-3s-3.8,1.2-3.8,2.6.7,1.7,2.5,2.3l4.4,1.4c2.9,1,4.9,2.2,4.9,5.1s-3,5.9-7.5,5.9-7.5-2.8-8.2-5.8h0Z"/>
    <path class="st5" d="M141.5,72.7v-6.7h-2.5v-2.6h2.5v-4.6h2.9v4.6h4.4v2.6h-4.4v6.7c0,1.3.6,2.1,2,2.1s1.2-.1,1.8-.4l.7,2.4c-1,.4-2,.7-3.1.7-3,0-4.3-1.9-4.3-4.7h0Z"/>
    <path class="st5" d="M151.7,63.4h2.9v2.2c.8-1.7,2.4-2.7,4.7-2.4v2.7c-3-.4-4.7,1-4.7,5.1v6.2h-2.9v-13.8Z"/>
    <path class="st5" d="M160.2,70.3c0-4.2,3-7.3,6.9-7.3s3.9.9,4.9,2.4v-2h2.9v13.8h-2.9v-2.1c-1,1.5-2.7,2.4-4.9,2.4-3.9,0-6.9-3.1-6.9-7.3h0ZM172.1,70.3c0-2.7-2-4.6-4.5-4.6s-4.5,1.9-4.5,4.6,1.9,4.7,4.5,4.7,4.5-2,4.5-4.7Z"/>
    <path class="st5" d="M179.8,72.7v-6.7h-2.5v-2.6h2.5v-4.6h2.9v4.6h4.4v2.6h-4.4v6.7c0,1.3.6,2.1,2,2.1s1.2-.1,1.8-.4l.7,2.4c-1,.4-2,.7-3.1.7-3,0-4.3-1.9-4.3-4.7h0Z"/>
    <path class="st5" d="M188.6,70.3c0-4.1,2.9-7.3,7.1-7.3s7,3.1,7,7,0,.7,0,1.1h-11.2c.2,2.3,1.8,3.9,4.6,3.9s3.3-1,3.9-2.2l2.7.8c-.9,1.9-3,3.9-6.6,3.9s-7.4-2.9-7.4-7.3h-.1ZM195.7,65.6c-2.4,0-4.1,1.7-4.3,3.7h8.4c-.2-2.1-1.7-3.7-4.2-3.7h.1Z"/>
    <path class="st5" d="M205.9,79.7l2.7-1c.8,1.4,2,2.1,4,2.1s4.1-1.8,4.1-4.2v-2c-1.1,1.5-2.8,2.3-4.9,2.3-4,0-6.9-3.1-6.9-7s2.9-7,6.9-7,3.8.9,4.9,2.3v-2h2.9v13.3c0,3.8-2.8,6.6-7.1,6.6s-5.4-1.5-6.6-3.6v.2ZM216.7,70c0-2.5-1.9-4.4-4.5-4.4s-4.5,1.8-4.5,4.4,1.8,4.4,4.5,4.4,4.5-1.8,4.5-4.4Z"/>
    <path class="st5" d="M223,59.4c0-1,.8-1.8,1.8-1.8s1.8.8,1.8,1.8-.8,1.8-1.8,1.8-1.8-.8-1.8-1.8ZM223.3,63.4h2.9v13.8h-2.9v-13.8Z"/>
    <path class="st5" d="M229.2,70.3c0-4.1,3.1-7.3,7.3-7.3s6,2.4,6.6,4.4l-2.7.8c-.4-1.3-1.8-2.6-3.9-2.6s-4.4,2.1-4.4,4.6,1.7,4.7,4.4,4.7,3.5-1.2,3.9-2.5l2.7.8c-.5,2-2.9,4.3-6.5,4.3s-7.3-3.2-7.3-7.3h-.1Z"/>
    <path class="st5" d="M252.9,63.4h2.9v2c.9-1.3,2.3-2.3,4.3-2.3s3.5.9,4.3,2.4c.9-1.3,2.5-2.4,4.8-2.4s5.4,2.1,5.4,5.9v8.3h-2.9v-7.7c0-2.3-1-3.8-3.1-3.8s-3.4,1.6-3.4,4.3v7.2h-2.9v-7.7c0-2.3-.9-3.8-3-3.8s-3.5,1.7-3.5,4.5v7h-2.9v-13.8h0Z"/>
    <path class="st5" d="M277.5,70.3c0-4.2,3-7.3,6.9-7.3s3.9.9,4.9,2.4v-2h2.9v13.8h-2.9v-2.1c-1,1.5-2.7,2.4-4.9,2.4-3.9,0-6.9-3.1-6.9-7.3h0ZM289.4,70.3c0-2.7-2-4.6-4.5-4.6s-4.5,1.9-4.5,4.6,1.9,4.7,4.5,4.7,4.5-2,4.5-4.7Z"/>
    <path class="st5" d="M296.1,63.4h2.9v2.2c.8-1.7,2.4-2.7,4.7-2.4v2.7c-3-.4-4.7,1-4.7,5.1v6.2h-2.9v-13.8Z"/>
    <path class="st5" d="M306.3,57.1h2.9v12.5l5.7-6.2h3.5l-5.5,6,6.2,7.9h-3.4l-4.6-5.8-1.8,2v3.8h-2.9v-20.1h-.1Z"/>
    <path class="st5" d="M319.5,70.3c0-4.1,2.9-7.3,7.1-7.3s7,3.1,7,7,0,.7,0,1.1h-11.2c.2,2.3,1.8,3.9,4.6,3.9s3.3-1,3.9-2.2l2.7.8c-.9,1.9-3,3.9-6.6,3.9s-7.4-2.9-7.4-7.3h-.1ZM326.7,65.6c-2.4,0-4.1,1.7-4.3,3.7h8.4c-.2-2.1-1.7-3.7-4.2-3.7h.1Z"/>
    <path class="st5" d="M337.3,72.7v-6.7h-2.5v-2.6h2.5v-4.6h2.9v4.6h4.4v2.6h-4.4v6.7c0,1.3.6,2.1,2,2.1s1.2-.1,1.8-.4l.7,2.4c-1,.4-2,.7-3.1.7-3,0-4.3-1.9-4.3-4.7h0Z"/>
    <path class="st5" d="M347.2,59.4c0-1,.8-1.8,1.8-1.8s1.8.8,1.8,1.8-.8,1.8-1.8,1.8-1.8-.8-1.8-1.8ZM347.6,63.4h2.9v13.8h-2.9v-13.8Z"/>
    <path class="st5" d="M354.3,63.4h2.9v2.1c.9-1.4,2.5-2.5,4.8-2.5,3.5,0,5.5,2.3,5.5,6.1v8.1h-2.9v-7.6c0-2.4-1.2-3.9-3.4-3.9s-3.9,1.8-3.9,4.6v6.9h-2.9v-13.8h-.1Z"/>
    <path class="st5" d="M371.3,79.7l2.7-1c.8,1.4,2,2.1,4,2.1s4.1-1.8,4.1-4.2v-2c-1.1,1.5-2.8,2.3-4.9,2.3-4,0-6.9-3.1-6.9-7s2.9-7,6.9-7,3.8.9,4.9,2.3v-2h2.9v13.3c0,3.8-2.8,6.6-7.1,6.6s-5.4-1.5-6.6-3.6v.2ZM382.1,70c0-2.5-1.9-4.4-4.5-4.4s-4.5,1.8-4.5,4.4,1.8,4.4,4.5,4.4,4.5-1.8,4.5-4.4Z"/>
    <path class="st5" d="M394.8,70.3c0-4.2,3-7.3,6.9-7.3s3.9.9,4.9,2.4v-8.3h2.9v20.1h-2.9v-2.1c-1,1.5-2.7,2.4-4.9,2.4-3.9,0-6.9-3.1-6.9-7.3h0ZM406.7,70.3c0-2.7-2-4.6-4.5-4.6s-4.5,1.9-4.5,4.6,1.9,4.7,4.5,4.7,4.5-2,4.5-4.7Z"/>
    <path class="st5" d="M412.5,70.3c0-4.1,2.9-7.3,7.1-7.3s7,3.1,7,7,0,.7,0,1.1h-11.2c.2,2.3,1.8,3.9,4.6,3.9s3.3-1,3.9-2.2l2.7.8c-.9,1.9-3,3.9-6.6,3.9s-7.4-2.9-7.4-7.3h-.1ZM419.7,65.6c-2.4,0-4.1,1.7-4.3,3.7h8.4c-.2-2.1-1.7-3.7-4.2-3.7h.1Z"/>
    <path class="st5" d="M428.5,73.4l2.6-.8c.3,1.5,1.9,2.6,3.8,2.6s2.9-.9,2.9-1.8-.6-1.3-1.8-1.7l-3.5-1c-1.8-.6-3.3-1.6-3.3-3.5s2.4-4.1,5.5-4.1,5.1,1.5,5.8,3.5l-2.5.7c-.3-1-1.7-1.9-3.3-1.9s-2.6.8-2.6,1.6.5,1,1.5,1.3l3.4,1c2,.6,3.7,1.5,3.7,3.8s-2.4,4.4-5.8,4.4-5.8-2-6.3-4.2h-.1Z"/>
    <path class="st5" d="M443.4,59.4c0-1,.8-1.8,1.8-1.8s1.8.8,1.8,1.8-.8,1.8-1.8,1.8-1.8-.8-1.8-1.8ZM443.7,63.4h2.9v13.8h-2.9v-13.8Z"/>
    <path class="st5" d="M450.6,79.7l2.7-1c.8,1.4,2,2.1,4,2.1s4.1-1.8,4.1-4.2v-2c-1.1,1.5-2.8,2.3-4.9,2.3-4,0-6.9-3.1-6.9-7s2.9-7,6.9-7,3.8.9,4.9,2.3v-2h2.9v13.3c0,3.8-2.8,6.6-7.1,6.6s-5.4-1.5-6.6-3.6v.2ZM461.4,70c0-2.5-1.9-4.4-4.5-4.4s-4.5,1.8-4.5,4.4,1.8,4.4,4.5,4.4,4.5-1.8,4.5-4.4Z"/>
    <path class="st5" d="M468.1,63.4h2.9v2.1c.9-1.4,2.5-2.5,4.8-2.5,3.5,0,5.5,2.3,5.5,6.1v8.1h-2.9v-7.6c0-2.4-1.2-3.9-3.4-3.9s-3.9,1.8-3.9,4.6v6.9h-2.9v-13.8h0Z"/>
    <path class="st5" d="M484.1,70.3c0-4.1,2.9-7.3,7.1-7.3s7,3.1,7,7,0,.7,0,1.1h-11.2c.2,2.3,1.8,3.9,4.6,3.9s3.3-1,3.9-2.2l2.7.8c-.9,1.9-3,3.9-6.6,3.9s-7.4-2.9-7.4-7.3h0ZM491.2,65.6c-2.4,0-4.1,1.7-4.3,3.7h8.4c-.2-2.1-1.7-3.7-4.2-3.7h0Z"/>
    <path class="st5" d="M501.2,63.4h2.9v2.2c.8-1.7,2.4-2.7,4.7-2.4v2.7c-3-.4-4.7,1-4.7,5.1v6.2h-2.9v-13.8Z"/>
  </g>
</svg>