<?xml version="1.0" encoding="UTF-8"?><svg xmlns="http://www.w3.org/2000/svg" xmlns:xlink="http://www.w3.org/1999/xlink" viewBox="0 0 76.23 96.09"><defs><style>.g{fill:url(#f);}.h{fill:none;}.i{fill:#77bfea;}.j{clip-path:url(#e);}.k{clip-path:url(#d);}.l{fill:#024168;opacity:.88;}</style><clipPath id="d"><path class="h" d="M64.43,26c-4.9-8.45-9.75-15.5-9.95-15.8L48.37,1.36h0l-.34-.49C47.66,.32,47.02,0,46.35,0L29.64,.24c-.64,0-1.24,.33-1.61,.86l-1.03,1.49h0l-5.25,7.61c-.2,.3-5.06,7.35-9.96,15.8C3.53,40.27,0,49.84,0,57.98c0,15.75,9.61,29.31,23.27,35.1h.02c1.14,.49,2.31,.92,3.5,1.29,3.58,1.12,7.38,1.72,11.32,1.72,21.02,0,38.12-17.1,38.12-38.12,0-8.14-3.53-17.7-11.8-31.97Z"/></clipPath><clipPath id="e"><path class="h" d="M-1.54-8.16V99.98H77.71V-8.16H-1.54ZM38.12,71.53c-10.04,0-18.25-8.21-18.25-18.24S38.12,16.8,38.12,16.8c0,0,18.24,26.46,18.24,36.49s-8.21,18.24-18.24,18.24Z"/></clipPath><linearGradient id="f" x1="3.66" y1="69.61" x2="68.92" y2="30.22" gradientTransform="matrix(1, 0, 0, 1, 0, 0)" gradientUnits="userSpaceOnUse"><stop offset="0" stop-color="#4b9cd3"/><stop offset=".36" stop-color="#2d79aa"/><stop offset=".78" stop-color="#105682"/><stop offset="1" stop-color="#054973"/></linearGradient></defs><g id="a"/><g id="b"><g id="c"><g class="k"><g class="j"><g><path class="g" d="M38.12,96.09C17.1,96.09,0,78.99,0,57.98,0,49.84,3.53,40.27,11.8,26c4.9-8.45,9.75-15.5,9.96-15.8L27.9,1.31l20.48,.05,6.1,8.85c.2,.3,5.06,7.35,9.95,15.8,8.27,14.27,11.8,23.83,11.8,31.97,0,21.02-17.1,38.12-38.12,38.12Z"/><path class="l" d="M52.05,12.46c.21,.29,5.22,7.16,10.27,15.38,8.53,13.9,12.17,23.21,12.17,31.13,0,20.46-16.38,36.02-38.05,36.02-5.42,0-14.82-1.88-12.71-2,2.15-.12,4.71-.31,6.27-.59,21.62-3.87,29.24-21.83,24-40.02-3.38-11.73-23.01-39.09-27.79-45.66-.67-.92-1.78-.37-1.78-.37l3.48-5.04,24.16,11.16c.21,.29,5.22,7.16,10.27,15.38,8.53,13.9,12.17,23.21,12.17,31.13"/></g><path class="h" d="M64.43,26c-4.9-8.45-9.75-15.5-9.95-15.8L48.37,1.36l-20.48-.05-.89,1.29-5.25,7.61c-.2,.3-5.06,7.35-9.96,15.8C3.53,40.27,0,49.84,0,57.98,0,73.73,9.61,87.28,23.27,93.08h.02c.57,.25,1.15,.48,1.73,.69s1.17,.41,1.77,.6c.3,.09,.6,.18,.9,.27,.6,.17,1.21,.33,1.83,.47,2.76,.64,5.64,.98,8.6,.98,21.02,0,38.12-17.1,38.12-38.12,0-8.14-3.53-17.7-11.8-31.97Z"/><path class="h" d="M64.43,26c-4.9-8.45-9.75-15.5-9.95-15.8L48.37,1.36h0l-.34-.49C47.66,.32,47.02,0,46.35,0L29.64,.24c-.64,0-1.24,.33-1.61,.86l-.65,.94-5.63,8.16c-.2,.3-5.06,7.35-9.96,15.8C3.53,40.27,0,49.84,0,57.98,0,73.73,9.61,87.28,23.27,93.08h.02c1.14,.49,2.31,.92,3.5,1.29,3.58,1.12,7.38,1.72,11.32,1.72,21.02,0,38.12-17.1,38.12-38.12,0-8.14-3.53-17.7-11.8-31.97Z"/></g><path class="i" d="M76.23,57.98c0-8.14-3.53-17.7-11.8-31.97-4.9-8.45-9.75-15.5-9.95-15.8L48.04,.87C47.66,.32,47.02,0,46.35,0L29.64,.24c-.64,0-1.24,.33-1.61,.86l-1.03,1.49s1.09-.72,1.76,.21c4.84,6.7,24.31,36.33,27.59,48.4,5.81,21.35-4.67,42.39-33.09,41.88h.02c4.56,1.94,9.57,3.01,14.82,3.01,21.02,0,38.12-17.1,38.12-38.12,0-8.14-3.53-17.7-11.8-31.97-4.9-8.45-9.75-15.5-9.95-15.8"/></g></g></g></svg>