<?xml version="1.0" encoding="UTF-8"?>
<svg width="9629px" height="129px" viewBox="0 0 9629 129" version="1.1" xmlns="http://www.w3.org/2000/svg" xmlns:xlink="http://www.w3.org/1999/xlink">
    <title>Group 423 Copy</title>
    <defs>
        <polygon id="path-1" points="0 0 49.9358005 0 49.9358005 70.7423952 0 70.7423952"></polygon>
        <polygon id="path-3" points="0 0 49.9358005 0 49.9358005 70.7423952 0 70.7423952"></polygon>
        <polygon id="path-5" points="0 0 49.9358005 0 49.9358005 70.7423952 0 70.7423952"></polygon>
        <polygon id="path-7" points="0 0 49.9364706 0 49.9364706 70.7423952 0 70.7423952"></polygon>
        <polygon id="path-9" points="0 0 49.9364706 0 49.9364706 70.7423952 0 70.7423952"></polygon>
        <polygon id="path-11" points="0 0 49.9364706 0 49.9364706 70.7423952 0 70.7423952"></polygon>
        <polygon id="path-13" points="0 0 49.9364706 0 49.9364706 70.7423952 0 70.7423952"></polygon>
        <polygon id="path-15" points="0 0 49.9358005 0 49.9358005 70.7423952 0 70.7423952"></polygon>
        <polygon id="path-17" points="0 0 49.9364706 0 49.9364706 70.7423952 0 70.7423952"></polygon>
        <polygon id="path-19" points="0 0 49.9364706 0 49.9364706 70.7423952 0 70.7423952"></polygon>
        <polygon id="path-21" points="0 0 49.9364706 0 49.9364706 70.7423952 0 70.7423952"></polygon>
        <polygon id="path-23" points="0 0 49.9364706 0 49.9364706 70.7423952 0 70.7423952"></polygon>
        <polygon id="path-25" points="0 0 49.9364706 0 49.9364706 70.7423952 0 70.7423952"></polygon>
        <polygon id="path-27" points="0 0 49.9364706 0 49.9364706 70.7423952 0 70.7423952"></polygon>
        <polygon id="path-29" points="0 0 49.9364706 0 49.9364706 70.7423952 0 70.7423952"></polygon>
        <polygon id="path-31" points="0 0 49.9364706 0 49.9364706 70.7423952 0 70.7423952"></polygon>
        <polygon id="path-33" points="0 0 49.9364706 0 49.9364706 70.7423952 0 70.7423952"></polygon>
        <polygon id="path-35" points="0 0 49.9364706 0 49.9364706 70.7423952 0 70.7423952"></polygon>
        <polygon id="path-37" points="0 0 49.9364706 0 49.9364706 70.7423952 0 70.7423952"></polygon>
        <polygon id="path-39" points="0 0 49.9364706 0 49.9364706 70.7423952 0 70.7423952"></polygon>
        <polygon id="path-41" points="0 0 49.9364706 0 49.9364706 70.7423952 0 70.7423952"></polygon>
        <polygon id="path-43" points="0 0 49.9358005 0 49.9358005 70.7423952 0 70.7423952"></polygon>
        <polygon id="path-45" points="0 0 49.9358005 0 49.9358005 70.7423952 0 70.7423952"></polygon>
        <polygon id="path-47" points="0 0 49.9358005 0 49.9358005 70.7423952 0 70.7423952"></polygon>
        <polygon id="path-49" points="0 0 49.9364706 0 49.9364706 70.7423952 0 70.7423952"></polygon>
        <polygon id="path-51" points="0 0 49.9364706 0 49.9364706 70.7423952 0 70.7423952"></polygon>
        <polygon id="path-53" points="0 0 49.9364706 0 49.9364706 70.7423952 0 70.7423952"></polygon>
        <polygon id="path-55" points="0 0 49.9358005 0 49.9358005 70.7423952 0 70.7423952"></polygon>
        <polygon id="path-57" points="0 0 49.9358005 0 49.9358005 70.7423952 0 70.7423952"></polygon>
        <polygon id="path-59" points="0 0 49.9358005 0 49.9358005 70.7423952 0 70.7423952"></polygon>
        <polygon id="path-61" points="0 0 49.9364706 0 49.9364706 70.7423952 0 70.7423952"></polygon>
        <polygon id="path-63" points="0 0 49.9358005 0 49.9358005 70.7423952 0 70.7423952"></polygon>
        <polygon id="path-65" points="0 0 49.9358005 0 49.9358005 70.7423952 0 70.7423952"></polygon>
        <polygon id="path-67" points="0 0 49.9358005 0 49.9358005 70.7423952 0 70.7423952"></polygon>
        <polygon id="path-69" points="0 0 49.9364706 0 49.9364706 70.7423952 0 70.7423952"></polygon>
        <polygon id="path-71" points="0 0 49.9364706 0 49.9364706 70.7423952 0 70.7423952"></polygon>
        <polygon id="path-73" points="0 0 49.9358005 0 49.9358005 70.7423952 0 70.7423952"></polygon>
        <polygon id="path-75" points="0 0 49.9358005 0 49.9358005 70.7423952 0 70.7423952"></polygon>
        <polygon id="path-77" points="0 0 49.9358005 0 49.9358005 70.7423952 0 70.7423952"></polygon>
        <polygon id="path-79" points="0 0 49.9364706 0 49.9364706 70.7423952 0 70.7423952"></polygon>
        <polygon id="path-81" points="0 0 49.9364706 0 49.9364706 70.7423952 0 70.7423952"></polygon>
        <polygon id="path-83" points="0 0 49.9364706 0 49.9364706 70.7423952 0 70.7423952"></polygon>
        <polygon id="path-85" points="0 0 49.9364706 0 49.9364706 70.7423952 0 70.7423952"></polygon>
        <polygon id="path-87" points="0 0 49.9358005 0 49.9358005 70.7423952 0 70.7423952"></polygon>
        <polygon id="path-89" points="0 0 49.9358005 0 49.9358005 70.7423952 0 70.7423952"></polygon>
        <polygon id="path-91" points="0 0 49.9358005 0 49.9358005 70.7423952 0 70.7423952"></polygon>
        <polygon id="path-93" points="0 0 49.9358005 0 49.9358005 70.7423952 0 70.7423952"></polygon>
        <polygon id="path-95" points="0 0 49.9358005 0 49.9358005 70.7423952 0 70.7423952"></polygon>
        <polygon id="path-97" points="0 0 49.9358005 0 49.9358005 70.7423952 0 70.7423952"></polygon>
        <polygon id="path-99" points="0 0 49.9364706 0 49.9364706 70.7423952 0 70.7423952"></polygon>
        <polygon id="path-101" points="0 0 49.9358005 0 49.9358005 70.7423952 0 70.7423952"></polygon>
        <polygon id="path-103" points="0 0 49.9364706 0 49.9364706 70.7423952 0 70.7423952"></polygon>
        <polygon id="path-105" points="0 0 49.9364706 0 49.9364706 70.7423952 0 70.7423952"></polygon>
        <polygon id="path-107" points="0 0 49.9358005 0 49.9358005 70.7423952 0 70.7423952"></polygon>
        <polygon id="path-109" points="0 0 49.9358005 0 49.9358005 70.7423952 0 70.7423952"></polygon>
        <polygon id="path-111" points="0 0 49.9358005 0 49.9358005 70.7423952 0 70.7423952"></polygon>
        <polygon id="path-113" points="0 0 49.9358005 0 49.9358005 70.7423952 0 70.7423952"></polygon>
        <polygon id="path-115" points="0 0 49.9358005 0 49.9358005 70.7423952 0 70.7423952"></polygon>
        <polygon id="path-117" points="0 0 49.9358005 0 49.9358005 70.7423952 0 70.7423952"></polygon>
        <polygon id="path-119" points="0 0 49.9358005 0 49.9358005 70.7423952 0 70.7423952"></polygon>
        <polygon id="path-121" points="0 0 49.9358005 0 49.9358005 70.7423952 0 70.7423952"></polygon>
        <polygon id="path-123" points="0 0 49.9358005 0 49.9358005 70.7423952 0 70.7423952"></polygon>
        <polygon id="path-125" points="0 0 49.9358005 0 49.9358005 70.7423952 0 70.7423952"></polygon>
        <polygon id="path-127" points="0 0 49.9358005 0 49.9358005 70.7423952 0 70.7423952"></polygon>
        <polygon id="path-129" points="0 0 49.9358005 0 49.9358005 70.7423952 0 70.7423952"></polygon>
        <polygon id="path-131" points="0 0 49.9358005 0 49.9358005 70.7423952 0 70.7423952"></polygon>
        <polygon id="path-133" points="0 0 49.9358005 0 49.9358005 70.7423952 0 70.7423952"></polygon>
        <polygon id="path-135" points="0 0 49.9358005 0 49.9358005 70.7423952 0 70.7423952"></polygon>
        <polygon id="path-137" points="0 0 49.9358005 0 49.9358005 70.7423952 0 70.7423952"></polygon>
        <polygon id="path-139" points="0 0 49.9358005 0 49.9358005 70.7423952 0 70.7423952"></polygon>
        <polygon id="path-141" points="0 0 49.9358005 0 49.9358005 70.7423952 0 70.7423952"></polygon>
        <polygon id="path-143" points="0 0 49.9364706 0 49.9364706 70.7423952 0 70.7423952"></polygon>
        <polygon id="path-145" points="0 0 49.9364706 0 49.9364706 70.7423952 0 70.7423952"></polygon>
        <polygon id="path-147" points="0 0 49.9358005 0 49.9358005 70.7423952 0 70.7423952"></polygon>
        <polygon id="path-149" points="0 0 49.9358005 0 49.9358005 70.7423952 0 70.7423952"></polygon>
        <polygon id="path-151" points="0 0 49.9358005 0 49.9358005 70.7423952 0 70.7423952"></polygon>
        <polygon id="path-153" points="0 0 49.9358005 0 49.9358005 70.7423952 0 70.7423952"></polygon>
        <polygon id="path-155" points="0 0 49.9358005 0 49.9358005 70.7423952 0 70.7423952"></polygon>
        <polygon id="path-157" points="0 0 49.9358005 0 49.9358005 70.7423952 0 70.7423952"></polygon>
        <polygon id="path-159" points="0 0 49.9358005 0 49.9358005 70.7423952 0 70.7423952"></polygon>
        <polygon id="path-161" points="0 0 49.9358005 0 49.9358005 70.7423952 0 70.7423952"></polygon>
    </defs>
    <g id="Web-Pages" stroke="none" stroke-width="1" fill="none" fill-rule="evenodd" opacity="0.600000024">
        <g id="Home" transform="translate(4094.000000, -556.000000)">
            <g id="Group-423-Copy" transform="translate(720.151113, 620.797872) scale(1, -1) translate(-720.151113, -620.797872) translate(-4094.000000, 556.797872)">
                <g id="Group-3" transform="translate(7542.963523, 57.257605)">
                    <mask id="mask-2" fill="white">
                        <use xlink:href="#path-1"></use>
                    </mask>
                    <g id="Clip-2"></g>
                    <path d="M0,45.7744279 C0,59.5485041 11.1934891,70.7426632 24.9675652,70.7426632 C38.7416413,70.7426632 49.9358005,59.5485041 49.9358005,45.7744279 C49.9358005,27.0482515 24.9675652,0 24.9675652,0 C24.9675652,0 0,27.0482515 0,45.7744279" id="Fill-1" fill="#FFFFFF" mask="url(#mask-2)"></path>
                </g>
                <g id="Group-6" transform="translate(7662.692979, 57.257605)">
                    <mask id="mask-4" fill="white">
                        <use xlink:href="#path-3"></use>
                    </mask>
                    <g id="Clip-5"></g>
                    <path d="M0,45.7744279 C0,59.5485041 11.1934891,70.7426632 24.9675652,70.7426632 C38.7416413,70.7426632 49.9358005,59.5485041 49.9358005,45.7744279 C49.9358005,27.0482515 24.9675652,0 24.9675652,0 C24.9675652,0 0,27.0482515 0,45.7744279" id="Fill-4" fill="#FFFFFF" mask="url(#mask-4)"></path>
                </g>
                <g id="Group-9" transform="translate(7782.422502, 57.257605)">
                    <mask id="mask-6" fill="white">
                        <use xlink:href="#path-5"></use>
                    </mask>
                    <g id="Clip-8"></g>
                    <path d="M0,45.7744279 C0,59.5485041 11.1934891,70.7426632 24.9682353,70.7426632 C38.7416413,70.7426632 49.9358005,59.5485041 49.9358005,45.7744279 C49.9358005,27.0482515 24.9682353,0 24.9682353,0 C24.9682353,0 0,27.0482515 0,45.7744279" id="Fill-7" fill="#FFFFFF" mask="url(#mask-6)"></path>
                </g>
                <g id="Group-12" transform="translate(7902.152026, 57.257605)">
                    <mask id="mask-8" fill="white">
                        <use xlink:href="#path-7"></use>
                    </mask>
                    <g id="Clip-11"></g>
                    <path d="M0,45.7744279 C0,59.5485041 11.1934891,70.7426632 24.9682353,70.7426632 C38.7416413,70.7426632 49.9364706,59.5485041 49.9364706,45.7744279 C49.9364706,27.0482515 24.9682353,0 24.9682353,0 C24.9682353,0 0,27.0482515 0,45.7744279" id="Fill-10" fill="#FFFFFF" mask="url(#mask-8)"></path>
                </g>
                <g id="Group-15" transform="translate(8021.881549, 57.257605)">
                    <mask id="mask-10" fill="white">
                        <use xlink:href="#path-9"></use>
                    </mask>
                    <g id="Clip-14"></g>
                    <path d="M0,45.7744279 C0,59.5485041 11.1941592,70.7426632 24.9682353,70.7426632 C38.7416413,70.7426632 49.9364706,59.5485041 49.9364706,45.7744279 C49.9364706,27.0482515 24.9682353,0 24.9682353,0 C24.9682353,0 0,27.0482515 0,45.7744279" id="Fill-13" fill="#FFFFFF" mask="url(#mask-10)"></path>
                </g>
                <g id="Group-18" transform="translate(8141.611005, 57.257605)">
                    <mask id="mask-12" fill="white">
                        <use xlink:href="#path-11"></use>
                    </mask>
                    <g id="Clip-17"></g>
                    <path d="M0,45.7744279 C0,59.5485041 11.1941592,70.7426632 24.9682353,70.7426632 C38.7416413,70.7426632 49.9364706,59.5485041 49.9364706,45.7744279 C49.9364706,27.0482515 24.9682353,0 24.9682353,0 C24.9682353,0 0,27.0482515 0,45.7744279" id="Fill-16" fill="#FFFFFF" mask="url(#mask-12)"></path>
                </g>
                <g id="Group-21" transform="translate(8261.340529, 57.257605)">
                    <mask id="mask-14" fill="white">
                        <use xlink:href="#path-13"></use>
                    </mask>
                    <g id="Clip-20"></g>
                    <path d="M0,45.7744279 C0,59.5485041 11.1941592,70.7426632 24.9682353,70.7426632 C38.7416413,70.7426632 49.9364706,59.5485041 49.9364706,45.7744279 C49.9364706,27.0482515 24.9682353,0 24.9682353,0 C24.9682353,0 0,27.0482515 0,45.7744279" id="Fill-19" fill="#FFFFFF" mask="url(#mask-14)"></path>
                </g>
                <g id="Group-24" transform="translate(6704.856323, 57.257605)">
                    <mask id="mask-16" fill="white">
                        <use xlink:href="#path-15"></use>
                    </mask>
                    <g id="Clip-23"></g>
                    <path d="M0,45.7744279 C0,59.5485041 11.1934891,70.7426632 24.9682353,70.7426632 C38.7416413,70.7426632 49.9358005,59.5485041 49.9358005,45.7744279 C49.9358005,27.0482515 24.9682353,0 24.9682353,0 C24.9682353,0 0,27.0482515 0,45.7744279" id="Fill-22" fill="#FFFFFF" mask="url(#mask-16)"></path>
                </g>
                <g id="Group-27" transform="translate(6824.585779, 57.257605)">
                    <mask id="mask-18" fill="white">
                        <use xlink:href="#path-17"></use>
                    </mask>
                    <g id="Clip-26"></g>
                    <path d="M0,45.7744279 C0,59.5485041 11.1941592,70.7426632 24.9682353,70.7426632 C38.7416413,70.7426632 49.9364706,59.5485041 49.9364706,45.7744279 C49.9364706,27.0482515 24.9682353,0 24.9682353,0 C24.9682353,0 0,27.0482515 0,45.7744279" id="Fill-25" fill="#FFFFFF" mask="url(#mask-18)"></path>
                </g>
                <g id="Group-30" transform="translate(6944.315303, 57.257605)">
                    <mask id="mask-20" fill="white">
                        <use xlink:href="#path-19"></use>
                    </mask>
                    <g id="Clip-29"></g>
                    <path d="M0,45.7744279 C0,59.5485041 11.1941592,70.7426632 24.9682353,70.7426632 C38.7416413,70.7426632 49.9364706,59.5485041 49.9364706,45.7744279 C49.9364706,27.0482515 24.9682353,0 24.9682353,0 C24.9682353,0 0,27.0482515 0,45.7744279" id="Fill-28" fill="#FFFFFF" mask="url(#mask-20)"></path>
                </g>
                <g id="Group-33" transform="translate(7064.044826, 57.257605)">
                    <mask id="mask-22" fill="white">
                        <use xlink:href="#path-21"></use>
                    </mask>
                    <g id="Clip-32"></g>
                    <path d="M0,45.7744279 C0,59.5485041 11.1941592,70.7426632 24.9682353,70.7426632 C38.7416413,70.7426632 49.9364706,59.5485041 49.9364706,45.7744279 C49.9364706,27.0482515 24.9682353,0 24.9682353,0 C24.9682353,0 0,27.0482515 0,45.7744279" id="Fill-31" fill="#FFFFFF" mask="url(#mask-22)"></path>
                </g>
                <g id="Group-36" transform="translate(7183.774349, 57.257605)">
                    <mask id="mask-24" fill="white">
                        <use xlink:href="#path-23"></use>
                    </mask>
                    <g id="Clip-35"></g>
                    <path d="M0,45.7744279 C0,59.5485041 11.1941592,70.7426632 24.9682353,70.7426632 C38.7416413,70.7426632 49.9364706,59.5485041 49.9364706,45.7744279 C49.9364706,27.0482515 24.9682353,0 24.9682353,0 C24.9682353,0 0,27.0482515 0,45.7744279" id="Fill-34" fill="#FFFFFF" mask="url(#mask-24)"></path>
                </g>
                <g id="Group-39" transform="translate(7303.503806, 57.257605)">
                    <mask id="mask-26" fill="white">
                        <use xlink:href="#path-25"></use>
                    </mask>
                    <g id="Clip-38"></g>
                    <path d="M0,45.7744279 C0,59.5485041 11.1941592,70.7426632 24.9682353,70.7426632 C38.7416413,70.7426632 49.9364706,59.5485041 49.9364706,45.7744279 C49.9364706,27.0482515 24.9682353,0 24.9682353,0 C24.9682353,0 0,27.0482515 0,45.7744279" id="Fill-37" fill="#FFFFFF" mask="url(#mask-26)"></path>
                </g>
                <g id="Group-42" transform="translate(7423.233329, 57.257605)">
                    <mask id="mask-28" fill="white">
                        <use xlink:href="#path-27"></use>
                    </mask>
                    <g id="Clip-41"></g>
                    <path d="M0,45.7744279 C0,59.5485041 11.1941592,70.7426632 24.9682353,70.7426632 C38.7416413,70.7426632 49.9364706,59.5485041 49.9364706,45.7744279 C49.9364706,27.0482515 24.9682353,0 24.9682353,0 C24.9682353,0 0,27.0482515 0,45.7744279" id="Fill-40" fill="#FFFFFF" mask="url(#mask-28)"></path>
                </g>
                <g id="Group-45" transform="translate(9219.177251, 57.257605)">
                    <mask id="mask-30" fill="white">
                        <use xlink:href="#path-29"></use>
                    </mask>
                    <g id="Clip-44"></g>
                    <path d="M0,45.7744279 C0,59.5485041 11.1941592,70.7426632 24.9682353,70.7426632 C38.7416413,70.7426632 49.9364706,59.5485041 49.9364706,45.7744279 C49.9364706,27.0482515 24.9682353,0 24.9682353,0 C24.9682353,0 0,27.0482515 0,45.7744279" id="Fill-43" fill="#FFFFFF" mask="url(#mask-30)"></path>
                </g>
                <g id="Group-48" transform="translate(9338.906775, 57.257605)">
                    <mask id="mask-32" fill="white">
                        <use xlink:href="#path-31"></use>
                    </mask>
                    <g id="Clip-47"></g>
                    <path d="M0,45.7744279 C0,59.5485041 11.1941592,70.7426632 24.9682353,70.7426632 C38.7416413,70.7426632 49.9364706,59.5485041 49.9364706,45.7744279 C49.9364706,27.0482515 24.9682353,0 24.9682353,0 C24.9682353,0 0,27.0482515 0,45.7744279" id="Fill-46" fill="#FFFFFF" mask="url(#mask-32)"></path>
                </g>
                <g id="Group-51" transform="translate(9458.636231, 57.257605)">
                    <mask id="mask-34" fill="white">
                        <use xlink:href="#path-33"></use>
                    </mask>
                    <g id="Clip-50"></g>
                    <path d="M0,45.7744279 C0,59.5485041 11.1941592,70.7426632 24.9682353,70.7426632 C38.7416413,70.7426632 49.9364706,59.5485041 49.9364706,45.7744279 C49.9364706,27.0482515 24.9682353,0 24.9682353,0 C24.9682353,0 0,27.0482515 0,45.7744279" id="Fill-49" fill="#FFFFFF" mask="url(#mask-34)"></path>
                </g>
                <g id="Group-54" transform="translate(9578.365755, 57.257605)">
                    <mask id="mask-36" fill="white">
                        <use xlink:href="#path-35"></use>
                    </mask>
                    <g id="Clip-53"></g>
                    <path d="M0,45.7744279 C0,59.5485041 11.1941592,70.7426632 24.9682353,70.7426632 C38.7416413,70.7426632 49.9364706,59.5485041 49.9364706,45.7744279 C49.9364706,27.0482515 24.9682353,0 24.9682353,0 C24.9682353,0 0,27.0482515 0,45.7744279" id="Fill-52" fill="#FFFFFF" mask="url(#mask-36)"></path>
                </g>
                <g id="Group-63" transform="translate(8381.070052, 57.257605)">
                    <mask id="mask-38" fill="white">
                        <use xlink:href="#path-37"></use>
                    </mask>
                    <g id="Clip-62"></g>
                    <path d="M0,45.7744279 C0,59.5485041 11.1941592,70.7426632 24.9682353,70.7426632 C38.7416413,70.7426632 49.9364706,59.5485041 49.9364706,45.7744279 C49.9364706,27.0482515 24.9682353,0 24.9682353,0 C24.9682353,0 0,27.0482515 0,45.7744279" id="Fill-61" fill="#FFFFFF" mask="url(#mask-38)"></path>
                </g>
                <g id="Group-66" transform="translate(8500.799575, 57.257605)">
                    <mask id="mask-40" fill="white">
                        <use xlink:href="#path-39"></use>
                    </mask>
                    <g id="Clip-65"></g>
                    <path d="M0,45.7744279 C0,59.5485041 11.1941592,70.7426632 24.9682353,70.7426632 C38.7416413,70.7426632 49.9364706,59.5485041 49.9364706,45.7744279 C49.9364706,27.0482515 24.9682353,0 24.9682353,0 C24.9682353,0 0,27.0482515 0,45.7744279" id="Fill-64" fill="#FFFFFF" mask="url(#mask-40)"></path>
                </g>
                <g id="Group-69" transform="translate(8620.529032, 57.257605)">
                    <mask id="mask-42" fill="white">
                        <use xlink:href="#path-41"></use>
                    </mask>
                    <g id="Clip-68"></g>
                    <path d="M0,45.7744279 C0,59.5485041 11.1941592,70.7426632 24.9682353,70.7426632 C38.7423114,70.7426632 49.9364706,59.5485041 49.9364706,45.7744279 C49.9364706,27.0482515 24.9682353,0 24.9682353,0 C24.9682353,0 0,27.0482515 0,45.7744279" id="Fill-67" fill="#FFFFFF" mask="url(#mask-42)"></path>
                </g>
                <g id="Group-72" transform="translate(8740.259225, 57.257605)">
                    <mask id="mask-44" fill="white">
                        <use xlink:href="#path-43"></use>
                    </mask>
                    <g id="Clip-71"></g>
                    <path d="M0,45.7744279 C0,59.5485041 11.1934891,70.7426632 24.9675652,70.7426632 C38.7416413,70.7426632 49.9358005,59.5485041 49.9358005,45.7744279 C49.9358005,27.0482515 24.9675652,0 24.9675652,0 C24.9675652,0 0,27.0482515 0,45.7744279" id="Fill-70" fill="#FFFFFF" mask="url(#mask-44)"></path>
                </g>
                <g id="Group-75" transform="translate(8859.988748, 57.257605)">
                    <mask id="mask-46" fill="white">
                        <use xlink:href="#path-45"></use>
                    </mask>
                    <g id="Clip-74"></g>
                    <path d="M0,45.7744279 C0,59.5485041 11.1934891,70.7426632 24.9682353,70.7426632 C38.7416413,70.7426632 49.9358005,59.5485041 49.9358005,45.7744279 C49.9358005,27.0482515 24.9682353,0 24.9682353,0 C24.9682353,0 0,27.0482515 0,45.7744279" id="Fill-73" fill="#FFFFFF" mask="url(#mask-46)"></path>
                </g>
                <g id="Group-78" transform="translate(8979.718205, 57.257605)">
                    <mask id="mask-48" fill="white">
                        <use xlink:href="#path-47"></use>
                    </mask>
                    <g id="Clip-77"></g>
                    <path d="M0,45.7744279 C0,59.5485041 11.1934891,70.7426632 24.9682353,70.7426632 C38.7416413,70.7426632 49.9358005,59.5485041 49.9358005,45.7744279 C49.9358005,27.0482515 24.9682353,0 24.9682353,0 C24.9682353,0 0,27.0482515 0,45.7744279" id="Fill-76" fill="#FFFFFF" mask="url(#mask-48)"></path>
                </g>
                <g id="Group-81" transform="translate(9099.447728, 57.257605)">
                    <mask id="mask-50" fill="white">
                        <use xlink:href="#path-49"></use>
                    </mask>
                    <g id="Clip-80"></g>
                    <path d="M0,45.7744279 C0,59.5485041 11.1941592,70.7426632 24.9682353,70.7426632 C38.7416413,70.7426632 49.9364706,59.5485041 49.9364706,45.7744279 C49.9364706,27.0482515 24.9682353,0 24.9682353,0 C24.9682353,0 0,27.0482515 0,45.7744279" id="Fill-79" fill="#FFFFFF" mask="url(#mask-50)"></path>
                </g>
                <g id="Group-84" transform="translate(4190.534992, 57.257605)">
                    <mask id="mask-52" fill="white">
                        <use xlink:href="#path-51"></use>
                    </mask>
                    <g id="Clip-83"></g>
                    <path d="M0,45.7744279 C0,59.5485041 11.1941592,70.7426632 24.9682353,70.7426632 C38.7416413,70.7426632 49.9364706,59.5485041 49.9364706,45.7744279 C49.9364706,27.0482515 24.9682353,0 24.9682353,0 C24.9682353,0 0,27.0482515 0,45.7744279" id="Fill-82" fill="#FFFFFF" mask="url(#mask-52)"></path>
                </g>
                <g id="Group-87" transform="translate(4310.264516, 57.257605)">
                    <mask id="mask-54" fill="white">
                        <use xlink:href="#path-53"></use>
                    </mask>
                    <g id="Clip-86"></g>
                    <path d="M0,45.7744279 C0,59.5485041 11.1941592,70.7426632 24.9682353,70.7426632 C38.7423114,70.7426632 49.9364706,59.5485041 49.9364706,45.7744279 C49.9364706,27.0482515 24.9682353,0 24.9682353,0 C24.9682353,0 0,27.0482515 0,45.7744279" id="Fill-85" fill="#FFFFFF" mask="url(#mask-54)"></path>
                </g>
                <g id="Group-90" transform="translate(4429.994374, 57.257605)">
                    <mask id="mask-56" fill="white">
                        <use xlink:href="#path-55"></use>
                    </mask>
                    <g id="Clip-89"></g>
                    <path d="M0,45.7744279 C0,59.5485041 11.1941592,70.7426632 24.9675652,70.7426632 C38.7416413,70.7426632 49.9358005,59.5485041 49.9358005,45.7744279 C49.9358005,27.0482515 24.9675652,0 24.9675652,0 C24.9675652,0 0,27.0482515 0,45.7744279" id="Fill-88" fill="#FFFFFF" mask="url(#mask-56)"></path>
                </g>
                <g id="Group-93" transform="translate(4549.723898, 57.257605)">
                    <mask id="mask-58" fill="white">
                        <use xlink:href="#path-57"></use>
                    </mask>
                    <g id="Clip-92"></g>
                    <path d="M0,45.7744279 C0,59.5485041 11.1941592,70.7426632 24.9682353,70.7426632 C38.7416413,70.7426632 49.9358005,59.5485041 49.9358005,45.7744279 C49.9358005,27.0482515 24.9682353,0 24.9682353,0 C24.9682353,0 0,27.0482515 0,45.7744279" id="Fill-91" fill="#FFFFFF" mask="url(#mask-58)"></path>
                </g>
                <g id="Group-96" transform="translate(4669.453354, 57.257605)">
                    <mask id="mask-60" fill="white">
                        <use xlink:href="#path-59"></use>
                    </mask>
                    <g id="Clip-95"></g>
                    <path d="M0,45.7744279 C0,59.5485041 11.1941592,70.7426632 24.9682353,70.7426632 C38.7416413,70.7426632 49.9358005,59.5485041 49.9358005,45.7744279 C49.9358005,27.0482515 24.9682353,0 24.9682353,0 C24.9682353,0 0,27.0482515 0,45.7744279" id="Fill-94" fill="#FFFFFF" mask="url(#mask-60)"></path>
                </g>
                <g id="Group-99" transform="translate(4789.182877, 57.257605)">
                    <mask id="mask-62" fill="white">
                        <use xlink:href="#path-61"></use>
                    </mask>
                    <g id="Clip-98"></g>
                    <path d="M0,45.7744279 C0,59.5485041 11.1941592,70.7426632 24.9682353,70.7426632 C38.7416413,70.7426632 49.9364706,59.5485041 49.9364706,45.7744279 C49.9364706,27.0482515 24.9682353,0 24.9682353,0 C24.9682353,0 0,27.0482515 0,45.7744279" id="Fill-97" fill="#FFFFFF" mask="url(#mask-62)"></path>
                </g>
                <g id="Group-102" transform="translate(4908.912736, 57.257605)">
                    <mask id="mask-64" fill="white">
                        <use xlink:href="#path-63"></use>
                    </mask>
                    <g id="Clip-101"></g>
                    <path d="M0,45.7744279 C0,59.5485041 11.1941592,70.7426632 24.9675652,70.7426632 C38.7416413,70.7426632 49.9358005,59.5485041 49.9358005,45.7744279 C49.9358005,27.0482515 24.9675652,0 24.9675652,0 C24.9675652,0 0,27.0482515 0,45.7744279" id="Fill-100" fill="#FFFFFF" mask="url(#mask-64)"></path>
                </g>
                <g id="Group-105" transform="translate(3352.428128, 57.257605)">
                    <mask id="mask-66" fill="white">
                        <use xlink:href="#path-65"></use>
                    </mask>
                    <g id="Clip-104"></g>
                    <path d="M0,45.7744279 C0,59.5485041 11.1941592,70.7426632 24.9675652,70.7426632 C38.7416413,70.7426632 49.9358005,59.5485041 49.9358005,45.7744279 C49.9358005,27.0482515 24.9675652,0 24.9675652,0 C24.9675652,0 0,27.0482515 0,45.7744279" id="Fill-103" fill="#FFFFFF" mask="url(#mask-66)"></path>
                </g>
                <g id="Group-108" transform="translate(3472.157651, 57.257605)">
                    <mask id="mask-68" fill="white">
                        <use xlink:href="#path-67"></use>
                    </mask>
                    <g id="Clip-107"></g>
                    <path d="M0,45.7744279 C0,59.5485041 11.1941592,70.7426632 24.9682353,70.7426632 C38.7416413,70.7426632 49.9358005,59.5485041 49.9358005,45.7744279 C49.9358005,27.0482515 24.9682353,0 24.9682353,0 C24.9682353,0 0,27.0482515 0,45.7744279" id="Fill-106" fill="#FFFFFF" mask="url(#mask-68)"></path>
                </g>
                <g id="Group-111" transform="translate(3591.887175, 57.257605)">
                    <mask id="mask-70" fill="white">
                        <use xlink:href="#path-69"></use>
                    </mask>
                    <g id="Clip-110"></g>
                    <path d="M0,45.7744279 C0,59.5485041 11.1941592,70.7426632 24.9682353,70.7426632 C38.7416413,70.7426632 49.9364706,59.5485041 49.9364706,45.7744279 C49.9364706,27.0482515 24.9682353,0 24.9682353,0 C24.9682353,0 0,27.0482515 0,45.7744279" id="Fill-109" fill="#FFFFFF" mask="url(#mask-70)"></path>
                </g>
                <g id="Group-114" transform="translate(3711.616698, 57.257605)">
                    <mask id="mask-72" fill="white">
                        <use xlink:href="#path-71"></use>
                    </mask>
                    <g id="Clip-113"></g>
                    <path d="M0,45.7744279 C0,59.5485041 11.1941592,70.7426632 24.9682353,70.7426632 C38.7416413,70.7426632 49.9364706,59.5485041 49.9364706,45.7744279 C49.9364706,27.0482515 24.9682353,0 24.9682353,0 C24.9682353,0 0,27.0482515 0,45.7744279" id="Fill-112" fill="#FFFFFF" mask="url(#mask-72)"></path>
                </g>
                <g id="Group-117" transform="translate(3831.346489, 57.257605)">
                    <mask id="mask-74" fill="white">
                        <use xlink:href="#path-73"></use>
                    </mask>
                    <g id="Clip-116"></g>
                    <path d="M0,45.7744279 C0,59.5485041 11.1941592,70.7426632 24.9675652,70.7426632 C38.7416413,70.7426632 49.9358005,59.5485041 49.9358005,45.7744279 C49.9358005,27.0482515 24.9675652,0 24.9675652,0 C24.9675652,0 0,27.0482515 0,45.7744279" id="Fill-115" fill="#FFFFFF" mask="url(#mask-74)"></path>
                </g>
                <g id="Group-120" transform="translate(3951.076013, 57.257605)">
                    <mask id="mask-76" fill="white">
                        <use xlink:href="#path-75"></use>
                    </mask>
                    <g id="Clip-119"></g>
                    <path d="M0,45.7744279 C0,59.5485041 11.1941592,70.7426632 24.9682353,70.7426632 C38.7416413,70.7426632 49.9358005,59.5485041 49.9358005,45.7744279 C49.9358005,27.0482515 24.9682353,0 24.9682353,0 C24.9682353,0 0,27.0482515 0,45.7744279" id="Fill-118" fill="#FFFFFF" mask="url(#mask-76)"></path>
                </g>
                <g id="Group-123" transform="translate(4070.805536, 57.257605)">
                    <mask id="mask-78" fill="white">
                        <use xlink:href="#path-77"></use>
                    </mask>
                    <g id="Clip-122"></g>
                    <path d="M0,45.7744279 C0,59.5485041 11.1941592,70.7426632 24.9682353,70.7426632 C38.7416413,70.7426632 49.9358005,59.5485041 49.9358005,45.7744279 C49.9358005,27.0482515 24.9682353,0 24.9682353,0 C24.9682353,0 0,27.0482515 0,45.7744279" id="Fill-121" fill="#FFFFFF" mask="url(#mask-78)"></path>
                </g>
                <g id="Group-126" transform="translate(5866.749123, 57.257605)">
                    <mask id="mask-80" fill="white">
                        <use xlink:href="#path-79"></use>
                    </mask>
                    <g id="Clip-125"></g>
                    <path d="M0,45.7744279 C0,59.5485041 11.1941592,70.7426632 24.9682353,70.7426632 C38.7416413,70.7426632 49.9364706,59.5485041 49.9364706,45.7744279 C49.9364706,27.0482515 24.9682353,0 24.9682353,0 C24.9682353,0 0,27.0482515 0,45.7744279" id="Fill-124" fill="#FFFFFF" mask="url(#mask-80)"></path>
                </g>
                <g id="Group-129" transform="translate(5986.478580, 57.257605)">
                    <mask id="mask-82" fill="white">
                        <use xlink:href="#path-81"></use>
                    </mask>
                    <g id="Clip-128"></g>
                    <path d="M0,45.7744279 C0,59.5485041 11.1941592,70.7426632 24.9682353,70.7426632 C38.7416413,70.7426632 49.9364706,59.5485041 49.9364706,45.7744279 C49.9364706,27.0482515 24.9682353,0 24.9682353,0 C24.9682353,0 0,27.0482515 0,45.7744279" id="Fill-127" fill="#FFFFFF" mask="url(#mask-82)"></path>
                </g>
                <g id="Group-132" transform="translate(6106.208103, 57.257605)">
                    <mask id="mask-84" fill="white">
                        <use xlink:href="#path-83"></use>
                    </mask>
                    <g id="Clip-131"></g>
                    <path d="M0,45.7744279 C0,59.5485041 11.1941592,70.7426632 24.9682353,70.7426632 C38.7416413,70.7426632 49.9364706,59.5485041 49.9364706,45.7744279 C49.9364706,27.0482515 24.9682353,0 24.9682353,0 C24.9682353,0 0,27.0482515 0,45.7744279" id="Fill-130" fill="#FFFFFF" mask="url(#mask-84)"></path>
                </g>
                <g id="Group-135" transform="translate(6225.937627, 57.257605)">
                    <mask id="mask-86" fill="white">
                        <use xlink:href="#path-85"></use>
                    </mask>
                    <g id="Clip-134"></g>
                    <path d="M0,45.7744279 C0,59.5485041 11.1941592,70.7426632 24.9682353,70.7426632 C38.7416413,70.7426632 49.9364706,59.5485041 49.9364706,45.7744279 C49.9364706,27.0482515 24.9682353,0 24.9682353,0 C24.9682353,0 0,27.0482515 0,45.7744279" id="Fill-133" fill="#FFFFFF" mask="url(#mask-86)"></path>
                </g>
                <g id="Group-138" transform="translate(6345.667753, 57.257605)">
                    <mask id="mask-88" fill="white">
                        <use xlink:href="#path-87"></use>
                    </mask>
                    <g id="Clip-137"></g>
                    <path d="M0,45.7744279 C0,59.5485041 11.1934891,70.7426632 24.9675652,70.7426632 C38.7416413,70.7426632 49.9358005,59.5485041 49.9358005,45.7744279 C49.9358005,27.0482515 24.9675652,0 24.9675652,0 C24.9675652,0 0,27.0482515 0,45.7744279" id="Fill-136" fill="#FFFFFF" mask="url(#mask-88)"></path>
                </g>
                <g id="Group-141" transform="translate(6465.397276, 57.257605)">
                    <mask id="mask-90" fill="white">
                        <use xlink:href="#path-89"></use>
                    </mask>
                    <g id="Clip-140"></g>
                    <path d="M0,45.7744279 C0,59.5485041 11.1934891,70.7426632 24.9675652,70.7426632 C38.7416413,70.7426632 49.9358005,59.5485041 49.9358005,45.7744279 C49.9358005,27.0482515 24.9675652,0 24.9675652,0 C24.9675652,0 0,27.0482515 0,45.7744279" id="Fill-139" fill="#FFFFFF" mask="url(#mask-90)"></path>
                </g>
                <g id="Group-144" transform="translate(6585.126800, 57.257605)">
                    <mask id="mask-92" fill="white">
                        <use xlink:href="#path-91"></use>
                    </mask>
                    <g id="Clip-143"></g>
                    <path d="M0,45.7744279 C0,59.5485041 11.1934891,70.7426632 24.9682353,70.7426632 C38.7416413,70.7426632 49.9358005,59.5485041 49.9358005,45.7744279 C49.9358005,27.0482515 24.9682353,0 24.9682353,0 C24.9682353,0 0,27.0482515 0,45.7744279" id="Fill-142" fill="#FFFFFF" mask="url(#mask-92)"></path>
                </g>
                <g id="Group-147" transform="translate(5028.642192, 57.257605)">
                    <mask id="mask-94" fill="white">
                        <use xlink:href="#path-93"></use>
                    </mask>
                    <g id="Clip-146"></g>
                    <path d="M0,45.7744279 C0,59.5485041 11.1941592,70.7426632 24.9675652,70.7426632 C38.7416413,70.7426632 49.9358005,59.5485041 49.9358005,45.7744279 C49.9358005,27.0482515 24.9675652,0 24.9675652,0 C24.9675652,0 0,27.0482515 0,45.7744279" id="Fill-145" fill="#FFFFFF" mask="url(#mask-94)"></path>
                </g>
                <g id="Group-150" transform="translate(5148.371715, 57.257605)">
                    <mask id="mask-96" fill="white">
                        <use xlink:href="#path-95"></use>
                    </mask>
                    <g id="Clip-149"></g>
                    <path d="M0,45.7744279 C0,59.5485041 11.1941592,70.7426632 24.9682353,70.7426632 C38.7416413,70.7426632 49.9358005,59.5485041 49.9358005,45.7744279 C49.9358005,27.0482515 24.9682353,0 24.9682353,0 C24.9682353,0 0,27.0482515 0,45.7744279" id="Fill-148" fill="#FFFFFF" mask="url(#mask-96)"></path>
                </g>
                <g id="Group-153" transform="translate(5268.101239, 57.257605)">
                    <mask id="mask-98" fill="white">
                        <use xlink:href="#path-97"></use>
                    </mask>
                    <g id="Clip-152"></g>
                    <path d="M0,45.7744279 C0,59.5485041 11.1941592,70.7426632 24.9682353,70.7426632 C38.7416413,70.7426632 49.9358005,59.5485041 49.9358005,45.7744279 C49.9358005,27.0482515 24.9682353,0 24.9682353,0 C24.9682353,0 0,27.0482515 0,45.7744279" id="Fill-151" fill="#FFFFFF" mask="url(#mask-98)"></path>
                </g>
                <g id="Group-156" transform="translate(5387.830762, 57.257605)">
                    <mask id="mask-100" fill="white">
                        <use xlink:href="#path-99"></use>
                    </mask>
                    <g id="Clip-155"></g>
                    <path d="M0,45.7744279 C0,59.5485041 11.1941592,70.7426632 24.9682353,70.7426632 C38.7416413,70.7426632 49.9364706,59.5485041 49.9364706,45.7744279 C49.9364706,27.0482515 24.9682353,0 24.9682353,0 C24.9682353,0 0,27.0482515 0,45.7744279" id="Fill-154" fill="#FFFFFF" mask="url(#mask-100)"></path>
                </g>
                <g id="Group-159" transform="translate(5507.560553, 57.257605)">
                    <mask id="mask-102" fill="white">
                        <use xlink:href="#path-101"></use>
                    </mask>
                    <g id="Clip-158"></g>
                    <path d="M0,45.7744279 C0,59.5485041 11.1934891,70.7426632 24.9682353,70.7426632 C38.7416413,70.7426632 49.9358005,59.5485041 49.9358005,45.7744279 C49.9358005,27.0482515 24.9682353,0 24.9682353,0 C24.9682353,0 0,27.0482515 0,45.7744279" id="Fill-157" fill="#FFFFFF" mask="url(#mask-102)"></path>
                </g>
                <g id="Group-162" transform="translate(5627.290077, 57.257605)">
                    <mask id="mask-104" fill="white">
                        <use xlink:href="#path-103"></use>
                    </mask>
                    <g id="Clip-161"></g>
                    <path d="M0,45.7744279 C0,59.5485041 11.1941592,70.7426632 24.9682353,70.7426632 C38.7416413,70.7426632 49.9364706,59.5485041 49.9364706,45.7744279 C49.9364706,27.0482515 24.9682353,0 24.9682353,0 C24.9682353,0 0,27.0482515 0,45.7744279" id="Fill-160" fill="#FFFFFF" mask="url(#mask-104)"></path>
                </g>
                <g id="Group-165" transform="translate(5747.019600, 57.257605)">
                    <mask id="mask-106" fill="white">
                        <use xlink:href="#path-105"></use>
                    </mask>
                    <g id="Clip-164"></g>
                    <path d="M0,45.7744279 C0,59.5485041 11.1941592,70.7426632 24.9682353,70.7426632 C38.7416413,70.7426632 49.9364706,59.5485041 49.9364706,45.7744279 C49.9364706,27.0482515 24.9682353,0 24.9682353,0 C24.9682353,0 0,27.0482515 0,45.7744279" id="Fill-163" fill="#FFFFFF" mask="url(#mask-106)"></path>
                </g>
                <g id="Group-168" transform="translate(838.107066, 57.257605)">
                    <mask id="mask-108" fill="white">
                        <use xlink:href="#path-107"></use>
                    </mask>
                    <g id="Clip-167"></g>
                    <path d="M0,45.7744279 C0,59.5485041 11.1941592,70.7426632 24.9682353,70.7426632 C38.7416413,70.7426632 49.9358005,59.5485041 49.9358005,45.7744279 C49.9358005,27.0482515 24.9682353,0 24.9682353,0 C24.9682353,0 0,27.0482515 0,45.7744279" id="Fill-166" fill="#FFFFFF" mask="url(#mask-108)"></path>
                </g>
                <g id="Group-171" transform="translate(957.836656, 57.257605)">
                    <mask id="mask-110" fill="white">
                        <use xlink:href="#path-109"></use>
                    </mask>
                    <g id="Clip-170"></g>
                    <path d="M0,45.7744279 C0,59.5485041 11.1941592,70.7426632 24.9682353,70.7426632 C38.7416413,70.7426632 49.9358005,59.5485041 49.9358005,45.7744279 C49.9358005,27.0482515 24.9682353,0 24.9682353,0 C24.9682353,0 0,27.0482515 0,45.7744279" id="Fill-169" fill="#FFFFFF" mask="url(#mask-110)"></path>
                </g>
                <g id="Group-174" transform="translate(1077.566112, 57.257605)">
                    <mask id="mask-112" fill="white">
                        <use xlink:href="#path-111"></use>
                    </mask>
                    <g id="Clip-173"></g>
                    <path d="M0,45.7744279 C0,59.5485041 11.1941592,70.7426632 24.9682353,70.7426632 C38.7423114,70.7426632 49.9358005,59.5485041 49.9358005,45.7744279 C49.9358005,27.0482515 24.9682353,0 24.9682353,0 C24.9682353,0 0,27.0482515 0,45.7744279" id="Fill-172" fill="#FFFFFF" mask="url(#mask-112)"></path>
                </g>
                <g id="Group-177" transform="translate(1197.295703, 57.257605)">
                    <mask id="mask-114" fill="white">
                        <use xlink:href="#path-113"></use>
                    </mask>
                    <g id="Clip-176"></g>
                    <path d="M0,45.7744279 C0,59.5485041 11.1941592,70.7426632 24.9682353,70.7426632 C38.7416413,70.7426632 49.9358005,59.5485041 49.9358005,45.7744279 C49.9358005,27.0482515 24.9682353,0 24.9682353,0 C24.9682353,0 0,27.0482515 0,45.7744279" id="Fill-175" fill="#FFFFFF" mask="url(#mask-114)"></path>
                </g>
                <g id="Group-180" transform="translate(1317.025293, 57.257605)">
                    <mask id="mask-116" fill="white">
                        <use xlink:href="#path-115"></use>
                    </mask>
                    <g id="Clip-179"></g>
                    <path d="M0,45.7744279 C0,59.5485041 11.1941592,70.7426632 24.9682353,70.7426632 C38.7416413,70.7426632 49.9358005,59.5485041 49.9358005,45.7744279 C49.9358005,27.0482515 24.9682353,0 24.9682353,0 C24.9682353,0 0,27.0482515 0,45.7744279" id="Fill-178" fill="#FFFFFF" mask="url(#mask-116)"></path>
                </g>
                <g id="Group-183" transform="translate(1436.754883, 57.257605)">
                    <mask id="mask-118" fill="white">
                        <use xlink:href="#path-117"></use>
                    </mask>
                    <g id="Clip-182"></g>
                    <path d="M0,45.7744279 C0,59.5485041 11.1941592,70.7426632 24.9682353,70.7426632 C38.7416413,70.7426632 49.9358005,59.5485041 49.9358005,45.7744279 C49.9358005,27.0482515 24.9682353,0 24.9682353,0 C24.9682353,0 0,27.0482515 0,45.7744279" id="Fill-181" fill="#FFFFFF" mask="url(#mask-118)"></path>
                </g>
                <g id="Group-186" transform="translate(1556.484407, 57.257605)">
                    <mask id="mask-120" fill="white">
                        <use xlink:href="#path-119"></use>
                    </mask>
                    <g id="Clip-185"></g>
                    <path d="M0,45.7744279 C0,59.5485041 11.1941592,70.7426632 24.9682353,70.7426632 C38.7416413,70.7426632 49.9358005,59.5485041 49.9358005,45.7744279 C49.9358005,27.0482515 24.9682353,0 24.9682353,0 C24.9682353,0 0,27.0482515 0,45.7744279" id="Fill-184" fill="#FFFFFF" mask="url(#mask-120)"></path>
                </g>
                <g id="Group-189" transform="translate(0.000000, 57.257605)">
                    <mask id="mask-122" fill="white">
                        <use xlink:href="#path-121"></use>
                    </mask>
                    <g id="Clip-188"></g>
                    <path d="M0,45.7744279 C0,59.5485041 11.1941592,70.7426632 24.9682353,70.7426632 C38.7416413,70.7426632 49.9358005,59.5485041 49.9358005,45.7744279 C49.9358005,27.0482515 24.9682353,0 24.9682353,0 C24.9682353,0 0,27.0482515 0,45.7744279" id="Fill-187" fill="#FFFFFF" mask="url(#mask-122)"></path>
                </g>
                <g id="Group-192" transform="translate(119.729590, 57.257605)">
                    <mask id="mask-124" fill="white">
                        <use xlink:href="#path-123"></use>
                    </mask>
                    <g id="Clip-191"></g>
                    <path d="M0,45.7744279 C0,59.5485041 11.1941592,70.7426632 24.9682353,70.7426632 C38.7416413,70.7426632 49.9358005,59.5485041 49.9358005,45.7744279 C49.9358005,27.0482515 24.9682353,0 24.9682353,0 C24.9682353,0 0,27.0482515 0,45.7744279" id="Fill-190" fill="#FFFFFF" mask="url(#mask-124)"></path>
                </g>
                <g id="Group-195" transform="translate(239.459181, 57.257605)">
                    <mask id="mask-126" fill="white">
                        <use xlink:href="#path-125"></use>
                    </mask>
                    <g id="Clip-194"></g>
                    <path d="M0,45.7744279 C0,59.5485041 11.1941592,70.7426632 24.9682353,70.7426632 C38.7416413,70.7426632 49.9358005,59.5485041 49.9358005,45.7744279 C49.9358005,27.0482515 24.9682353,0 24.9682353,0 C24.9682353,0 0,27.0482515 0,45.7744279" id="Fill-193" fill="#FFFFFF" mask="url(#mask-126)"></path>
                </g>
                <g id="Group-198" transform="translate(359.188704, 57.257605)">
                    <mask id="mask-128" fill="white">
                        <use xlink:href="#path-127"></use>
                    </mask>
                    <g id="Clip-197"></g>
                    <path d="M0,45.7744279 C0,59.5485041 11.1941592,70.7426632 24.9682353,70.7426632 C38.7416413,70.7426632 49.9358005,59.5485041 49.9358005,45.7744279 C49.9358005,27.0482515 24.9682353,0 24.9682353,0 C24.9682353,0 0,27.0482515 0,45.7744279" id="Fill-196" fill="#FFFFFF" mask="url(#mask-128)"></path>
                </g>
                <g id="Group-201" transform="translate(478.918294, 57.257605)">
                    <mask id="mask-130" fill="white">
                        <use xlink:href="#path-129"></use>
                    </mask>
                    <g id="Clip-200"></g>
                    <path d="M0,45.7744279 C0,59.5485041 11.1941592,70.7426632 24.9682353,70.7426632 C38.7416413,70.7426632 49.9358005,59.5485041 49.9358005,45.7744279 C49.9358005,27.0482515 24.9682353,0 24.9682353,0 C24.9682353,0 0,27.0482515 0,45.7744279" id="Fill-199" fill="#FFFFFF" mask="url(#mask-130)"></path>
                </g>
                <g id="Group-204" transform="translate(598.647885, 57.257605)">
                    <mask id="mask-132" fill="white">
                        <use xlink:href="#path-131"></use>
                    </mask>
                    <g id="Clip-203"></g>
                    <path d="M0,45.7744279 C0,59.5485041 11.1941592,70.7426632 24.9682353,70.7426632 C38.7423114,70.7426632 49.9358005,59.5485041 49.9358005,45.7744279 C49.9358005,27.0482515 24.9682353,0 24.9682353,0 C24.9682353,0 0,27.0482515 0,45.7744279" id="Fill-202" fill="#FFFFFF" mask="url(#mask-132)"></path>
                </g>
                <g id="Group-207" transform="translate(718.377475, 57.257605)">
                    <mask id="mask-134" fill="white">
                        <use xlink:href="#path-133"></use>
                    </mask>
                    <g id="Clip-206"></g>
                    <path d="M0,45.7744279 C0,59.5485041 11.1941592,70.7426632 24.9682353,70.7426632 C38.7416413,70.7426632 49.9358005,59.5485041 49.9358005,45.7744279 C49.9358005,27.0482515 24.9682353,0 24.9682353,0 C24.9682353,0 0,27.0482515 0,45.7744279" id="Fill-205" fill="#FFFFFF" mask="url(#mask-134)"></path>
                </g>
                <g id="Group-210" transform="translate(2514.321130, 57.257605)">
                    <mask id="mask-136" fill="white">
                        <use xlink:href="#path-135"></use>
                    </mask>
                    <g id="Clip-209"></g>
                    <path d="M0,45.7744279 C0,59.5485041 11.1941592,70.7426632 24.9682353,70.7426632 C38.7416413,70.7426632 49.9358005,59.5485041 49.9358005,45.7744279 C49.9358005,27.0482515 24.9682353,0 24.9682353,0 C24.9682353,0 0,27.0482515 0,45.7744279" id="Fill-208" fill="#FFFFFF" mask="url(#mask-136)"></path>
                </g>
                <g id="Group-213" transform="translate(2634.050586, 57.257605)">
                    <mask id="mask-138" fill="white">
                        <use xlink:href="#path-137"></use>
                    </mask>
                    <g id="Clip-212"></g>
                    <path d="M0,45.7744279 C0,59.5485041 11.1941592,70.7426632 24.9682353,70.7426632 C38.7416413,70.7426632 49.9358005,59.5485041 49.9358005,45.7744279 C49.9358005,27.0482515 24.9682353,0 24.9682353,0 C24.9682353,0 0,27.0482515 0,45.7744279" id="Fill-211" fill="#FFFFFF" mask="url(#mask-138)"></path>
                </g>
                <g id="Group-216" transform="translate(2753.780310, 57.257605)">
                    <mask id="mask-140" fill="white">
                        <use xlink:href="#path-139"></use>
                    </mask>
                    <g id="Clip-215"></g>
                    <path d="M0,45.7744279 C0,59.5485041 11.1941592,70.7426632 24.9675652,70.7426632 C38.7416413,70.7426632 49.9358005,59.5485041 49.9358005,45.7744279 C49.9358005,27.0482515 24.9675652,0 24.9675652,0 C24.9675652,0 0,27.0482515 0,45.7744279" id="Fill-214" fill="#FFFFFF" mask="url(#mask-140)"></path>
                </g>
                <g id="Group-219" transform="translate(2873.509767, 57.257605)">
                    <mask id="mask-142" fill="white">
                        <use xlink:href="#path-141"></use>
                    </mask>
                    <g id="Clip-218"></g>
                    <path d="M0,45.7744279 C0,59.5485041 11.1941592,70.7426632 24.9682353,70.7426632 C38.7416413,70.7426632 49.9358005,59.5485041 49.9358005,45.7744279 C49.9358005,27.0482515 24.9682353,0 24.9682353,0 C24.9682353,0 0,27.0482515 0,45.7744279" id="Fill-217" fill="#FFFFFF" mask="url(#mask-142)"></path>
                </g>
                <g id="Group-222" transform="translate(2993.239290, 57.257605)">
                    <mask id="mask-144" fill="white">
                        <use xlink:href="#path-143"></use>
                    </mask>
                    <g id="Clip-221"></g>
                    <path d="M0,45.7744279 C0,59.5485041 11.1941592,70.7426632 24.9682353,70.7426632 C38.7416413,70.7426632 49.9364706,59.5485041 49.9364706,45.7744279 C49.9364706,27.0482515 24.9682353,0 24.9682353,0 C24.9682353,0 0,27.0482515 0,45.7744279" id="Fill-220" fill="#FFFFFF" mask="url(#mask-144)"></path>
                </g>
                <g id="Group-225" transform="translate(3112.968813, 57.257605)">
                    <mask id="mask-146" fill="white">
                        <use xlink:href="#path-145"></use>
                    </mask>
                    <g id="Clip-224"></g>
                    <path d="M0,45.7744279 C0,59.5485041 11.1941592,70.7426632 24.9682353,70.7426632 C38.7416413,70.7426632 49.9364706,59.5485041 49.9364706,45.7744279 C49.9364706,27.0482515 24.9682353,0 24.9682353,0 C24.9682353,0 0,27.0482515 0,45.7744279" id="Fill-223" fill="#FFFFFF" mask="url(#mask-146)"></path>
                </g>
                <g id="Group-228" transform="translate(3232.698672, 57.257605)">
                    <mask id="mask-148" fill="white">
                        <use xlink:href="#path-147"></use>
                    </mask>
                    <g id="Clip-227"></g>
                    <path d="M0,45.7744279 C0,59.5485041 11.1941592,70.7426632 24.9675652,70.7426632 C38.7416413,70.7426632 49.9358005,59.5485041 49.9358005,45.7744279 C49.9358005,27.0482515 24.9675652,0 24.9675652,0 C24.9675652,0 0,27.0482515 0,45.7744279" id="Fill-226" fill="#FFFFFF" mask="url(#mask-148)"></path>
                </g>
                <g id="Group-231" transform="translate(1676.214064, 57.257605)">
                    <mask id="mask-150" fill="white">
                        <use xlink:href="#path-149"></use>
                    </mask>
                    <g id="Clip-230"></g>
                    <path d="M0,45.7744279 C0,59.5485041 11.1941592,70.7426632 24.9682353,70.7426632 C38.7416413,70.7426632 49.9358005,59.5485041 49.9358005,45.7744279 C49.9358005,27.0482515 24.9682353,0 24.9682353,0 C24.9682353,0 0,27.0482515 0,45.7744279" id="Fill-229" fill="#FFFFFF" mask="url(#mask-150)"></path>
                </g>
                <g id="Group-234" transform="translate(1795.943587, 57.257605)">
                    <mask id="mask-152" fill="white">
                        <use xlink:href="#path-151"></use>
                    </mask>
                    <g id="Clip-233"></g>
                    <path d="M0,45.7744279 C0,59.5485041 11.1941592,70.7426632 24.9682353,70.7426632 C38.7416413,70.7426632 49.9358005,59.5485041 49.9358005,45.7744279 C49.9358005,27.0482515 24.9682353,0 24.9682353,0 C24.9682353,0 0,27.0482515 0,45.7744279" id="Fill-232" fill="#FFFFFF" mask="url(#mask-152)"></path>
                </g>
                <g id="Group-237" transform="translate(1915.673245, 57.257605)">
                    <mask id="mask-154" fill="white">
                        <use xlink:href="#path-153"></use>
                    </mask>
                    <g id="Clip-236"></g>
                    <path d="M0,45.7744279 C0,59.5485041 11.1941592,70.7426632 24.9682353,70.7426632 C38.7416413,70.7426632 49.9358005,59.5485041 49.9358005,45.7744279 C49.9358005,27.0482515 24.9682353,0 24.9682353,0 C24.9682353,0 0,27.0482515 0,45.7744279" id="Fill-235" fill="#FFFFFF" mask="url(#mask-154)"></path>
                </g>
                <g id="Group-240" transform="translate(2035.402768, 57.257605)">
                    <mask id="mask-156" fill="white">
                        <use xlink:href="#path-155"></use>
                    </mask>
                    <g id="Clip-239"></g>
                    <path d="M0,45.7744279 C0,59.5485041 11.1941592,70.7426632 24.9682353,70.7426632 C38.7416413,70.7426632 49.9358005,59.5485041 49.9358005,45.7744279 C49.9358005,27.0482515 24.9682353,0 24.9682353,0 C24.9682353,0 0,27.0482515 0,45.7744279" id="Fill-238" fill="#FFFFFF" mask="url(#mask-156)"></path>
                </g>
                <g id="Group-243" transform="translate(2155.132291, 57.257605)">
                    <mask id="mask-158" fill="white">
                        <use xlink:href="#path-157"></use>
                    </mask>
                    <g id="Clip-242"></g>
                    <path d="M0,45.7744279 C0,59.5485041 11.1941592,70.7426632 24.9682353,70.7426632 C38.7423114,70.7426632 49.9358005,59.5485041 49.9358005,45.7744279 C49.9358005,27.0482515 24.9682353,0 24.9682353,0 C24.9682353,0 0,27.0482515 0,45.7744279" id="Fill-241" fill="#FFFFFF" mask="url(#mask-158)"></path>
                </g>
                <g id="Group-246" transform="translate(2274.861949, 57.257605)">
                    <mask id="mask-160" fill="white">
                        <use xlink:href="#path-159"></use>
                    </mask>
                    <g id="Clip-245"></g>
                    <path d="M0,45.7744279 C0,59.5485041 11.1941592,70.7426632 24.9682353,70.7426632 C38.7416413,70.7426632 49.9358005,59.5485041 49.9358005,45.7744279 C49.9358005,27.0482515 24.9682353,0 24.9682353,0 C24.9682353,0 0,27.0482515 0,45.7744279" id="Fill-244" fill="#FFFFFF" mask="url(#mask-160)"></path>
                </g>
                <g id="Group-249" transform="translate(2394.591472, 57.257605)">
                    <mask id="mask-162" fill="white">
                        <use xlink:href="#path-161"></use>
                    </mask>
                    <g id="Clip-248"></g>
                    <path d="M0,45.7744279 C0,59.5485041 11.1941592,70.7426632 24.9682353,70.7426632 C38.7416413,70.7426632 49.9358005,59.5485041 49.9358005,45.7744279 C49.9358005,27.0482515 24.9682353,0 24.9682353,0 C24.9682353,0 0,27.0482515 0,45.7744279" id="Fill-247" fill="#FFFFFF" mask="url(#mask-162)"></path>
                </g>
                <path d="M7602.14508,24.9682353 C7602.14508,11.1941592 7613.33856,0 7627.11331,0 C7640.88672,0 7652.08155,11.1941592 7652.08155,24.9682353 C7652.08155,43.6944118 7627.11331,70.7426632 7627.11331,70.7426632 C7627.11331,70.7426632 7602.14508,43.6944118 7602.14508,24.9682353" id="Fill-252" fill="#FFFFFF"></path>
                <path d="M7721.87453,24.9682353 C7721.87453,11.1941592 7733.06869,0 7746.84277,0 C7760.61617,0 7771.811,11.1941592 7771.811,24.9682353 C7771.811,43.6944118 7746.84277,70.7426632 7746.84277,70.7426632 C7746.84277,70.7426632 7721.87453,43.6944118 7721.87453,24.9682353" id="Fill-254" fill="#FFFFFF"></path>
                <path d="M7841.60405,24.9682353 C7841.60405,11.1941592 7852.79821,0 7866.57229,0 C7880.3457,0 7891.54053,11.1941592 7891.54053,24.9682353 C7891.54053,43.6944118 7866.57229,70.7426632 7866.57229,70.7426632 C7866.57229,70.7426632 7841.60405,43.6944118 7841.60405,24.9682353" id="Fill-256" fill="#FFFFFF"></path>
                <path d="M7961.33358,24.9682353 C7961.33358,11.1941592 7972.52774,0 7986.30181,0 C8000.07522,0 8011.27005,11.1941592 8011.27005,24.9682353 C8011.27005,43.6944118 7986.30181,70.7426632 7986.30181,70.7426632 C7986.30181,70.7426632 7961.33358,43.6944118 7961.33358,24.9682353" id="Fill-258" fill="#FFFFFF"></path>
                <path d="M8081.0631,24.9682353 C8081.0631,11.1941592 8092.25726,0 8106.03134,0 C8119.80474,0 8130.99957,11.1941592 8130.99957,24.9682353 C8130.99957,43.6944118 8106.03134,70.7426632 8106.03134,70.7426632 C8106.03134,70.7426632 8081.0631,43.6944118 8081.0631,24.9682353" id="Fill-260" fill="#FFFFFF"></path>
                <path d="M8200.79256,24.9682353 C8200.79256,11.1941592 8211.98672,0 8225.76079,0 C8239.5342,0 8250.72903,11.1941592 8250.72903,24.9682353 C8250.72903,43.6944118 8225.76079,70.7426632 8225.76079,70.7426632 C8225.76079,70.7426632 8200.79256,43.6944118 8200.79256,24.9682353" id="Fill-262" fill="#FFFFFF"></path>
                <path d="M8320.52208,24.9682353 C8320.52208,11.1941592 8331.71624,0 8345.49032,0 C8359.26372,0 8370.45855,11.1941592 8370.45855,24.9682353 C8370.45855,43.6944118 8345.49032,70.7426632 8345.49032,70.7426632 C8345.49032,70.7426632 8320.52208,43.6944118 8320.52208,24.9682353" id="Fill-264" fill="#FFFFFF"></path>
                <path d="M6764.03788,24.9682353 C6764.03788,11.1941592 6775.23203,0 6789.00611,0 C6802.77952,0 6813.97435,11.1941592 6813.97435,24.9682353 C6813.97435,43.6944118 6789.00611,70.7426632 6789.00611,70.7426632 C6789.00611,70.7426632 6764.03788,43.6944118 6764.03788,24.9682353" id="Fill-266" fill="#FFFFFF"></path>
                <path d="M6883.76733,24.9682353 C6883.76733,11.1941592 6894.96149,0 6908.73557,0 C6922.50897,0 6933.7038,11.1941592 6933.7038,24.9682353 C6933.7038,43.6944118 6908.73557,70.7426632 6908.73557,70.7426632 C6908.73557,70.7426632 6883.76733,43.6944118 6883.76733,24.9682353" id="Fill-268" fill="#FFFFFF"></path>
                <path d="M7003.49686,24.9682353 C7003.49686,11.1941592 7014.69101,0 7028.46509,0 C7042.2385,0 7053.43333,11.1941592 7053.43333,24.9682353 C7053.43333,43.6944118 7028.46509,70.7426632 7028.46509,70.7426632 C7028.46509,70.7426632 7003.49686,43.6944118 7003.49686,24.9682353" id="Fill-270" fill="#FFFFFF"></path>
                <path d="M7123.22638,24.9682353 C7123.22638,11.1941592 7134.42054,0 7148.19461,0 C7161.96802,0 7173.16285,11.1941592 7173.16285,24.9682353 C7173.16285,43.6944118 7148.19461,70.7426632 7148.19461,70.7426632 C7148.19461,70.7426632 7123.22638,43.6944118 7123.22638,24.9682353" id="Fill-272" fill="#FFFFFF"></path>
                <path d="M7242.95651,24.9682353 C7242.95651,11.1941592 7254.14999,0 7267.92407,0 C7281.69815,0 7292.89231,11.1941592 7292.89231,24.9682353 C7292.89231,43.6944118 7267.92407,70.7426632 7267.92407,70.7426632 C7267.92407,70.7426632 7242.95651,43.6944118 7242.95651,24.9682353" id="Fill-274" fill="#FFFFFF"></path>
                <path d="M7362.68603,24.9682353 C7362.68603,11.1941592 7373.87952,0 7387.65359,0 C7401.42767,0 7412.62183,11.1941592 7412.62183,24.9682353 C7412.62183,43.6944118 7387.65359,70.7426632 7387.65359,70.7426632 C7387.65359,70.7426632 7362.68603,43.6944118 7362.68603,24.9682353" id="Fill-276" fill="#FFFFFF"></path>
                <path d="M7482.41555,24.9682353 C7482.41555,11.1941592 7493.60904,0 7507.38379,0 C7521.15719,0 7532.35135,11.1941592 7532.35135,24.9682353 C7532.35135,43.6944118 7507.38379,70.7426632 7507.38379,70.7426632 C7507.38379,70.7426632 7482.41555,43.6944118 7482.41555,24.9682353" id="Fill-278" fill="#FFFFFF"></path>
                <path d="M9278.3588,24.9682353 C9278.3588,11.1941592 9289.55296,0 9303.32704,0 C9317.10045,0 9328.29527,11.1941592 9328.29527,24.9682353 C9328.29527,43.6944118 9303.32704,70.7426632 9303.32704,70.7426632 C9303.32704,70.7426632 9278.3588,43.6944118 9278.3588,24.9682353" id="Fill-280" fill="#FFFFFF"></path>
                <path d="M9398.08833,24.9682353 C9398.08833,11.1941592 9409.28249,0 9423.05656,0 C9436.82997,0 9448.0248,11.1941592 9448.0248,24.9682353 C9448.0248,43.6944118 9423.05656,70.7426632 9423.05656,70.7426632 C9423.05656,70.7426632 9398.08833,43.6944118 9398.08833,24.9682353" id="Fill-282" fill="#FFFFFF"></path>
                <path d="M9517.81845,24.9682353 C9517.81845,11.1941592 9529.01194,0 9542.78602,0 C9556.5601,0 9567.75425,11.1941592 9567.75425,24.9682353 C9567.75425,43.6944118 9542.78602,70.7426632 9542.78602,70.7426632 C9542.78602,70.7426632 9517.81845,43.6944118 9517.81845,24.9682353" id="Fill-284" fill="#FFFFFF"></path>
                <path d="M8440.25227,24.9682353 C8440.25227,11.1941592 8451.44576,0 8465.21984,0 C8478.99392,0 8490.18808,11.1941592 8490.18808,24.9682353 C8490.18808,43.6944118 8465.21984,70.7426632 8465.21984,70.7426632 C8465.21984,70.7426632 8440.25227,43.6944118 8440.25227,24.9682353" id="Fill-295" fill="#FFFFFF"></path>
                <path d="M8559.98173,24.9682353 C8559.98173,11.1941592 8571.17522,0 8584.94997,0 C8598.72337,0 8609.91753,11.1941592 8609.91753,24.9682353 C8609.91753,43.6944118 8584.94997,70.7426632 8584.94997,70.7426632 C8584.94997,70.7426632 8559.98173,43.6944118 8559.98173,24.9682353" id="Fill-297" fill="#FFFFFF"></path>
                <path d="M8679.71125,24.9682353 C8679.71125,11.1941592 8690.90474,0 8704.67949,0 C8718.4529,0 8729.64706,11.1941592 8729.64706,24.9682353 C8729.64706,43.6944118 8704.67949,70.7426632 8704.67949,70.7426632 C8704.67949,70.7426632 8679.71125,43.6944118 8679.71125,24.9682353" id="Fill-299" fill="#FFFFFF"></path>
                <path d="M8799.44078,24.9682353 C8799.44078,11.1941592 8810.63494,0 8824.40901,0 C8838.18242,0 8849.37725,11.1941592 8849.37725,24.9682353 C8849.37725,43.6944118 8824.40901,70.7426632 8824.40901,70.7426632 C8824.40901,70.7426632 8799.44078,43.6944118 8799.44078,24.9682353" id="Fill-301" fill="#FFFFFF"></path>
                <path d="M8919.1703,24.9682353 C8919.1703,11.1941592 8930.36446,0 8944.13854,0 C8957.91194,0 8969.10677,11.1941592 8969.10677,24.9682353 C8969.10677,43.6944118 8944.13854,70.7426632 8944.13854,70.7426632 C8944.13854,70.7426632 8919.1703,43.6944118 8919.1703,24.9682353" id="Fill-303" fill="#FFFFFF"></path>
                <path d="M9038.89976,24.9682353 C9038.89976,11.1941592 9050.09392,0 9063.86799,0 C9077.6414,0 9088.83623,11.1941592 9088.83623,24.9682353 C9088.83623,43.6944118 9063.86799,70.7426632 9063.86799,70.7426632 C9063.86799,70.7426632 9038.89976,43.6944118 9038.89976,24.9682353" id="Fill-305" fill="#FFFFFF"></path>
                <path d="M9158.62928,24.9682353 C9158.62928,11.1941592 9169.82344,0 9183.59752,0 C9197.37092,0 9208.56575,11.1941592 9208.56575,24.9682353 C9208.56575,43.6944118 9183.59752,70.7426632 9183.59752,70.7426632 C9183.59752,70.7426632 9158.62928,43.6944118 9158.62928,24.9682353" id="Fill-307" fill="#FFFFFF"></path>
                <path d="M4249.71688,24.9682353 C4249.71688,11.1941592 4260.91104,0 4274.68512,0 C4288.45852,0 4299.65268,11.1941592 4299.65268,24.9682353 C4299.65268,43.6944118 4274.68512,70.7426632 4274.68512,70.7426632 C4274.68512,70.7426632 4249.71688,43.6944118 4249.71688,24.9682353" id="Fill-309" fill="#FFFFFF"></path>
                <path d="M4369.4464,24.9682353 C4369.4464,11.1941592 4380.64056,0 4394.41464,0 C4408.18804,0 4419.3822,11.1941592 4419.3822,24.9682353 C4419.3822,43.6944118 4394.41464,70.7426632 4394.41464,70.7426632 C4394.41464,70.7426632 4369.4464,43.6944118 4369.4464,24.9682353" id="Fill-311" fill="#FFFFFF"></path>
                <path d="M4489.17593,24.9682353 C4489.17593,11.1941592 4500.37009,0 4514.14416,0 C4527.91757,0 4539.1124,11.1941592 4539.1124,24.9682353 C4539.1124,43.6944118 4514.14416,70.7426632 4514.14416,70.7426632 C4514.14416,70.7426632 4489.17593,43.6944118 4489.17593,24.9682353" id="Fill-313" fill="#FFFFFF"></path>
                <path d="M4608.90579,24.9682353 C4608.90579,11.1941592 4620.09994,0 4633.87335,0 C4647.64743,0 4658.84159,11.1941592 4658.84159,24.9682353 C4658.84159,43.6944118 4633.87335,70.7426632 4633.87335,70.7426632 C4633.87335,70.7426632 4608.90579,43.6944118 4608.90579,24.9682353" id="Fill-315" fill="#FFFFFF"></path>
                <path d="M4728.63524,24.9682353 C4728.63524,11.1941592 4739.8294,0 4753.60281,0 C4767.37688,0 4778.57104,11.1941592 4778.57104,24.9682353 C4778.57104,43.6944118 4753.60281,70.7426632 4753.60281,70.7426632 C4753.60281,70.7426632 4728.63524,43.6944118 4728.63524,24.9682353" id="Fill-317" fill="#FFFFFF"></path>
                <path d="M4848.36477,24.9682353 C4848.36477,11.1941592 4859.55892,0 4873.333,0 C4887.10641,0 4898.30057,11.1941592 4898.30057,24.9682353 C4898.30057,43.6944118 4873.333,70.7426632 4873.333,70.7426632 C4873.333,70.7426632 4848.36477,43.6944118 4848.36477,24.9682353" id="Fill-319" fill="#FFFFFF"></path>
                <path d="M4968.09429,24.9682353 C4968.09429,11.1941592 4979.28845,0 4993.06252,0 C5006.83593,0 5018.03009,11.1941592 5018.03009,24.9682353 C5018.03009,43.6944118 4993.06252,70.7426632 4993.06252,70.7426632 C4993.06252,70.7426632 4968.09429,43.6944118 4968.09429,24.9682353" id="Fill-321" fill="#FFFFFF"></path>
                <path d="M3411.60968,24.9682353 C3411.60968,11.1941592 3422.80384,0 3436.57792,0 C3450.35132,0 3461.54615,11.1941592 3461.54615,24.9682353 C3461.54615,43.6944118 3436.57792,70.7426632 3436.57792,70.7426632 C3436.57792,70.7426632 3411.60968,43.6944118 3411.60968,24.9682353" id="Fill-323" fill="#FFFFFF"></path>
                <path d="M3531.33954,24.9682353 C3531.33954,11.1941592 3542.5337,0 3556.3071,0 C3570.08118,0 3581.27534,11.1941592 3581.27534,24.9682353 C3581.27534,43.6944118 3556.3071,70.7426632 3556.3071,70.7426632 C3556.3071,70.7426632 3531.33954,43.6944118 3531.33954,24.9682353" id="Fill-325" fill="#FFFFFF"></path>
                <path d="M3651.06906,24.9682353 C3651.06906,11.1941592 3662.26322,0 3676.0373,0 C3689.8107,0 3701.00486,11.1941592 3701.00486,24.9682353 C3701.00486,43.6944118 3676.0373,70.7426632 3676.0373,70.7426632 C3676.0373,70.7426632 3651.06906,43.6944118 3651.06906,24.9682353" id="Fill-327" fill="#FFFFFF"></path>
                <path d="M3770.79852,24.9682353 C3770.79852,11.1941592 3781.99268,0 3795.76675,0 C3809.54016,0 3820.73432,11.1941592 3820.73432,24.9682353 C3820.73432,43.6944118 3795.76675,70.7426632 3795.76675,70.7426632 C3795.76675,70.7426632 3770.79852,43.6944118 3770.79852,24.9682353" id="Fill-329" fill="#FFFFFF"></path>
                <path d="M3890.52804,24.9682353 C3890.52804,11.1941592 3901.7222,0 3915.49628,0 C3929.26968,0 3940.46451,11.1941592 3940.46451,24.9682353 C3940.46451,43.6944118 3915.49628,70.7426632 3915.49628,70.7426632 C3915.49628,70.7426632 3890.52804,43.6944118 3890.52804,24.9682353" id="Fill-331" fill="#FFFFFF"></path>
                <path d="M4010.25757,24.9682353 C4010.25757,11.1941592 4021.45172,0 4035.2258,0 C4048.99988,0 4060.19404,11.1941592 4060.19404,24.9682353 C4060.19404,43.6944118 4035.2258,70.7426632 4035.2258,70.7426632 C4035.2258,70.7426632 4010.25757,43.6944118 4010.25757,24.9682353" id="Fill-333" fill="#FFFFFF"></path>
                <path d="M4129.98742,24.9682353 C4129.98742,11.1941592 4141.18158,0 4154.95499,0 C4168.72907,0 4179.92322,11.1941592 4179.92322,24.9682353 C4179.92322,43.6944118 4154.95499,70.7426632 4154.95499,70.7426632 C4154.95499,70.7426632 4129.98742,43.6944118 4129.98742,24.9682353" id="Fill-335" fill="#FFFFFF"></path>
                <path d="M5925.93068,24.9682353 C5925.93068,11.1941592 5937.12484,0 5950.89891,0 C5964.67232,0 5975.86715,11.1941592 5975.86715,24.9682353 C5975.86715,43.6944118 5950.89891,70.7426632 5950.89891,70.7426632 C5950.89891,70.7426632 5925.93068,43.6944118 5925.93068,24.9682353" id="Fill-337" fill="#FFFFFF"></path>
                <path d="M6045.6608,24.9682353 C6045.6608,11.1941592 6056.85429,0 6070.62837,0 C6084.40244,0 6095.5966,11.1941592 6095.5966,24.9682353 C6095.5966,43.6944118 6070.62837,70.7426632 6070.62837,70.7426632 C6070.62837,70.7426632 6045.6608,43.6944118 6045.6608,24.9682353" id="Fill-339" fill="#FFFFFF"></path>
                <path d="M6165.39033,24.9682353 C6165.39033,11.1941592 6176.58382,0 6190.35789,0 C6204.13197,0 6215.32613,11.1941592 6215.32613,24.9682353 C6215.32613,43.6944118 6190.35789,70.7426632 6190.35789,70.7426632 C6190.35789,70.7426632 6165.39033,43.6944118 6165.39033,24.9682353" id="Fill-341" fill="#FFFFFF"></path>
                <path d="M6285.11985,24.9682353 C6285.11985,11.1941592 6296.31334,0 6310.08808,0 C6323.86149,0 6335.05565,11.1941592 6335.05565,24.9682353 C6335.05565,43.6944118 6310.08808,70.7426632 6310.08808,70.7426632 C6310.08808,70.7426632 6285.11985,43.6944118 6285.11985,24.9682353" id="Fill-343" fill="#FFFFFF"></path>
                <path d="M6404.84931,24.9682353 C6404.84931,11.1941592 6416.04279,0 6429.81754,0 C6443.59095,0 6454.78511,11.1941592 6454.78511,24.9682353 C6454.78511,43.6944118 6429.81754,70.7426632 6429.81754,70.7426632 C6429.81754,70.7426632 6404.84931,43.6944118 6404.84931,24.9682353" id="Fill-345" fill="#FFFFFF"></path>
                <path d="M6524.57883,24.9682353 C6524.57883,11.1941592 6535.77299,0 6549.54706,0 C6563.32047,0 6574.5153,11.1941592 6574.5153,24.9682353 C6574.5153,43.6944118 6549.54706,70.7426632 6549.54706,70.7426632 C6549.54706,70.7426632 6524.57883,43.6944118 6524.57883,24.9682353" id="Fill-347" fill="#FFFFFF"></path>
                <path d="M6644.30835,24.9682353 C6644.30835,11.1941592 6655.50251,0 6669.27659,0 C6683.04999,0 6694.24482,11.1941592 6694.24482,24.9682353 C6694.24482,43.6944118 6669.27659,70.7426632 6669.27659,70.7426632 C6669.27659,70.7426632 6644.30835,43.6944118 6644.30835,24.9682353" id="Fill-349" fill="#FFFFFF"></path>
                <path d="M5087.82381,24.9682353 C5087.82381,11.1941592 5099.01797,0 5112.79205,0 C5126.56545,0 5137.76028,11.1941592 5137.76028,24.9682353 C5137.76028,43.6944118 5112.79205,70.7426632 5112.79205,70.7426632 C5112.79205,70.7426632 5087.82381,43.6944118 5087.82381,24.9682353" id="Fill-351" fill="#FFFFFF"></path>
                <path d="M5207.5536,24.9682353 C5207.5536,11.1941592 5218.74776,0 5232.52117,0 C5246.29524,0 5257.4894,11.1941592 5257.4894,24.9682353 C5257.4894,43.6944118 5232.52117,70.7426632 5232.52117,70.7426632 C5232.52117,70.7426632 5207.5536,43.6944118 5207.5536,24.9682353" id="Fill-353" fill="#FFFFFF"></path>
                <path d="M5327.28313,24.9682353 C5327.28313,11.1941592 5338.47729,0 5352.25069,0 C5366.02477,0 5377.21893,11.1941592 5377.21893,24.9682353 C5377.21893,43.6944118 5352.25069,70.7426632 5352.25069,70.7426632 C5352.25069,70.7426632 5327.28313,43.6944118 5327.28313,24.9682353" id="Fill-355" fill="#FFFFFF"></path>
                <path d="M5447.01265,24.9682353 C5447.01265,11.1941592 5458.20681,0 5471.98089,0 C5485.75429,0 5496.94912,11.1941592 5496.94912,24.9682353 C5496.94912,43.6944118 5471.98089,70.7426632 5471.98089,70.7426632 C5471.98089,70.7426632 5447.01265,43.6944118 5447.01265,24.9682353" id="Fill-357" fill="#FFFFFF"></path>
                <path d="M5566.74211,24.9682353 C5566.74211,11.1941592 5577.93627,0 5591.71034,0 C5605.48375,0 5616.67858,11.1941592 5616.67858,24.9682353 C5616.67858,43.6944118 5591.71034,70.7426632 5591.71034,70.7426632 C5591.71034,70.7426632 5566.74211,43.6944118 5566.74211,24.9682353" id="Fill-359" fill="#FFFFFF"></path>
                <path d="M5686.47163,24.9682353 C5686.47163,11.1941592 5697.66579,0 5711.43986,0 C5725.21327,0 5736.4081,11.1941592 5736.4081,24.9682353 C5736.4081,43.6944118 5711.43986,70.7426632 5711.43986,70.7426632 C5711.43986,70.7426632 5686.47163,43.6944118 5686.47163,24.9682353" id="Fill-361" fill="#FFFFFF"></path>
                <path d="M5806.20115,24.9682353 C5806.20115,11.1941592 5817.39531,0 5831.16939,0 C5844.94279,0 5856.13762,11.1941592 5856.13762,24.9682353 C5856.13762,43.6944118 5831.16939,70.7426632 5831.16939,70.7426632 C5831.16939,70.7426632 5806.20115,43.6944118 5806.20115,24.9682353" id="Fill-363" fill="#FFFFFF"></path>
                <path d="M897.288752,24.9682353 C897.288752,11.1941592 908.482911,0 922.256988,0 C936.030394,0 947.224553,11.1941592 947.224553,24.9682353 C947.224553,43.6944118 922.256988,70.7426632 922.256988,70.7426632 C922.256988,70.7426632 897.288752,43.6944118 897.288752,24.9682353" id="Fill-365" fill="#FFFFFF"></path>
                <path d="M1017.01834,24.9682353 C1017.01834,11.1941592 1028.2125,0 1041.98658,0 C1055.75998,0 1066.95414,11.1941592 1066.95414,24.9682353 C1066.95414,43.6944118 1041.98658,70.7426632 1041.98658,70.7426632 C1041.98658,70.7426632 1017.01834,43.6944118 1017.01834,24.9682353" id="Fill-367" fill="#FFFFFF"></path>
                <path d="M1136.74793,24.9682353 C1136.74793,11.1941592 1147.94209,0 1161.71617,0 C1175.48957,0 1186.68373,11.1941592 1186.68373,24.9682353 C1186.68373,43.6944118 1161.71617,70.7426632 1161.71617,70.7426632 C1161.71617,70.7426632 1136.74793,43.6944118 1136.74793,24.9682353" id="Fill-369" fill="#FFFFFF"></path>
                <path d="M1256.47752,24.9682353 C1256.47752,11.1941592 1267.67168,0 1281.44576,0 C1295.21916,0 1306.41332,11.1941592 1306.41332,24.9682353 C1306.41332,43.6944118 1281.44576,70.7426632 1281.44576,70.7426632 C1281.44576,70.7426632 1256.47752,43.6944118 1256.47752,24.9682353" id="Fill-371" fill="#FFFFFF"></path>
                <path d="M1376.20711,24.9682353 C1376.20711,11.1941592 1387.40127,0 1401.17535,0 C1414.94876,0 1426.14291,11.1941592 1426.14291,24.9682353 C1426.14291,43.6944118 1401.17535,70.7426632 1401.17535,70.7426632 C1401.17535,70.7426632 1376.20711,43.6944118 1376.20711,24.9682353" id="Fill-373" fill="#FFFFFF"></path>
                <path d="M1495.93664,24.9682353 C1495.93664,11.1941592 1507.1308,0 1520.90487,0 C1534.67828,0 1545.87244,11.1941592 1545.87244,24.9682353 C1545.87244,43.6944118 1520.90487,70.7426632 1520.90487,70.7426632 C1520.90487,70.7426632 1495.93664,43.6944118 1495.93664,24.9682353" id="Fill-375" fill="#FFFFFF"></path>
                <path d="M1615.66629,24.9682353 C1615.66629,11.1941592 1626.86045,0 1640.63453,0 C1654.40794,0 1665.60209,11.1941592 1665.60209,24.9682353 C1665.60209,43.6944118 1640.63453,70.7426632 1640.63453,70.7426632 C1640.63453,70.7426632 1615.66629,43.6944118 1615.66629,24.9682353" id="Fill-377" fill="#FFFFFF"></path>
                <path d="M59.1817538,24.9682353 C59.1817538,11.1941592 70.375913,0 84.1499891,0 C97.9233951,0 109.117554,11.1941592 109.117554,24.9682353 C109.117554,43.6944118 84.1499891,70.7426632 84.1499891,70.7426632 C84.1499891,70.7426632 59.1817538,43.6944118 59.1817538,24.9682353" id="Fill-379" fill="#FFFFFF"></path>
                <path d="M178.911344,24.9682353 C178.911344,11.1941592 190.105503,0 203.879579,0 C217.652985,0 228.847145,11.1941592 228.847145,24.9682353 C228.847145,43.6944118 203.879579,70.7426632 203.879579,70.7426632 C203.879579,70.7426632 178.911344,43.6944118 178.911344,24.9682353" id="Fill-381" fill="#FFFFFF"></path>
                <path d="M298.640867,24.9682353 C298.640867,11.1941592 309.835027,0 323.609103,0 C337.382509,0 348.576668,11.1941592 348.576668,24.9682353 C348.576668,43.6944118 323.609103,70.7426632 323.609103,70.7426632 C323.609103,70.7426632 298.640867,43.6944118 298.640867,24.9682353" id="Fill-383" fill="#FFFFFF"></path>
                <path d="M418.370458,24.9682353 C418.370458,11.1941592 429.564617,0 443.338693,0 C457.112099,0 468.306258,11.1941592 468.306258,24.9682353 C468.306258,43.6944118 443.338693,70.7426632 443.338693,70.7426632 C443.338693,70.7426632 418.370458,43.6944118 418.370458,24.9682353" id="Fill-385" fill="#FFFFFF"></path>
                <path d="M538.100048,24.9682353 C538.100048,11.1941592 549.294207,0 563.068284,0 C576.84169,0 588.035849,11.1941592 588.035849,24.9682353 C588.035849,43.6944118 563.068284,70.7426632 563.068284,70.7426632 C563.068284,70.7426632 538.100048,43.6944118 538.100048,24.9682353" id="Fill-387" fill="#FFFFFF"></path>
                <path d="M657.829639,24.9682353 C657.829639,11.1941592 669.023798,0 682.797874,0 C696.57195,0 707.765439,11.1941592 707.765439,24.9682353 C707.765439,43.6944118 682.797874,70.7426632 682.797874,70.7426632 C682.797874,70.7426632 657.829639,43.6944118 657.829639,24.9682353" id="Fill-389" fill="#FFFFFF"></path>
                <path d="M777.559162,24.9682353 C777.559162,11.1941592 788.753321,0 802.527397,0 C816.301473,0 827.494962,11.1941592 827.494962,24.9682353 C827.494962,43.6944118 802.527397,70.7426632 802.527397,70.7426632 C802.527397,70.7426632 777.559162,43.6944118 777.559162,24.9682353" id="Fill-391" fill="#FFFFFF"></path>
                <path d="M2573.50282,24.9682353 C2573.50282,11.1941592 2584.69698,0 2598.47105,0 C2612.24446,0 2623.43862,11.1941592 2623.43862,24.9682353 C2623.43862,43.6944118 2598.47105,70.7426632 2598.47105,70.7426632 C2598.47105,70.7426632 2573.50282,43.6944118 2573.50282,24.9682353" id="Fill-393" fill="#FFFFFF"></path>
                <path d="M2693.23234,24.9682353 C2693.23234,11.1941592 2704.4265,0 2718.20057,0 C2731.97398,0 2743.16814,11.1941592 2743.16814,24.9682353 C2743.16814,43.6944118 2718.20057,70.7426632 2718.20057,70.7426632 C2718.20057,70.7426632 2693.23234,43.6944118 2693.23234,24.9682353" id="Fill-395" fill="#FFFFFF"></path>
                <path d="M2812.96186,24.9682353 C2812.96186,11.1941592 2824.15602,0 2837.9301,0 C2851.7035,0 2862.89833,11.1941592 2862.89833,24.9682353 C2862.89833,43.6944118 2837.9301,70.7426632 2837.9301,70.7426632 C2837.9301,70.7426632 2812.96186,43.6944118 2812.96186,24.9682353" id="Fill-397" fill="#FFFFFF"></path>
                <path d="M2932.69165,24.9682353 C2932.69165,11.1941592 2943.88581,0 2957.65922,0 C2971.4333,0 2982.62745,11.1941592 2982.62745,24.9682353 C2982.62745,43.6944118 2957.65922,70.7426632 2957.65922,70.7426632 C2957.65922,70.7426632 2932.69165,43.6944118 2932.69165,24.9682353" id="Fill-399" fill="#FFFFFF"></path>
                <path d="M3052.42118,24.9682353 C3052.42118,11.1941592 3063.61534,0 3077.38874,0 C3091.16282,0 3102.35698,11.1941592 3102.35698,24.9682353 C3102.35698,43.6944118 3077.38874,70.7426632 3077.38874,70.7426632 C3077.38874,70.7426632 3052.42118,43.6944118 3052.42118,24.9682353" id="Fill-401" fill="#FFFFFF"></path>
                <path d="M3172.1507,24.9682353 C3172.1507,11.1941592 3183.34486,0 3197.11894,0 C3210.89234,0 3222.0865,11.1941592 3222.0865,24.9682353 C3222.0865,43.6944118 3197.11894,70.7426632 3197.11894,70.7426632 C3197.11894,70.7426632 3172.1507,43.6944118 3172.1507,24.9682353" id="Fill-403" fill="#FFFFFF"></path>
                <path d="M3291.88022,24.9682353 C3291.88022,11.1941592 3303.07438,0 3316.84846,0 C3330.62187,0 3341.8167,11.1941592 3341.8167,24.9682353 C3341.8167,43.6944118 3316.84846,70.7426632 3316.84846,70.7426632 C3316.84846,70.7426632 3291.88022,43.6944118 3291.88022,24.9682353" id="Fill-405" fill="#FFFFFF"></path>
                <path d="M1735.39582,24.9682353 C1735.39582,11.1941592 1746.58998,0 1760.36405,0 C1774.13746,0 1785.33162,11.1941592 1785.33162,24.9682353 C1785.33162,43.6944118 1760.36405,70.7426632 1760.36405,70.7426632 C1760.36405,70.7426632 1735.39582,43.6944118 1735.39582,24.9682353" id="Fill-407" fill="#FFFFFF"></path>
                <path d="M1855.12527,24.9682353 C1855.12527,11.1941592 1866.31943,0 1880.09351,0 C1893.86759,0 1905.06107,11.1941592 1905.06107,24.9682353 C1905.06107,43.6944118 1880.09351,70.7426632 1880.09351,70.7426632 C1880.09351,70.7426632 1855.12527,43.6944118 1855.12527,24.9682353" id="Fill-409" fill="#FFFFFF"></path>
                <path d="M1974.855,24.9682353 C1974.855,11.1941592 1986.04916,0 1999.82323,0 C2013.59664,0 2024.7908,11.1941592 2024.7908,24.9682353 C2024.7908,43.6944118 1999.82323,70.7426632 1999.82323,70.7426632 C1999.82323,70.7426632 1974.855,43.6944118 1974.855,24.9682353" id="Fill-411" fill="#FFFFFF"></path>
                <path d="M2094.58445,24.9682353 C2094.58445,11.1941592 2105.77861,0 2119.55269,0 C2133.3261,0 2144.52026,11.1941592 2144.52026,24.9682353 C2144.52026,43.6944118 2119.55269,70.7426632 2119.55269,70.7426632 C2119.55269,70.7426632 2094.58445,43.6944118 2094.58445,24.9682353" id="Fill-413" fill="#FFFFFF"></path>
                <path d="M2214.31418,24.9682353 C2214.31418,11.1941592 2225.50834,0 2239.28241,0 C2253.05582,0 2264.24998,11.1941592 2264.24998,24.9682353 C2264.24998,43.6944118 2239.28241,70.7426632 2239.28241,70.7426632 C2239.28241,70.7426632 2214.31418,43.6944118 2214.31418,24.9682353" id="Fill-415" fill="#FFFFFF"></path>
                <path d="M2334.04364,24.9682353 C2334.04364,11.1941592 2345.23779,0 2359.01187,0 C2372.78528,0 2383.97944,11.1941592 2383.97944,24.9682353 C2383.97944,43.6944118 2359.01187,70.7426632 2359.01187,70.7426632 C2359.01187,70.7426632 2334.04364,43.6944118 2334.04364,24.9682353" id="Fill-417" fill="#FFFFFF"></path>
                <path d="M2453.77329,24.9682353 C2453.77329,11.1941592 2464.96745,0 2478.74153,0 C2492.51493,0 2503.70909,11.1941592 2503.70909,24.9682353 C2503.70909,43.6944118 2478.74153,70.7426632 2478.74153,70.7426632 C2478.74153,70.7426632 2453.77329,43.6944118 2453.77329,24.9682353" id="Fill-419" fill="#FFFFFF"></path>
            </g>
        </g>
    </g>
</svg>