<?xml version="1.0" encoding="UTF-8"?>
<svg width="17px" height="16px" viewBox="0 0 17 16" version="1.1" xmlns="http://www.w3.org/2000/svg" xmlns:xlink="http://www.w3.org/1999/xlink">
    <title>cal-apple</title>
    <g id="Web-Pages" stroke="none" stroke-width="1" fill="none" fill-rule="evenodd">
        <g id="Our-Work-&gt;-Calendar-FOCUS" transform="translate(-262.000000, -767.000000)" fill-rule="nonzero">
            <g id="Group-3" transform="translate(249.750000, 661.456276)">
                <g id="cal-apple" transform="translate(13.235938, 106.096787)">
                    <path d="M15.3923572,4.81509988 C15.3923572,4.63124672 15.3923572,4.44739357 15.3916445,4.26354041 C15.3909319,4.10890423 15.3887941,3.95355544 15.3845185,3.79891926 C15.3752545,3.46185514 15.3553015,3.12122798 15.2954423,2.78772691 C15.2348705,2.44923757 15.1351053,2.13426434 14.9783313,1.82641719 C14.8244077,1.52427092 14.6234519,1.24777858 14.3840152,1.00762931 C14.143866,0.76819264 13.8680862,0.567236866 13.5652274,0.413313294 C13.2580928,0.256539286 12.9431196,0.157486617 12.6046303,0.0969148414 C12.2711292,0.0370556746 11.930502,0.0171026191 11.5934379,0.0078387004 C11.4388017,0.00356304564 11.2834529,0.00213782738 11.1288167,0.000712609128 C10.9449636,0 10.7611104,0 10.5772573,0 L4.81509988,0 C4.63124672,0 4.44739357,0 4.26354041,0.000712609128 C4.10890423,0.00142521826 3.95355544,0.00356304564 3.79891926,0.0078387004 C3.46185514,0.0171026191 3.12122798,0.0370556746 2.78772691,0.0969148414 C2.44923757,0.157486617 2.13426434,0.257251895 1.8271298,0.413313294 C1.52498353,0.567236866 1.24777858,0.76819264 1.00834192,1.00762931 C0.76819264,1.24777858 0.567949475,1.52355831 0.414025903,1.82641719 C0.257251895,2.13426434 0.158199226,2.44923757 0.0969148414,2.78772691 C0.0370556746,3.12122798 0.0171026191,3.46185514 0.00855130953,3.79891926 C0.00427565477,3.95355544 0.00213782738,4.10890423 0.00142521826,4.26354041 C0,4.44739357 0,4.63124672 0,4.81509988 L0,10.5772573 C0,10.7611104 0,10.9449636 0.00142521826,11.1288167 C0.00213782738,11.2834529 0.00427565477,11.4388017 0.00855130953,11.5934379 C0.0178152282,11.930502 0.0377682838,12.2711292 0.0976274505,12.6046303 C0.158199226,12.9431196 0.257964504,13.2588054 0.414738512,13.56594 C0.568662084,13.8680862 0.769617858,14.1445786 1.00905452,14.3840152 C1.24849119,14.6241645 1.52498353,14.8251203 1.82784241,14.9790439 C2.13497695,15.1358179 2.44995018,15.2348705 2.78843952,15.2954423 C3.12194059,15.3553015 3.46256775,15.3752545 3.79963187,15.3845185 C3.95426805,15.3887941 4.10961684,15.3902193 4.26425302,15.3916445 C4.44810617,15.3923572 4.63195933,15.3923572 4.81581248,15.3923572 L10.5779699,15.3923572 C10.761823,15.3923572 10.9456762,15.3923572 11.1295294,15.3916445 C11.2841655,15.3909319 11.4395143,15.3887941 11.5941505,15.3845185 C11.9312146,15.3752545 12.2718418,15.3553015 12.6053429,15.2954423 C12.9438322,15.2348705 13.2588054,15.1351053 13.56594,14.9790439 C13.8680862,14.8251203 14.1445786,14.6241645 14.3847279,14.3840152 C14.6248771,14.1445786 14.8251203,13.8680862 14.9790439,13.56594 C15.1358179,13.2580928 15.2348705,12.9431196 15.2961549,12.6046303 C15.3560141,12.2711292 15.3759671,11.9312146 15.3852311,11.5934379 C15.3895067,11.4388017 15.3909319,11.2834529 15.3923572,11.1288167 C15.3930698,10.9449636 15.3930698,10.7611104 15.3930698,10.5772573 L15.3930698,4.81509988 L15.3923572,4.81509988 Z" id="Path" fill="#FFFFFF"></path>
                    <g id="Group" transform="translate(3.620054, 5.431507)" fill="#000000">
                        <polygon id="Path" points="2.12500042 7.16100912 2.12500042 0 1.82427937 0 0 1.20787247 0 1.51358179 1.8036137 0.332788463 1.82499198 0.332788463 1.82499198 7.16172173 2.12500042 7.16172173"></polygon>
                        <polygon id="Path" points="3.90723585 8.10142783e-16 3.90723585 0.274354514 7.84083823 0.274354514 7.84083823 0.295732788 4.68184197 7.16172173 5.0196187 7.16172173 8.15224842 0.290031915 8.15224842 0"></polygon>
                    </g>
                    <polygon id="Path" fill="#FF0000" points="2.79699083 4.02695418 2.79699083 2.47845455 2.8026917 2.47845455 3.41482294 3.86875495 3.61791654 3.86875495 4.22790995 2.47845455 4.23503605 2.47845455 4.23503605 4.02695418 4.43812965 4.02695418 4.43812965 1.97606511 4.22292169 1.97606511 3.52028909 3.61934176 3.51458822 3.61934176 2.80981779 1.97677772 2.59460983 1.97677772 2.59460983 4.02695418 2.79699083 4.02695418"></polygon>
                    <path d="M5.54196119,2.42714669 C5.1136831,2.42714669 4.87567165,2.73855688 4.87567165,3.16042148 L4.87567165,3.31505766 C4.87567165,3.73906009 5.11154527,4.0518955 5.54196119,4.0518955 C5.97166449,4.0518955 6.20611449,3.73906009 6.20611449,3.31505766 L6.20611449,3.16042148 C6.2068255,2.73855688 5.96881405,2.42714669 5.54196119,2.42714669 L5.54196119,2.42714669 Z M5.54196119,2.62097637 C5.82130396,2.62097637 5.98520406,2.82977085 5.98520406,3.17111062 L5.98520406,3.30365592 C5.98520406,3.64642091 5.82130396,3.85521538 5.54196119,3.85521538 C5.26048058,3.85521538 5.09729309,3.64499569 5.09729309,3.30365592 L5.09729309,3.17111062 C5.09729309,2.83048346 5.26119319,2.62097637 5.54196119,2.62097637 L5.54196119,2.62097637 Z" id="Shape" fill="#FF0000"></path>
                    <path d="M6.6201388,4.02695418 L6.84104763,4.02695418 L6.84104763,3.06279403 C6.84104763,2.83760955 6.964329,2.62952768 7.2529357,2.62952768 C7.49949846,2.62952768 7.65769769,2.77846299 7.65769769,3.04711663 L7.65769769,4.02552896 L7.87860652,4.02552896 L7.87860652,3.013624 C7.87860652,2.63166551 7.63631941,2.42572147 7.31208226,2.42572147 C7.05340515,2.42572147 6.90589506,2.5611172 6.84746111,2.66658336 L6.84104763,2.66658336 L6.84104763,2.4513754 L6.6201388,2.4513754 L6.6201388,4.02695418 L6.6201388,4.02695418 Z" id="Path" fill="#FF0000"></path>
                    <path d="M8.89549974,2.42572147 C8.50427733,2.42572147 8.26555327,2.73071818 8.26555327,3.15757104 L8.26555327,3.31862071 C8.26555327,3.75331228 8.4864621,4.05047028 8.89549974,4.05047028 C9.12139683,4.05047028 9.28315911,3.93645282 9.36724698,3.78110403 L9.37294786,3.78110403 L9.37294786,4.02624157 L9.58174233,4.02624157 L9.58174233,1.86632331 L9.3608335,1.86632331 L9.3608335,2.6779851 L9.35513263,2.6779851 C9.27888345,2.54187676 9.11640857,2.42572147 8.89549974,2.42572147 L8.89549974,2.42572147 Z M8.9154528,2.6231142 C9.19479557,2.6231142 9.36653437,2.84259781 9.36653437,3.16754757 L9.36653437,3.31363244 C9.36653437,3.65212178 9.19978384,3.85450277 8.91830323,3.85450277 C8.66889004,3.85450277 8.48717266,3.67278744 8.48717266,3.31220723 L8.48717266,3.1696854 C8.4864621,2.80197909 8.67174047,2.6231142 8.9154528,2.6231142 L8.9154528,2.6231142 Z" id="Shape" fill="#FF0000"></path>
                    <path d="M10.9492392,3.82243536 L10.9549401,3.82243536 L10.9549401,4.02695418 L11.1701481,4.02695418 L11.1701481,2.93238656 C11.1701481,2.60886202 10.9328492,2.42714669 10.605049,2.42714669 C10.2401932,2.42714669 10.0520644,2.61812594 10.0335365,2.89176784 L10.242331,2.89176784 C10.2601462,2.7250173 10.3791519,2.61812594 10.5957851,2.61812594 C10.8195444,2.61812594 10.9492392,2.73713166 10.9492392,2.95804049 L10.9492392,3.12764146 L10.5209612,3.12764146 C10.1618062,3.12906668 9.97225213,3.30365592 9.97225213,3.5758726 C9.97225213,3.8644793 10.1810466,4.05260811 10.4867559,4.05260811 C10.7269052,4.0518955 10.8737027,3.94856718 10.9492392,3.82243536 L10.9492392,3.82243536 Z M10.5387764,3.86162886 C10.3613367,3.86162886 10.2002871,3.76685185 10.2002871,3.57159695 C10.2002871,3.41838599 10.2979145,3.30864418 10.5280873,3.30864418 L10.9492392,3.30864418 L10.9492392,3.50247386 C10.9492392,3.71411877 10.7732248,3.86162886 10.5387764,3.86162886 Z" id="Shape" fill="#FF0000"></path>
                    <path d="M12.7977473,2.45280062 L12.5618737,2.45280062 L12.1122173,3.76970229 L12.1043786,3.76970229 L11.6547223,2.45280062 L11.4088721,2.45280062 L11.9967747,4.0518955 L11.9668451,4.14809773 C11.9205255,4.31057261 11.8407133,4.40534963 11.6554349,4.40534963 C11.6212297,4.40534963 11.5649335,4.40107397 11.5399922,4.39608571 L11.5399922,4.58421452 C11.5791857,4.58991539 11.6376197,4.59632887 11.6903527,4.59632887 C11.9967747,4.59632887 12.1022408,4.38610918 12.1849035,4.15878687 L12.2297978,4.04120636 L12.7977473,2.45280062 L12.7977473,2.45280062 Z" id="Path" fill="#FF0000"></path>
                </g>
            </g>
        </g>
    </g>
</svg>