<?xml version="1.0" encoding="UTF-8"?>
<svg width="17px" height="17px" viewBox="0 0 17 17" version="1.1" xmlns="http://www.w3.org/2000/svg" xmlns:xlink="http://www.w3.org/1999/xlink">
    <title>cal-outlook</title>
    <g id="Web-Pages" stroke="none" stroke-width="1" fill="none" fill-rule="evenodd">
        <g id="Our-Work-&gt;-Calendar-FOCUS" transform="translate(-261.000000, -692.000000)" fill-rule="nonzero">
            <g id="Group-3" transform="translate(249.750000, 661.456276)">
                <g id="cal-outlook" transform="translate(12.242969, 31.403308)">
                    <path d="M9.12130684,3.42049006 L14.6446382,3.42049006 C14.9524823,3.42049006 15.2021781,3.67018584 15.2021781,3.97802995 L15.2021781,11.2241481 C15.2021781,11.5319922 14.9524823,11.781688 14.6446382,11.781688 L9.12130684,11.781688 L9.12130684,3.42049006 Z" id="Path" fill="#1976D2"></path>
                    <rect id="Rectangle" fill="#FFFFFF" x="9.12130684" y="5.30480004" width="5.32076232" height="5.90680629"></rect>
                    <polygon id="Path" fill="#1976D2" points="8.74125239 15.2021781 0 13.491933 0 1.71024503 8.74125239 0"></polygon>
                    <path d="M4.27561258,4.75068065 C3.06855964,4.75068065 2.09029948,6.02690349 2.09029948,7.60108903 C2.09029948,9.17527457 3.06855964,10.4514974 4.27561258,10.4514974 C5.48266552,10.4514974 6.46092568,9.17527457 6.46092568,7.60108903 C6.46092568,6.02690349 5.48266552,4.75068065 4.27561258,4.75068065 Z M4.18059897,9.31133407 C3.55084874,9.31133407 3.04043561,8.54552435 3.04043561,7.60108903 C3.04043561,6.65665372 3.55084874,5.890844 4.18059897,5.890844 C4.81034919,5.890844 5.32076232,6.65665372 5.32076232,7.60108903 C5.32076232,8.54552435 4.81034919,9.31133407 4.18059897,9.31133407 Z" id="Shape" fill="#FFFFFF"></path>
                    <rect id="Rectangle" fill="#1976D2" x="9.1391694" y="9.78146142" width="1.02614702" height="1.10215791"></rect>
                    <rect id="Rectangle" fill="#1976D2" x="10.4317346" y="9.78146142" width="1.02614702" height="1.10215791"></rect>
                    <rect id="Rectangle" fill="#1976D2" x="11.7242998" y="9.78146142" width="1.02614702" height="1.10215791"></rect>
                    <rect id="Rectangle" fill="#1976D2" x="9.1391694" y="8.42162659" width="1.02614702" height="1.10215791"></rect>
                    <rect id="Rectangle" fill="#1976D2" x="10.4317346" y="8.42162659" width="1.02614702" height="1.10215791"></rect>
                    <rect id="Rectangle" fill="#1976D2" x="11.7242998" y="8.42162659" width="1.02614702" height="1.10215791"></rect>
                    <rect id="Rectangle" fill="#1976D2" x="13.016865" y="8.42162659" width="1.02614702" height="1.10215791"></rect>
                    <rect id="Rectangle" fill="#1976D2" x="9.1391694" y="7.10929857" width="1.02614702" height="1.10215791"></rect>
                    <rect id="Rectangle" fill="#1976D2" x="10.4317346" y="7.10929857" width="1.02614702" height="1.10215791"></rect>
                    <rect id="Rectangle" fill="#1976D2" x="11.7242998" y="7.10929857" width="1.02614702" height="1.10215791"></rect>
                    <rect id="Rectangle" fill="#1976D2" x="13.016865" y="7.10929857" width="1.02614702" height="1.10215791"></rect>
                    <rect id="Rectangle" fill="#1976D2" x="10.4317346" y="5.74338287" width="1.02614702" height="1.10215791"></rect>
                    <rect id="Rectangle" fill="#1976D2" x="11.7242998" y="5.74338287" width="1.02614702" height="1.10215791"></rect>
                    <rect id="Rectangle" fill="#1976D2" x="13.016865" y="5.74338287" width="1.02614702" height="1.10215791"></rect>
                </g>
            </g>
        </g>
    </g>
</svg>