<?xml version="1.0" encoding="UTF-8"?>
<svg width="753px" height="11px" viewBox="0 0 753 11" version="1.1" xmlns="http://www.w3.org/2000/svg" xmlns:xlink="http://www.w3.org/1999/xlink">
    <title>divider water droplets</title>
    <defs>
        <polygon id="path-1" points="0 0 3.90123441 0 3.90123441 5.52674962 0 5.52674962"></polygon>
        <polygon id="path-3" points="0 0 3.90123441 0 3.90123441 5.52674962 0 5.52674962"></polygon>
        <polygon id="path-5" points="0 0 3.90123441 0 3.90123441 5.52674962 0 5.52674962"></polygon>
        <polygon id="path-7" points="0 0 3.90128676 0 3.90128676 5.52674962 0 5.52674962"></polygon>
        <polygon id="path-9" points="0 0 3.90128676 0 3.90128676 5.52674962 0 5.52674962"></polygon>
        <polygon id="path-11" points="0 0 3.90128676 0 3.90128676 5.52674962 0 5.52674962"></polygon>
        <polygon id="path-13" points="0 0 3.90128676 0 3.90128676 5.52674962 0 5.52674962"></polygon>
        <polygon id="path-15" points="0 0 3.90123441 0 3.90123441 5.52674962 0 5.52674962"></polygon>
        <polygon id="path-17" points="0 0 3.90128676 0 3.90128676 5.52674962 0 5.52674962"></polygon>
        <polygon id="path-19" points="0 0 3.90128676 0 3.90128676 5.52674962 0 5.52674962"></polygon>
        <polygon id="path-21" points="0 0 3.90128676 0 3.90128676 5.52674962 0 5.52674962"></polygon>
        <polygon id="path-23" points="0 0 3.90128676 0 3.90128676 5.52674962 0 5.52674962"></polygon>
        <polygon id="path-25" points="0 0 3.90128676 0 3.90128676 5.52674962 0 5.52674962"></polygon>
        <polygon id="path-27" points="0 0 3.90128676 0 3.90128676 5.52674962 0 5.52674962"></polygon>
        <polygon id="path-29" points="0 0 3.90128676 0 3.90128676 5.52674962 0 5.52674962"></polygon>
        <polygon id="path-31" points="0 0 3.90128676 0 3.90128676 5.52674962 0 5.52674962"></polygon>
        <polygon id="path-33" points="0 0 3.90128676 0 3.90128676 5.52674962 0 5.52674962"></polygon>
        <polygon id="path-35" points="0 0 3.90128676 0 3.90128676 5.52674962 0 5.52674962"></polygon>
        <polygon id="path-37" points="0 0 3.90128676 0 3.90128676 5.52674962 0 5.52674962"></polygon>
        <polygon id="path-39" points="0 0 3.90128676 0 3.90128676 5.52674962 0 5.52674962"></polygon>
        <polygon id="path-41" points="0 0 3.90128676 0 3.90128676 5.52674962 0 5.52674962"></polygon>
        <polygon id="path-43" points="0 0 3.90123441 0 3.90123441 5.52674962 0 5.52674962"></polygon>
        <polygon id="path-45" points="0 0 3.90123441 0 3.90123441 5.52674962 0 5.52674962"></polygon>
        <polygon id="path-47" points="0 0 3.90123441 0 3.90123441 5.52674962 0 5.52674962"></polygon>
        <polygon id="path-49" points="0 0 3.90128676 0 3.90128676 5.52674962 0 5.52674962"></polygon>
        <polygon id="path-51" points="0 0 3.90128676 0 3.90128676 5.52674962 0 5.52674962"></polygon>
        <polygon id="path-53" points="0 0 3.90128676 0 3.90128676 5.52674962 0 5.52674962"></polygon>
        <polygon id="path-55" points="0 0 3.90123441 0 3.90123441 5.52674962 0 5.52674962"></polygon>
        <polygon id="path-57" points="0 0 3.90123441 0 3.90123441 5.52674962 0 5.52674962"></polygon>
        <polygon id="path-59" points="0 0 3.90123441 0 3.90123441 5.52674962 0 5.52674962"></polygon>
        <polygon id="path-61" points="0 0 3.90128676 0 3.90128676 5.52674962 0 5.52674962"></polygon>
        <polygon id="path-63" points="0 0 3.90123441 0 3.90123441 5.52674962 0 5.52674962"></polygon>
        <polygon id="path-65" points="0 0 3.90123441 0 3.90123441 5.52674962 0 5.52674962"></polygon>
        <polygon id="path-67" points="0 0 3.90123441 0 3.90123441 5.52674962 0 5.52674962"></polygon>
        <polygon id="path-69" points="0 0 3.90128676 0 3.90128676 5.52674962 0 5.52674962"></polygon>
        <polygon id="path-71" points="0 0 3.90128676 0 3.90128676 5.52674962 0 5.52674962"></polygon>
        <polygon id="path-73" points="0 0 3.90123441 0 3.90123441 5.52674962 0 5.52674962"></polygon>
        <polygon id="path-75" points="0 0 3.90123441 0 3.90123441 5.52674962 0 5.52674962"></polygon>
        <polygon id="path-77" points="0 0 3.90123441 0 3.90123441 5.52674962 0 5.52674962"></polygon>
        <polygon id="path-79" points="0 0 3.90128676 0 3.90128676 5.52674962 0 5.52674962"></polygon>
        <polygon id="path-81" points="0 0 3.90128676 0 3.90128676 5.52674962 0 5.52674962"></polygon>
        <polygon id="path-83" points="0 0 3.90128676 0 3.90128676 5.52674962 0 5.52674962"></polygon>
        <polygon id="path-85" points="0 0 3.90128676 0 3.90128676 5.52674962 0 5.52674962"></polygon>
        <polygon id="path-87" points="0 0 3.90123441 0 3.90123441 5.52674962 0 5.52674962"></polygon>
        <polygon id="path-89" points="0 0 3.90123441 0 3.90123441 5.52674962 0 5.52674962"></polygon>
        <polygon id="path-91" points="0 0 3.90123441 0 3.90123441 5.52674962 0 5.52674962"></polygon>
        <polygon id="path-93" points="0 0 3.90123441 0 3.90123441 5.52674962 0 5.52674962"></polygon>
        <polygon id="path-95" points="0 0 3.90123441 0 3.90123441 5.52674962 0 5.52674962"></polygon>
        <polygon id="path-97" points="0 0 3.90123441 0 3.90123441 5.52674962 0 5.52674962"></polygon>
        <polygon id="path-99" points="0 0 3.90128676 0 3.90128676 5.52674962 0 5.52674962"></polygon>
        <polygon id="path-101" points="0 0 3.90123441 0 3.90123441 5.52674962 0 5.52674962"></polygon>
        <polygon id="path-103" points="0 0 3.90128676 0 3.90128676 5.52674962 0 5.52674962"></polygon>
        <polygon id="path-105" points="0 0 3.90128676 0 3.90128676 5.52674962 0 5.52674962"></polygon>
        <polygon id="path-107" points="0 0 3.90123441 0 3.90123441 5.52674962 0 5.52674962"></polygon>
        <polygon id="path-109" points="0 0 3.90123441 0 3.90123441 5.52674962 0 5.52674962"></polygon>
        <polygon id="path-111" points="0 0 3.90123441 0 3.90123441 5.52674962 0 5.52674962"></polygon>
        <polygon id="path-113" points="0 0 3.90123441 0 3.90123441 5.52674962 0 5.52674962"></polygon>
        <polygon id="path-115" points="0 0 3.90123441 0 3.90123441 5.52674962 0 5.52674962"></polygon>
        <polygon id="path-117" points="0 0 3.90123441 0 3.90123441 5.52674962 0 5.52674962"></polygon>
        <polygon id="path-119" points="0 0 3.90123441 0 3.90123441 5.52674962 0 5.52674962"></polygon>
        <polygon id="path-121" points="0 0 3.90123441 0 3.90123441 5.52674962 0 5.52674962"></polygon>
        <polygon id="path-123" points="0 0 3.90123441 0 3.90123441 5.52674962 0 5.52674962"></polygon>
        <polygon id="path-125" points="0 0 3.90123441 0 3.90123441 5.52674962 0 5.52674962"></polygon>
        <polygon id="path-127" points="0 0 3.90123441 0 3.90123441 5.52674962 0 5.52674962"></polygon>
        <polygon id="path-129" points="0 0 3.90123441 0 3.90123441 5.52674962 0 5.52674962"></polygon>
        <polygon id="path-131" points="0 0 3.90123441 0 3.90123441 5.52674962 0 5.52674962"></polygon>
        <polygon id="path-133" points="0 0 3.90123441 0 3.90123441 5.52674962 0 5.52674962"></polygon>
        <polygon id="path-135" points="0 0 3.90123441 0 3.90123441 5.52674962 0 5.52674962"></polygon>
        <polygon id="path-137" points="0 0 3.90123441 0 3.90123441 5.52674962 0 5.52674962"></polygon>
        <polygon id="path-139" points="0 0 3.90123441 0 3.90123441 5.52674962 0 5.52674962"></polygon>
        <polygon id="path-141" points="0 0 3.90123441 0 3.90123441 5.52674962 0 5.52674962"></polygon>
        <polygon id="path-143" points="0 0 3.90128676 0 3.90128676 5.52674962 0 5.52674962"></polygon>
        <polygon id="path-145" points="0 0 3.90128676 0 3.90128676 5.52674962 0 5.52674962"></polygon>
        <polygon id="path-147" points="0 0 3.90123441 0 3.90123441 5.52674962 0 5.52674962"></polygon>
        <polygon id="path-149" points="0 0 3.90123441 0 3.90123441 5.52674962 0 5.52674962"></polygon>
        <polygon id="path-151" points="0 0 3.90123441 0 3.90123441 5.52674962 0 5.52674962"></polygon>
        <polygon id="path-153" points="0 0 3.90123441 0 3.90123441 5.52674962 0 5.52674962"></polygon>
        <polygon id="path-155" points="0 0 3.90123441 0 3.90123441 5.52674962 0 5.52674962"></polygon>
        <polygon id="path-157" points="0 0 3.90123441 0 3.90123441 5.52674962 0 5.52674962"></polygon>
        <polygon id="path-159" points="0 0 3.90123441 0 3.90123441 5.52674962 0 5.52674962"></polygon>
        <polygon id="path-161" points="0 0 3.90123441 0 3.90123441 5.52674962 0 5.52674962"></polygon>
    </defs>
    <g id="Web-Pages" stroke="none" stroke-width="1" fill="none" fill-rule="evenodd">
        <g id="Home" transform="translate(-346.000000, -1563.000000)">
            <g id="divider-water-droplets" transform="translate(722.791710, 1568.307451) scale(1, -1) translate(-722.791710, -1568.307451) translate(346.686154, 1563.307451)">
                <g id="Group-3" transform="translate(589.294025, 4.473250)">
                    <mask id="mask-2" fill="white">
                        <use xlink:href="#path-1"></use>
                    </mask>
                    <g id="Clip-2"></g>
                    <path d="M0,3.57612718 C0,4.65222688 0.874491333,5.52677056 1.95059103,5.52677056 C3.02669073,5.52677056 3.90123441,4.65222688 3.90123441,3.57612718 C3.90123441,2.11314465 1.95059103,0 1.95059103,0 C1.95059103,0 0,2.11314465 0,3.57612718" id="Fill-1" fill="#FFE28D" mask="url(#mask-2)"></path>
                </g>
                <g id="Group-6" transform="translate(598.647889, 4.473250)">
                    <mask id="mask-4" fill="white">
                        <use xlink:href="#path-3"></use>
                    </mask>
                    <g id="Clip-5"></g>
                    <path d="M0,3.57612718 C0,4.65222688 0.874491333,5.52677056 1.95059103,5.52677056 C3.02669073,5.52677056 3.90123441,4.65222688 3.90123441,3.57612718 C3.90123441,2.11314465 1.95059103,0 1.95059103,0 C1.95059103,0 0,2.11314465 0,3.57612718" id="Fill-4" fill="#FFE28D" mask="url(#mask-4)"></path>
                </g>
                <g id="Group-9" transform="translate(608.001758, 4.473250)">
                    <mask id="mask-6" fill="white">
                        <use xlink:href="#path-5"></use>
                    </mask>
                    <g id="Clip-8"></g>
                    <path d="M0,3.57612718 C0,4.65222688 0.874491333,5.52677056 1.95064338,5.52677056 C3.02669073,5.52677056 3.90123441,4.65222688 3.90123441,3.57612718 C3.90123441,2.11314465 1.95064338,0 1.95064338,0 C1.95064338,0 0,2.11314465 0,3.57612718" id="Fill-7" fill="#FFE28D" mask="url(#mask-6)"></path>
                </g>
                <g id="Group-12" transform="translate(617.355627, 4.473250)">
                    <mask id="mask-8" fill="white">
                        <use xlink:href="#path-7"></use>
                    </mask>
                    <g id="Clip-11"></g>
                    <path d="M0,3.57612718 C0,4.65222688 0.874491333,5.52677056 1.95064338,5.52677056 C3.02669073,5.52677056 3.90128676,4.65222688 3.90128676,3.57612718 C3.90128676,2.11314465 1.95064338,0 1.95064338,0 C1.95064338,0 0,2.11314465 0,3.57612718" id="Fill-10" fill="#FFE28D" mask="url(#mask-8)"></path>
                </g>
                <g id="Group-15" transform="translate(626.709496, 4.473250)">
                    <mask id="mask-10" fill="white">
                        <use xlink:href="#path-9"></use>
                    </mask>
                    <g id="Clip-14"></g>
                    <path d="M0,3.57612718 C0,4.65222688 0.874543685,5.52677056 1.95064338,5.52677056 C3.02669073,5.52677056 3.90128676,4.65222688 3.90128676,3.57612718 C3.90128676,2.11314465 1.95064338,0 1.95064338,0 C1.95064338,0 0,2.11314465 0,3.57612718" id="Fill-13" fill="#FFE28D" mask="url(#mask-10)"></path>
                </g>
                <g id="Group-18" transform="translate(636.063360, 4.473250)">
                    <mask id="mask-12" fill="white">
                        <use xlink:href="#path-11"></use>
                    </mask>
                    <g id="Clip-17"></g>
                    <path d="M0,3.57612718 C0,4.65222688 0.874543685,5.52677056 1.95064338,5.52677056 C3.02669073,5.52677056 3.90128676,4.65222688 3.90128676,3.57612718 C3.90128676,2.11314465 1.95064338,0 1.95064338,0 C1.95064338,0 0,2.11314465 0,3.57612718" id="Fill-16" fill="#FFE28D" mask="url(#mask-12)"></path>
                </g>
                <g id="Group-21" transform="translate(645.417229, 4.473250)">
                    <mask id="mask-14" fill="white">
                        <use xlink:href="#path-13"></use>
                    </mask>
                    <g id="Clip-20"></g>
                    <path d="M0,3.57612718 C0,4.65222688 0.874543685,5.52677056 1.95064338,5.52677056 C3.02669073,5.52677056 3.90128676,4.65222688 3.90128676,3.57612718 C3.90128676,2.11314465 1.95064338,0 1.95064338,0 C1.95064338,0 0,2.11314465 0,3.57612718" id="Fill-19" fill="#FFE28D" mask="url(#mask-14)"></path>
                </g>
                <g id="Group-24" transform="translate(523.816900, 4.473250)">
                    <mask id="mask-16" fill="white">
                        <use xlink:href="#path-15"></use>
                    </mask>
                    <g id="Clip-23"></g>
                    <path d="M0,3.57612718 C0,4.65222688 0.874491333,5.52677056 1.95064338,5.52677056 C3.02669073,5.52677056 3.90123441,4.65222688 3.90123441,3.57612718 C3.90123441,2.11314465 1.95064338,0 1.95064338,0 C1.95064338,0 0,2.11314465 0,3.57612718" id="Fill-22" fill="#FFE28D" mask="url(#mask-16)"></path>
                </g>
                <g id="Group-27" transform="translate(533.170764, 4.473250)">
                    <mask id="mask-18" fill="white">
                        <use xlink:href="#path-17"></use>
                    </mask>
                    <g id="Clip-26"></g>
                    <path d="M0,3.57612718 C0,4.65222688 0.874543685,5.52677056 1.95064338,5.52677056 C3.02669073,5.52677056 3.90128676,4.65222688 3.90128676,3.57612718 C3.90128676,2.11314465 1.95064338,0 1.95064338,0 C1.95064338,0 0,2.11314465 0,3.57612718" id="Fill-25" fill="#FFE28D" mask="url(#mask-18)"></path>
                </g>
                <g id="Group-30" transform="translate(542.524633, 4.473250)">
                    <mask id="mask-20" fill="white">
                        <use xlink:href="#path-19"></use>
                    </mask>
                    <g id="Clip-29"></g>
                    <path d="M0,3.57612718 C0,4.65222688 0.874543685,5.52677056 1.95064338,5.52677056 C3.02669073,5.52677056 3.90128676,4.65222688 3.90128676,3.57612718 C3.90128676,2.11314465 1.95064338,0 1.95064338,0 C1.95064338,0 0,2.11314465 0,3.57612718" id="Fill-28" fill="#FFE28D" mask="url(#mask-20)"></path>
                </g>
                <g id="Group-33" transform="translate(551.878502, 4.473250)">
                    <mask id="mask-22" fill="white">
                        <use xlink:href="#path-21"></use>
                    </mask>
                    <g id="Clip-32"></g>
                    <path d="M0,3.57612718 C0,4.65222688 0.874543685,5.52677056 1.95064338,5.52677056 C3.02669073,5.52677056 3.90128676,4.65222688 3.90128676,3.57612718 C3.90128676,2.11314465 1.95064338,0 1.95064338,0 C1.95064338,0 0,2.11314465 0,3.57612718" id="Fill-31" fill="#FFE28D" mask="url(#mask-22)"></path>
                </g>
                <g id="Group-36" transform="translate(561.232371, 4.473250)">
                    <mask id="mask-24" fill="white">
                        <use xlink:href="#path-23"></use>
                    </mask>
                    <g id="Clip-35"></g>
                    <path d="M0,3.57612718 C0,4.65222688 0.874543685,5.52677056 1.95064338,5.52677056 C3.02669073,5.52677056 3.90128676,4.65222688 3.90128676,3.57612718 C3.90128676,2.11314465 1.95064338,0 1.95064338,0 C1.95064338,0 0,2.11314465 0,3.57612718" id="Fill-34" fill="#FFE28D" mask="url(#mask-24)"></path>
                </g>
                <g id="Group-39" transform="translate(570.586235, 4.473250)">
                    <mask id="mask-26" fill="white">
                        <use xlink:href="#path-25"></use>
                    </mask>
                    <g id="Clip-38"></g>
                    <path d="M0,3.57612718 C0,4.65222688 0.874543685,5.52677056 1.95064338,5.52677056 C3.02669073,5.52677056 3.90128676,4.65222688 3.90128676,3.57612718 C3.90128676,2.11314465 1.95064338,0 1.95064338,0 C1.95064338,0 0,2.11314465 0,3.57612718" id="Fill-37" fill="#FFE28D" mask="url(#mask-26)"></path>
                </g>
                <g id="Group-42" transform="translate(579.940104, 4.473250)">
                    <mask id="mask-28" fill="white">
                        <use xlink:href="#path-27"></use>
                    </mask>
                    <g id="Clip-41"></g>
                    <path d="M0,3.57612718 C0,4.65222688 0.874543685,5.52677056 1.95064338,5.52677056 C3.02669073,5.52677056 3.90128676,4.65222688 3.90128676,3.57612718 C3.90128676,2.11314465 1.95064338,0 1.95064338,0 C1.95064338,0 0,2.11314465 0,3.57612718" id="Fill-40" fill="#FFE28D" mask="url(#mask-28)"></path>
                </g>
                <g id="Group-45" transform="translate(720.248223, 4.473250)">
                    <mask id="mask-30" fill="white">
                        <use xlink:href="#path-29"></use>
                    </mask>
                    <g id="Clip-44"></g>
                    <path d="M0,3.57612718 C0,4.65222688 0.874543685,5.52677056 1.95064338,5.52677056 C3.02669073,5.52677056 3.90128676,4.65222688 3.90128676,3.57612718 C3.90128676,2.11314465 1.95064338,0 1.95064338,0 C1.95064338,0 0,2.11314465 0,3.57612718" id="Fill-43" fill="#FFE28D" mask="url(#mask-30)"></path>
                </g>
                <g id="Group-48" transform="translate(729.602092, 4.473250)">
                    <mask id="mask-32" fill="white">
                        <use xlink:href="#path-31"></use>
                    </mask>
                    <g id="Clip-47"></g>
                    <path d="M0,3.57612718 C0,4.65222688 0.874543685,5.52677056 1.95064338,5.52677056 C3.02669073,5.52677056 3.90128676,4.65222688 3.90128676,3.57612718 C3.90128676,2.11314465 1.95064338,0 1.95064338,0 C1.95064338,0 0,2.11314465 0,3.57612718" id="Fill-46" fill="#FFE28D" mask="url(#mask-32)"></path>
                </g>
                <g id="Group-51" transform="translate(738.955956, 4.473250)">
                    <mask id="mask-34" fill="white">
                        <use xlink:href="#path-33"></use>
                    </mask>
                    <g id="Clip-50"></g>
                    <path d="M0,3.57612718 C0,4.65222688 0.874543685,5.52677056 1.95064338,5.52677056 C3.02669073,5.52677056 3.90128676,4.65222688 3.90128676,3.57612718 C3.90128676,2.11314465 1.95064338,0 1.95064338,0 C1.95064338,0 0,2.11314465 0,3.57612718" id="Fill-49" fill="#FFE28D" mask="url(#mask-34)"></path>
                </g>
                <g id="Group-54" transform="translate(748.309825, 4.473250)">
                    <mask id="mask-36" fill="white">
                        <use xlink:href="#path-35"></use>
                    </mask>
                    <g id="Clip-53"></g>
                    <path d="M0,3.57612718 C0,4.65222688 0.874543685,5.52677056 1.95064338,5.52677056 C3.02669073,5.52677056 3.90128676,4.65222688 3.90128676,3.57612718 C3.90128676,2.11314465 1.95064338,0 1.95064338,0 C1.95064338,0 0,2.11314465 0,3.57612718" id="Fill-52" fill="#FFE28D" mask="url(#mask-36)"></path>
                </g>
                <g id="Group-63" transform="translate(654.771098, 4.473250)">
                    <mask id="mask-38" fill="white">
                        <use xlink:href="#path-37"></use>
                    </mask>
                    <g id="Clip-62"></g>
                    <path d="M0,3.57612718 C0,4.65222688 0.874543685,5.52677056 1.95064338,5.52677056 C3.02669073,5.52677056 3.90128676,4.65222688 3.90128676,3.57612718 C3.90128676,2.11314465 1.95064338,0 1.95064338,0 C1.95064338,0 0,2.11314465 0,3.57612718" id="Fill-61" fill="#FFE28D" mask="url(#mask-38)"></path>
                </g>
                <g id="Group-66" transform="translate(664.124967, 4.473250)">
                    <mask id="mask-40" fill="white">
                        <use xlink:href="#path-39"></use>
                    </mask>
                    <g id="Clip-65"></g>
                    <path d="M0,3.57612718 C0,4.65222688 0.874543685,5.52677056 1.95064338,5.52677056 C3.02669073,5.52677056 3.90128676,4.65222688 3.90128676,3.57612718 C3.90128676,2.11314465 1.95064338,0 1.95064338,0 C1.95064338,0 0,2.11314465 0,3.57612718" id="Fill-64" fill="#FFE28D" mask="url(#mask-40)"></path>
                </g>
                <g id="Group-69" transform="translate(673.478831, 4.473250)">
                    <mask id="mask-42" fill="white">
                        <use xlink:href="#path-41"></use>
                    </mask>
                    <g id="Clip-68"></g>
                    <path d="M0,3.57612718 C0,4.65222688 0.874543685,5.52677056 1.95064338,5.52677056 C3.02674308,5.52677056 3.90128676,4.65222688 3.90128676,3.57612718 C3.90128676,2.11314465 1.95064338,0 1.95064338,0 C1.95064338,0 0,2.11314465 0,3.57612718" id="Fill-67" fill="#FFE28D" mask="url(#mask-42)"></path>
                </g>
                <g id="Group-72" transform="translate(682.832752, 4.473250)">
                    <mask id="mask-44" fill="white">
                        <use xlink:href="#path-43"></use>
                    </mask>
                    <g id="Clip-71"></g>
                    <path d="M0,3.57612718 C0,4.65222688 0.874491333,5.52677056 1.95059103,5.52677056 C3.02669073,5.52677056 3.90123441,4.65222688 3.90123441,3.57612718 C3.90123441,2.11314465 1.95059103,0 1.95059103,0 C1.95059103,0 0,2.11314465 0,3.57612718" id="Fill-70" fill="#FFE28D" mask="url(#mask-44)"></path>
                </g>
                <g id="Group-75" transform="translate(692.186621, 4.473250)">
                    <mask id="mask-46" fill="white">
                        <use xlink:href="#path-45"></use>
                    </mask>
                    <g id="Clip-74"></g>
                    <path d="M0,3.57612718 C0,4.65222688 0.874491333,5.52677056 1.95064338,5.52677056 C3.02669073,5.52677056 3.90123441,4.65222688 3.90123441,3.57612718 C3.90123441,2.11314465 1.95064338,0 1.95064338,0 C1.95064338,0 0,2.11314465 0,3.57612718" id="Fill-73" fill="#FFE28D" mask="url(#mask-46)"></path>
                </g>
                <g id="Group-78" transform="translate(701.540485, 4.473250)">
                    <mask id="mask-48" fill="white">
                        <use xlink:href="#path-47"></use>
                    </mask>
                    <g id="Clip-77"></g>
                    <path d="M0,3.57612718 C0,4.65222688 0.874491333,5.52677056 1.95064338,5.52677056 C3.02669073,5.52677056 3.90123441,4.65222688 3.90123441,3.57612718 C3.90123441,2.11314465 1.95064338,0 1.95064338,0 C1.95064338,0 0,2.11314465 0,3.57612718" id="Fill-76" fill="#FFE28D" mask="url(#mask-48)"></path>
                </g>
                <g id="Group-81" transform="translate(710.894354, 4.473250)">
                    <mask id="mask-50" fill="white">
                        <use xlink:href="#path-49"></use>
                    </mask>
                    <g id="Clip-80"></g>
                    <path d="M0,3.57612718 C0,4.65222688 0.874543685,5.52677056 1.95064338,5.52677056 C3.02669073,5.52677056 3.90128676,4.65222688 3.90128676,3.57612718 C3.90128676,2.11314465 1.95064338,0 1.95064338,0 C1.95064338,0 0,2.11314465 0,3.57612718" id="Fill-79" fill="#FFE28D" mask="url(#mask-50)"></path>
                </g>
                <g id="Group-84" transform="translate(327.385546, 4.473250)">
                    <mask id="mask-52" fill="white">
                        <use xlink:href="#path-51"></use>
                    </mask>
                    <g id="Clip-83"></g>
                    <path d="M0,3.57612718 C0,4.65222688 0.874543685,5.52677056 1.95064338,5.52677056 C3.02669073,5.52677056 3.90128676,4.65222688 3.90128676,3.57612718 C3.90128676,2.11314465 1.95064338,0 1.95064338,0 C1.95064338,0 0,2.11314465 0,3.57612718" id="Fill-82" fill="#FFE28D" mask="url(#mask-52)"></path>
                </g>
                <g id="Group-87" transform="translate(336.739415, 4.473250)">
                    <mask id="mask-54" fill="white">
                        <use xlink:href="#path-53"></use>
                    </mask>
                    <g id="Clip-86"></g>
                    <path d="M0,3.57612718 C0,4.65222688 0.874543685,5.52677056 1.95064338,5.52677056 C3.02674308,5.52677056 3.90128676,4.65222688 3.90128676,3.57612718 C3.90128676,2.11314465 1.95064338,0 1.95064338,0 C1.95064338,0 0,2.11314465 0,3.57612718" id="Fill-85" fill="#FFE28D" mask="url(#mask-54)"></path>
                </g>
                <g id="Group-90" transform="translate(346.093310, 4.473250)">
                    <mask id="mask-56" fill="white">
                        <use xlink:href="#path-55"></use>
                    </mask>
                    <g id="Clip-89"></g>
                    <path d="M0,3.57612718 C0,4.65222688 0.874543685,5.52677056 1.95059103,5.52677056 C3.02669073,5.52677056 3.90123441,4.65222688 3.90123441,3.57612718 C3.90123441,2.11314465 1.95059103,0 1.95059103,0 C1.95059103,0 0,2.11314465 0,3.57612718" id="Fill-88" fill="#FFE28D" mask="url(#mask-56)"></path>
                </g>
                <g id="Group-93" transform="translate(355.447179, 4.473250)">
                    <mask id="mask-58" fill="white">
                        <use xlink:href="#path-57"></use>
                    </mask>
                    <g id="Clip-92"></g>
                    <path d="M0,3.57612718 C0,4.65222688 0.874543685,5.52677056 1.95064338,5.52677056 C3.02669073,5.52677056 3.90123441,4.65222688 3.90123441,3.57612718 C3.90123441,2.11314465 1.95064338,0 1.95064338,0 C1.95064338,0 0,2.11314465 0,3.57612718" id="Fill-91" fill="#FFE28D" mask="url(#mask-58)"></path>
                </g>
                <g id="Group-96" transform="translate(364.801043, 4.473250)">
                    <mask id="mask-60" fill="white">
                        <use xlink:href="#path-59"></use>
                    </mask>
                    <g id="Clip-95"></g>
                    <path d="M0,3.57612718 C0,4.65222688 0.874543685,5.52677056 1.95064338,5.52677056 C3.02669073,5.52677056 3.90123441,4.65222688 3.90123441,3.57612718 C3.90123441,2.11314465 1.95064338,0 1.95064338,0 C1.95064338,0 0,2.11314465 0,3.57612718" id="Fill-94" fill="#FFE28D" mask="url(#mask-60)"></path>
                </g>
                <g id="Group-99" transform="translate(374.154912, 4.473250)">
                    <mask id="mask-62" fill="white">
                        <use xlink:href="#path-61"></use>
                    </mask>
                    <g id="Clip-98"></g>
                    <path d="M0,3.57612718 C0,4.65222688 0.874543685,5.52677056 1.95064338,5.52677056 C3.02669073,5.52677056 3.90128676,4.65222688 3.90128676,3.57612718 C3.90128676,2.11314465 1.95064338,0 1.95064338,0 C1.95064338,0 0,2.11314465 0,3.57612718" id="Fill-97" fill="#FFE28D" mask="url(#mask-62)"></path>
                </g>
                <g id="Group-102" transform="translate(383.508807, 4.473250)">
                    <mask id="mask-64" fill="white">
                        <use xlink:href="#path-63"></use>
                    </mask>
                    <g id="Clip-101"></g>
                    <path d="M0,3.57612718 C0,4.65222688 0.874543685,5.52677056 1.95059103,5.52677056 C3.02669073,5.52677056 3.90123441,4.65222688 3.90123441,3.57612718 C3.90123441,2.11314465 1.95059103,0 1.95059103,0 C1.95059103,0 0,2.11314465 0,3.57612718" id="Fill-100" fill="#FFE28D" mask="url(#mask-64)"></path>
                </g>
                <g id="Group-105" transform="translate(261.908448, 4.473250)">
                    <mask id="mask-66" fill="white">
                        <use xlink:href="#path-65"></use>
                    </mask>
                    <g id="Clip-104"></g>
                    <path d="M0,3.57612718 C0,4.65222688 0.874543685,5.52677056 1.95059103,5.52677056 C3.02669073,5.52677056 3.90123441,4.65222688 3.90123441,3.57612718 C3.90123441,2.11314465 1.95059103,0 1.95059103,0 C1.95059103,0 0,2.11314465 0,3.57612718" id="Fill-103" fill="#FFE28D" mask="url(#mask-66)"></path>
                </g>
                <g id="Group-108" transform="translate(271.262317, 4.473250)">
                    <mask id="mask-68" fill="white">
                        <use xlink:href="#path-67"></use>
                    </mask>
                    <g id="Clip-107"></g>
                    <path d="M0,3.57612718 C0,4.65222688 0.874543685,5.52677056 1.95064338,5.52677056 C3.02669073,5.52677056 3.90123441,4.65222688 3.90123441,3.57612718 C3.90123441,2.11314465 1.95064338,0 1.95064338,0 C1.95064338,0 0,2.11314465 0,3.57612718" id="Fill-106" fill="#FFE28D" mask="url(#mask-68)"></path>
                </g>
                <g id="Group-111" transform="translate(280.616186, 4.473250)">
                    <mask id="mask-70" fill="white">
                        <use xlink:href="#path-69"></use>
                    </mask>
                    <g id="Clip-110"></g>
                    <path d="M0,3.57612718 C0,4.65222688 0.874543685,5.52677056 1.95064338,5.52677056 C3.02669073,5.52677056 3.90128676,4.65222688 3.90128676,3.57612718 C3.90128676,2.11314465 1.95064338,0 1.95064338,0 C1.95064338,0 0,2.11314465 0,3.57612718" id="Fill-109" fill="#FFE28D" mask="url(#mask-70)"></path>
                </g>
                <g id="Group-114" transform="translate(289.970055, 4.473250)">
                    <mask id="mask-72" fill="white">
                        <use xlink:href="#path-71"></use>
                    </mask>
                    <g id="Clip-113"></g>
                    <path d="M0,3.57612718 C0,4.65222688 0.874543685,5.52677056 1.95064338,5.52677056 C3.02669073,5.52677056 3.90128676,4.65222688 3.90128676,3.57612718 C3.90128676,2.11314465 1.95064338,0 1.95064338,0 C1.95064338,0 0,2.11314465 0,3.57612718" id="Fill-112" fill="#FFE28D" mask="url(#mask-72)"></path>
                </g>
                <g id="Group-117" transform="translate(299.323944, 4.473250)">
                    <mask id="mask-74" fill="white">
                        <use xlink:href="#path-73"></use>
                    </mask>
                    <g id="Clip-116"></g>
                    <path d="M0,3.57612718 C0,4.65222688 0.874543685,5.52677056 1.95059103,5.52677056 C3.02669073,5.52677056 3.90123441,4.65222688 3.90123441,3.57612718 C3.90123441,2.11314465 1.95059103,0 1.95059103,0 C1.95059103,0 0,2.11314465 0,3.57612718" id="Fill-115" fill="#FFE28D" mask="url(#mask-74)"></path>
                </g>
                <g id="Group-120" transform="translate(308.677813, 4.473250)">
                    <mask id="mask-76" fill="white">
                        <use xlink:href="#path-75"></use>
                    </mask>
                    <g id="Clip-119"></g>
                    <path d="M0,3.57612718 C0,4.65222688 0.874543685,5.52677056 1.95064338,5.52677056 C3.02669073,5.52677056 3.90123441,4.65222688 3.90123441,3.57612718 C3.90123441,2.11314465 1.95064338,0 1.95064338,0 C1.95064338,0 0,2.11314465 0,3.57612718" id="Fill-118" fill="#FFE28D" mask="url(#mask-76)"></path>
                </g>
                <g id="Group-123" transform="translate(318.031683, 4.473250)">
                    <mask id="mask-78" fill="white">
                        <use xlink:href="#path-77"></use>
                    </mask>
                    <g id="Clip-122"></g>
                    <path d="M0,3.57612718 C0,4.65222688 0.874543685,5.52677056 1.95064338,5.52677056 C3.02669073,5.52677056 3.90123441,4.65222688 3.90123441,3.57612718 C3.90123441,2.11314465 1.95064338,0 1.95064338,0 C1.95064338,0 0,2.11314465 0,3.57612718" id="Fill-121" fill="#FFE28D" mask="url(#mask-78)"></path>
                </g>
                <g id="Group-126" transform="translate(458.339775, 4.473250)">
                    <mask id="mask-80" fill="white">
                        <use xlink:href="#path-79"></use>
                    </mask>
                    <g id="Clip-125"></g>
                    <path d="M0,3.57612718 C0,4.65222688 0.874543685,5.52677056 1.95064338,5.52677056 C3.02669073,5.52677056 3.90128676,4.65222688 3.90128676,3.57612718 C3.90128676,2.11314465 1.95064338,0 1.95064338,0 C1.95064338,0 0,2.11314465 0,3.57612718" id="Fill-124" fill="#FFE28D" mask="url(#mask-80)"></path>
                </g>
                <g id="Group-129" transform="translate(467.693639, 4.473250)">
                    <mask id="mask-82" fill="white">
                        <use xlink:href="#path-81"></use>
                    </mask>
                    <g id="Clip-128"></g>
                    <path d="M0,3.57612718 C0,4.65222688 0.874543685,5.52677056 1.95064338,5.52677056 C3.02669073,5.52677056 3.90128676,4.65222688 3.90128676,3.57612718 C3.90128676,2.11314465 1.95064338,0 1.95064338,0 C1.95064338,0 0,2.11314465 0,3.57612718" id="Fill-127" fill="#FFE28D" mask="url(#mask-82)"></path>
                </g>
                <g id="Group-132" transform="translate(477.047508, 4.473250)">
                    <mask id="mask-84" fill="white">
                        <use xlink:href="#path-83"></use>
                    </mask>
                    <g id="Clip-131"></g>
                    <path d="M0,3.57612718 C0,4.65222688 0.874543685,5.52677056 1.95064338,5.52677056 C3.02669073,5.52677056 3.90128676,4.65222688 3.90128676,3.57612718 C3.90128676,2.11314465 1.95064338,0 1.95064338,0 C1.95064338,0 0,2.11314465 0,3.57612718" id="Fill-130" fill="#FFE28D" mask="url(#mask-84)"></path>
                </g>
                <g id="Group-135" transform="translate(486.401377, 4.473250)">
                    <mask id="mask-86" fill="white">
                        <use xlink:href="#path-85"></use>
                    </mask>
                    <g id="Clip-134"></g>
                    <path d="M0,3.57612718 C0,4.65222688 0.874543685,5.52677056 1.95064338,5.52677056 C3.02669073,5.52677056 3.90128676,4.65222688 3.90128676,3.57612718 C3.90128676,2.11314465 1.95064338,0 1.95064338,0 C1.95064338,0 0,2.11314465 0,3.57612718" id="Fill-133" fill="#FFE28D" mask="url(#mask-86)"></path>
                </g>
                <g id="Group-138" transform="translate(495.755293, 4.473250)">
                    <mask id="mask-88" fill="white">
                        <use xlink:href="#path-87"></use>
                    </mask>
                    <g id="Clip-137"></g>
                    <path d="M0,3.57612718 C0,4.65222688 0.874491333,5.52677056 1.95059103,5.52677056 C3.02669073,5.52677056 3.90123441,4.65222688 3.90123441,3.57612718 C3.90123441,2.11314465 1.95059103,0 1.95059103,0 C1.95059103,0 0,2.11314465 0,3.57612718" id="Fill-136" fill="#FFE28D" mask="url(#mask-88)"></path>
                </g>
                <g id="Group-141" transform="translate(505.109162, 4.473250)">
                    <mask id="mask-90" fill="white">
                        <use xlink:href="#path-89"></use>
                    </mask>
                    <g id="Clip-140"></g>
                    <path d="M0,3.57612718 C0,4.65222688 0.874491333,5.52677056 1.95059103,5.52677056 C3.02669073,5.52677056 3.90123441,4.65222688 3.90123441,3.57612718 C3.90123441,2.11314465 1.95059103,0 1.95059103,0 C1.95059103,0 0,2.11314465 0,3.57612718" id="Fill-139" fill="#FFE28D" mask="url(#mask-90)"></path>
                </g>
                <g id="Group-144" transform="translate(514.463031, 4.473250)">
                    <mask id="mask-92" fill="white">
                        <use xlink:href="#path-91"></use>
                    </mask>
                    <g id="Clip-143"></g>
                    <path d="M0,3.57612718 C0,4.65222688 0.874491333,5.52677056 1.95064338,5.52677056 C3.02669073,5.52677056 3.90123441,4.65222688 3.90123441,3.57612718 C3.90123441,2.11314465 1.95064338,0 1.95064338,0 C1.95064338,0 0,2.11314465 0,3.57612718" id="Fill-142" fill="#FFE28D" mask="url(#mask-92)"></path>
                </g>
                <g id="Group-147" transform="translate(392.862671, 4.473250)">
                    <mask id="mask-94" fill="white">
                        <use xlink:href="#path-93"></use>
                    </mask>
                    <g id="Clip-146"></g>
                    <path d="M0,3.57612718 C0,4.65222688 0.874543685,5.52677056 1.95059103,5.52677056 C3.02669073,5.52677056 3.90123441,4.65222688 3.90123441,3.57612718 C3.90123441,2.11314465 1.95059103,0 1.95059103,0 C1.95059103,0 0,2.11314465 0,3.57612718" id="Fill-145" fill="#FFE28D" mask="url(#mask-94)"></path>
                </g>
                <g id="Group-150" transform="translate(402.216540, 4.473250)">
                    <mask id="mask-96" fill="white">
                        <use xlink:href="#path-95"></use>
                    </mask>
                    <g id="Clip-149"></g>
                    <path d="M0,3.57612718 C0,4.65222688 0.874543685,5.52677056 1.95064338,5.52677056 C3.02669073,5.52677056 3.90123441,4.65222688 3.90123441,3.57612718 C3.90123441,2.11314465 1.95064338,0 1.95064338,0 C1.95064338,0 0,2.11314465 0,3.57612718" id="Fill-148" fill="#FFE28D" mask="url(#mask-96)"></path>
                </g>
                <g id="Group-153" transform="translate(411.570409, 4.473250)">
                    <mask id="mask-98" fill="white">
                        <use xlink:href="#path-97"></use>
                    </mask>
                    <g id="Clip-152"></g>
                    <path d="M0,3.57612718 C0,4.65222688 0.874543685,5.52677056 1.95064338,5.52677056 C3.02669073,5.52677056 3.90123441,4.65222688 3.90123441,3.57612718 C3.90123441,2.11314465 1.95064338,0 1.95064338,0 C1.95064338,0 0,2.11314465 0,3.57612718" id="Fill-151" fill="#FFE28D" mask="url(#mask-98)"></path>
                </g>
                <g id="Group-156" transform="translate(420.924278, 4.473250)">
                    <mask id="mask-100" fill="white">
                        <use xlink:href="#path-99"></use>
                    </mask>
                    <g id="Clip-155"></g>
                    <path d="M0,3.57612718 C0,4.65222688 0.874543685,5.52677056 1.95064338,5.52677056 C3.02669073,5.52677056 3.90128676,4.65222688 3.90128676,3.57612718 C3.90128676,2.11314465 1.95064338,0 1.95064338,0 C1.95064338,0 0,2.11314465 0,3.57612718" id="Fill-154" fill="#FFE28D" mask="url(#mask-100)"></path>
                </g>
                <g id="Group-159" transform="translate(430.278168, 4.473250)">
                    <mask id="mask-102" fill="white">
                        <use xlink:href="#path-101"></use>
                    </mask>
                    <g id="Clip-158"></g>
                    <path d="M0,3.57612718 C0,4.65222688 0.874491333,5.52677056 1.95064338,5.52677056 C3.02669073,5.52677056 3.90123441,4.65222688 3.90123441,3.57612718 C3.90123441,2.11314465 1.95064338,0 1.95064338,0 C1.95064338,0 0,2.11314465 0,3.57612718" id="Fill-157" fill="#FFE28D" mask="url(#mask-102)"></path>
                </g>
                <g id="Group-162" transform="translate(439.632037, 4.473250)">
                    <mask id="mask-104" fill="white">
                        <use xlink:href="#path-103"></use>
                    </mask>
                    <g id="Clip-161"></g>
                    <path d="M0,3.57612718 C0,4.65222688 0.874543685,5.52677056 1.95064338,5.52677056 C3.02669073,5.52677056 3.90128676,4.65222688 3.90128676,3.57612718 C3.90128676,2.11314465 1.95064338,0 1.95064338,0 C1.95064338,0 0,2.11314465 0,3.57612718" id="Fill-160" fill="#FFE28D" mask="url(#mask-104)"></path>
                </g>
                <g id="Group-165" transform="translate(448.985906, 4.473250)">
                    <mask id="mask-106" fill="white">
                        <use xlink:href="#path-105"></use>
                    </mask>
                    <g id="Clip-164"></g>
                    <path d="M0,3.57612718 C0,4.65222688 0.874543685,5.52677056 1.95064338,5.52677056 C3.02669073,5.52677056 3.90128676,4.65222688 3.90128676,3.57612718 C3.90128676,2.11314465 1.95064338,0 1.95064338,0 C1.95064338,0 0,2.11314465 0,3.57612718" id="Fill-163" fill="#FFE28D" mask="url(#mask-106)"></path>
                </g>
                <g id="Group-168" transform="translate(65.477114, 4.473250)">
                    <mask id="mask-108" fill="white">
                        <use xlink:href="#path-107"></use>
                    </mask>
                    <g id="Clip-167"></g>
                    <path d="M0,3.57612718 C0,4.65222688 0.874543685,5.52677056 1.95064338,5.52677056 C3.02669073,5.52677056 3.90123441,4.65222688 3.90123441,3.57612718 C3.90123441,2.11314465 1.95064338,0 1.95064338,0 C1.95064338,0 0,2.11314465 0,3.57612718" id="Fill-166" fill="#FFE28D" mask="url(#mask-108)"></path>
                </g>
                <g id="Group-171" transform="translate(74.830989, 4.473250)">
                    <mask id="mask-110" fill="white">
                        <use xlink:href="#path-109"></use>
                    </mask>
                    <g id="Clip-170"></g>
                    <path d="M0,3.57612718 C0,4.65222688 0.874543685,5.52677056 1.95064338,5.52677056 C3.02669073,5.52677056 3.90123441,4.65222688 3.90123441,3.57612718 C3.90123441,2.11314465 1.95064338,0 1.95064338,0 C1.95064338,0 0,2.11314465 0,3.57612718" id="Fill-169" fill="#FFE28D" mask="url(#mask-110)"></path>
                </g>
                <g id="Group-174" transform="translate(84.184853, 4.473250)">
                    <mask id="mask-112" fill="white">
                        <use xlink:href="#path-111"></use>
                    </mask>
                    <g id="Clip-173"></g>
                    <path d="M0,3.57612718 C0,4.65222688 0.874543685,5.52677056 1.95064338,5.52677056 C3.02674308,5.52677056 3.90123441,4.65222688 3.90123441,3.57612718 C3.90123441,2.11314465 1.95064338,0 1.95064338,0 C1.95064338,0 0,2.11314465 0,3.57612718" id="Fill-172" fill="#FFE28D" mask="url(#mask-112)"></path>
                </g>
                <g id="Group-177" transform="translate(93.538727, 4.473250)">
                    <mask id="mask-114" fill="white">
                        <use xlink:href="#path-113"></use>
                    </mask>
                    <g id="Clip-176"></g>
                    <path d="M0,3.57612718 C0,4.65222688 0.874543685,5.52677056 1.95064338,5.52677056 C3.02669073,5.52677056 3.90123441,4.65222688 3.90123441,3.57612718 C3.90123441,2.11314465 1.95064338,0 1.95064338,0 C1.95064338,0 0,2.11314465 0,3.57612718" id="Fill-175" fill="#FFE28D" mask="url(#mask-114)"></path>
                </g>
                <g id="Group-180" transform="translate(102.892601, 4.473250)">
                    <mask id="mask-116" fill="white">
                        <use xlink:href="#path-115"></use>
                    </mask>
                    <g id="Clip-179"></g>
                    <path d="M0,3.57612718 C0,4.65222688 0.874543685,5.52677056 1.95064338,5.52677056 C3.02669073,5.52677056 3.90123441,4.65222688 3.90123441,3.57612718 C3.90123441,2.11314465 1.95064338,0 1.95064338,0 C1.95064338,0 0,2.11314465 0,3.57612718" id="Fill-178" fill="#FFE28D" mask="url(#mask-116)"></path>
                </g>
                <g id="Group-183" transform="translate(112.246475, 4.473250)">
                    <mask id="mask-118" fill="white">
                        <use xlink:href="#path-117"></use>
                    </mask>
                    <g id="Clip-182"></g>
                    <path d="M0,3.57612718 C0,4.65222688 0.874543685,5.52677056 1.95064338,5.52677056 C3.02669073,5.52677056 3.90123441,4.65222688 3.90123441,3.57612718 C3.90123441,2.11314465 1.95064338,0 1.95064338,0 C1.95064338,0 0,2.11314465 0,3.57612718" id="Fill-181" fill="#FFE28D" mask="url(#mask-118)"></path>
                </g>
                <g id="Group-186" transform="translate(121.600344, 4.473250)">
                    <mask id="mask-120" fill="white">
                        <use xlink:href="#path-119"></use>
                    </mask>
                    <g id="Clip-185"></g>
                    <path d="M0,3.57612718 C0,4.65222688 0.874543685,5.52677056 1.95064338,5.52677056 C3.02669073,5.52677056 3.90123441,4.65222688 3.90123441,3.57612718 C3.90123441,2.11314465 1.95064338,0 1.95064338,0 C1.95064338,0 0,2.11314465 0,3.57612718" id="Fill-184" fill="#FFE28D" mask="url(#mask-120)"></path>
                </g>
                <g id="Group-189" transform="translate(0.000000, 4.473250)">
                    <mask id="mask-122" fill="white">
                        <use xlink:href="#path-121"></use>
                    </mask>
                    <g id="Clip-188"></g>
                    <path d="M0,3.57612718 C0,4.65222688 0.874543685,5.52677056 1.95064338,5.52677056 C3.02669073,5.52677056 3.90123441,4.65222688 3.90123441,3.57612718 C3.90123441,2.11314465 1.95064338,0 1.95064338,0 C1.95064338,0 0,2.11314465 0,3.57612718" id="Fill-187" fill="#FFE28D" mask="url(#mask-122)"></path>
                </g>
                <g id="Group-192" transform="translate(9.353874, 4.473250)">
                    <mask id="mask-124" fill="white">
                        <use xlink:href="#path-123"></use>
                    </mask>
                    <g id="Clip-191"></g>
                    <path d="M0,3.57612718 C0,4.65222688 0.874543685,5.52677056 1.95064338,5.52677056 C3.02669073,5.52677056 3.90123441,4.65222688 3.90123441,3.57612718 C3.90123441,2.11314465 1.95064338,0 1.95064338,0 C1.95064338,0 0,2.11314465 0,3.57612718" id="Fill-190" fill="#FFE28D" mask="url(#mask-124)"></path>
                </g>
                <g id="Group-195" transform="translate(18.707748, 4.473250)">
                    <mask id="mask-126" fill="white">
                        <use xlink:href="#path-125"></use>
                    </mask>
                    <g id="Clip-194"></g>
                    <path d="M0,3.57612718 C0,4.65222688 0.874543685,5.52677056 1.95064338,5.52677056 C3.02669073,5.52677056 3.90123441,4.65222688 3.90123441,3.57612718 C3.90123441,2.11314465 1.95064338,0 1.95064338,0 C1.95064338,0 0,2.11314465 0,3.57612718" id="Fill-193" fill="#FFE28D" mask="url(#mask-126)"></path>
                </g>
                <g id="Group-198" transform="translate(28.061618, 4.473250)">
                    <mask id="mask-128" fill="white">
                        <use xlink:href="#path-127"></use>
                    </mask>
                    <g id="Clip-197"></g>
                    <path d="M0,3.57612718 C0,4.65222688 0.874543685,5.52677056 1.95064338,5.52677056 C3.02669073,5.52677056 3.90123441,4.65222688 3.90123441,3.57612718 C3.90123441,2.11314465 1.95064338,0 1.95064338,0 C1.95064338,0 0,2.11314465 0,3.57612718" id="Fill-196" fill="#FFE28D" mask="url(#mask-128)"></path>
                </g>
                <g id="Group-201" transform="translate(37.415492, 4.473250)">
                    <mask id="mask-130" fill="white">
                        <use xlink:href="#path-129"></use>
                    </mask>
                    <g id="Clip-200"></g>
                    <path d="M0,3.57612718 C0,4.65222688 0.874543685,5.52677056 1.95064338,5.52677056 C3.02669073,5.52677056 3.90123441,4.65222688 3.90123441,3.57612718 C3.90123441,2.11314465 1.95064338,0 1.95064338,0 C1.95064338,0 0,2.11314465 0,3.57612718" id="Fill-199" fill="#FFE28D" mask="url(#mask-130)"></path>
                </g>
                <g id="Group-204" transform="translate(46.769366, 4.473250)">
                    <mask id="mask-132" fill="white">
                        <use xlink:href="#path-131"></use>
                    </mask>
                    <g id="Clip-203"></g>
                    <path d="M0,3.57612718 C0,4.65222688 0.874543685,5.52677056 1.95064338,5.52677056 C3.02674308,5.52677056 3.90123441,4.65222688 3.90123441,3.57612718 C3.90123441,2.11314465 1.95064338,0 1.95064338,0 C1.95064338,0 0,2.11314465 0,3.57612718" id="Fill-202" fill="#FFE28D" mask="url(#mask-132)"></path>
                </g>
                <g id="Group-207" transform="translate(56.123240, 4.473250)">
                    <mask id="mask-134" fill="white">
                        <use xlink:href="#path-133"></use>
                    </mask>
                    <g id="Clip-206"></g>
                    <path d="M0,3.57612718 C0,4.65222688 0.874543685,5.52677056 1.95064338,5.52677056 C3.02669073,5.52677056 3.90123441,4.65222688 3.90123441,3.57612718 C3.90123441,2.11314465 1.95064338,0 1.95064338,0 C1.95064338,0 0,2.11314465 0,3.57612718" id="Fill-205" fill="#FFE28D" mask="url(#mask-134)"></path>
                </g>
                <g id="Group-210" transform="translate(196.431338, 4.473250)">
                    <mask id="mask-136" fill="white">
                        <use xlink:href="#path-135"></use>
                    </mask>
                    <g id="Clip-209"></g>
                    <path d="M0,3.57612718 C0,4.65222688 0.874543685,5.52677056 1.95064338,5.52677056 C3.02669073,5.52677056 3.90123441,4.65222688 3.90123441,3.57612718 C3.90123441,2.11314465 1.95064338,0 1.95064338,0 C1.95064338,0 0,2.11314465 0,3.57612718" id="Fill-208" fill="#FFE28D" mask="url(#mask-136)"></path>
                </g>
                <g id="Group-213" transform="translate(205.785202, 4.473250)">
                    <mask id="mask-138" fill="white">
                        <use xlink:href="#path-137"></use>
                    </mask>
                    <g id="Clip-212"></g>
                    <path d="M0,3.57612718 C0,4.65222688 0.874543685,5.52677056 1.95064338,5.52677056 C3.02669073,5.52677056 3.90123441,4.65222688 3.90123441,3.57612718 C3.90123441,2.11314465 1.95064338,0 1.95064338,0 C1.95064338,0 0,2.11314465 0,3.57612718" id="Fill-211" fill="#FFE28D" mask="url(#mask-138)"></path>
                </g>
                <g id="Group-216" transform="translate(215.139087, 4.473250)">
                    <mask id="mask-140" fill="white">
                        <use xlink:href="#path-139"></use>
                    </mask>
                    <g id="Clip-215"></g>
                    <path d="M0,3.57612718 C0,4.65222688 0.874543685,5.52677056 1.95059103,5.52677056 C3.02669073,5.52677056 3.90123441,4.65222688 3.90123441,3.57612718 C3.90123441,2.11314465 1.95059103,0 1.95059103,0 C1.95059103,0 0,2.11314465 0,3.57612718" id="Fill-214" fill="#FFE28D" mask="url(#mask-140)"></path>
                </g>
                <g id="Group-219" transform="translate(224.492951, 4.473250)">
                    <mask id="mask-142" fill="white">
                        <use xlink:href="#path-141"></use>
                    </mask>
                    <g id="Clip-218"></g>
                    <path d="M0,3.57612718 C0,4.65222688 0.874543685,5.52677056 1.95064338,5.52677056 C3.02669073,5.52677056 3.90123441,4.65222688 3.90123441,3.57612718 C3.90123441,2.11314465 1.95064338,0 1.95064338,0 C1.95064338,0 0,2.11314465 0,3.57612718" id="Fill-217" fill="#FFE28D" mask="url(#mask-142)"></path>
                </g>
                <g id="Group-222" transform="translate(233.846820, 4.473250)">
                    <mask id="mask-144" fill="white">
                        <use xlink:href="#path-143"></use>
                    </mask>
                    <g id="Clip-221"></g>
                    <path d="M0,3.57612718 C0,4.65222688 0.874543685,5.52677056 1.95064338,5.52677056 C3.02669073,5.52677056 3.90128676,4.65222688 3.90128676,3.57612718 C3.90128676,2.11314465 1.95064338,0 1.95064338,0 C1.95064338,0 0,2.11314465 0,3.57612718" id="Fill-220" fill="#FFE28D" mask="url(#mask-144)"></path>
                </g>
                <g id="Group-225" transform="translate(243.200689, 4.473250)">
                    <mask id="mask-146" fill="white">
                        <use xlink:href="#path-145"></use>
                    </mask>
                    <g id="Clip-224"></g>
                    <path d="M0,3.57612718 C0,4.65222688 0.874543685,5.52677056 1.95064338,5.52677056 C3.02669073,5.52677056 3.90128676,4.65222688 3.90128676,3.57612718 C3.90128676,2.11314465 1.95064338,0 1.95064338,0 C1.95064338,0 0,2.11314465 0,3.57612718" id="Fill-223" fill="#FFE28D" mask="url(#mask-146)"></path>
                </g>
                <g id="Group-228" transform="translate(252.554584, 4.473250)">
                    <mask id="mask-148" fill="white">
                        <use xlink:href="#path-147"></use>
                    </mask>
                    <g id="Clip-227"></g>
                    <path d="M0,3.57612718 C0,4.65222688 0.874543685,5.52677056 1.95059103,5.52677056 C3.02669073,5.52677056 3.90123441,4.65222688 3.90123441,3.57612718 C3.90123441,2.11314465 1.95059103,0 1.95059103,0 C1.95059103,0 0,2.11314465 0,3.57612718" id="Fill-226" fill="#FFE28D" mask="url(#mask-148)"></path>
                </g>
                <g id="Group-231" transform="translate(130.954224, 4.473250)">
                    <mask id="mask-150" fill="white">
                        <use xlink:href="#path-149"></use>
                    </mask>
                    <g id="Clip-230"></g>
                    <path d="M0,3.57612718 C0,4.65222688 0.874543685,5.52677056 1.95064338,5.52677056 C3.02669073,5.52677056 3.90123441,4.65222688 3.90123441,3.57612718 C3.90123441,2.11314465 1.95064338,0 1.95064338,0 C1.95064338,0 0,2.11314465 0,3.57612718" id="Fill-229" fill="#FFE28D" mask="url(#mask-150)"></path>
                </g>
                <g id="Group-234" transform="translate(140.308093, 4.473250)">
                    <mask id="mask-152" fill="white">
                        <use xlink:href="#path-151"></use>
                    </mask>
                    <g id="Clip-233"></g>
                    <path d="M0,3.57612718 C0,4.65222688 0.874543685,5.52677056 1.95064338,5.52677056 C3.02669073,5.52677056 3.90123441,4.65222688 3.90123441,3.57612718 C3.90123441,2.11314465 1.95064338,0 1.95064338,0 C1.95064338,0 0,2.11314465 0,3.57612718" id="Fill-232" fill="#FFE28D" mask="url(#mask-152)"></path>
                </g>
                <g id="Group-237" transform="translate(149.661972, 4.473250)">
                    <mask id="mask-154" fill="white">
                        <use xlink:href="#path-153"></use>
                    </mask>
                    <g id="Clip-236"></g>
                    <path d="M0,3.57612718 C0,4.65222688 0.874543685,5.52677056 1.95064338,5.52677056 C3.02669073,5.52677056 3.90123441,4.65222688 3.90123441,3.57612718 C3.90123441,2.11314465 1.95064338,0 1.95064338,0 C1.95064338,0 0,2.11314465 0,3.57612718" id="Fill-235" fill="#FFE28D" mask="url(#mask-154)"></path>
                </g>
                <g id="Group-240" transform="translate(159.015841, 4.473250)">
                    <mask id="mask-156" fill="white">
                        <use xlink:href="#path-155"></use>
                    </mask>
                    <g id="Clip-239"></g>
                    <path d="M0,3.57612718 C0,4.65222688 0.874543685,5.52677056 1.95064338,5.52677056 C3.02669073,5.52677056 3.90123441,4.65222688 3.90123441,3.57612718 C3.90123441,2.11314465 1.95064338,0 1.95064338,0 C1.95064338,0 0,2.11314465 0,3.57612718" id="Fill-238" fill="#FFE28D" mask="url(#mask-156)"></path>
                </g>
                <g id="Group-243" transform="translate(168.369710, 4.473250)">
                    <mask id="mask-158" fill="white">
                        <use xlink:href="#path-157"></use>
                    </mask>
                    <g id="Clip-242"></g>
                    <path d="M0,3.57612718 C0,4.65222688 0.874543685,5.52677056 1.95064338,5.52677056 C3.02674308,5.52677056 3.90123441,4.65222688 3.90123441,3.57612718 C3.90123441,2.11314465 1.95064338,0 1.95064338,0 C1.95064338,0 0,2.11314465 0,3.57612718" id="Fill-241" fill="#FFE28D" mask="url(#mask-158)"></path>
                </g>
                <g id="Group-246" transform="translate(177.723590, 4.473250)">
                    <mask id="mask-160" fill="white">
                        <use xlink:href="#path-159"></use>
                    </mask>
                    <g id="Clip-245"></g>
                    <path d="M0,3.57612718 C0,4.65222688 0.874543685,5.52677056 1.95064338,5.52677056 C3.02669073,5.52677056 3.90123441,4.65222688 3.90123441,3.57612718 C3.90123441,2.11314465 1.95064338,0 1.95064338,0 C1.95064338,0 0,2.11314465 0,3.57612718" id="Fill-244" fill="#FFE28D" mask="url(#mask-160)"></path>
                </g>
                <g id="Group-249" transform="translate(187.077459, 4.473250)">
                    <mask id="mask-162" fill="white">
                        <use xlink:href="#path-161"></use>
                    </mask>
                    <g id="Clip-248"></g>
                    <path d="M0,3.57612718 C0,4.65222688 0.874543685,5.52677056 1.95064338,5.52677056 C3.02669073,5.52677056 3.90123441,4.65222688 3.90123441,3.57612718 C3.90123441,2.11314465 1.95064338,0 1.95064338,0 C1.95064338,0 0,2.11314465 0,3.57612718" id="Fill-247" fill="#FFE28D" mask="url(#mask-162)"></path>
                </g>
                <path d="M593.917584,1.95064338 C593.917584,0.874543685 594.792075,0 595.868227,0 C596.944275,0 597.818871,0.874543685 597.818871,1.95064338 C597.818871,3.41362592 595.868227,5.52677056 595.868227,5.52677056 C595.868227,5.52677056 593.917584,3.41362592 593.917584,1.95064338" id="Fill-252" fill="#FFE28D"></path>
                <path d="M603.271448,1.95064338 C603.271448,0.874543685 604.145991,0 605.222091,0 C606.298139,0 607.172735,0.874543685 607.172735,1.95064338 C607.172735,3.41362592 605.222091,5.52677056 605.222091,5.52677056 C605.222091,5.52677056 603.271448,3.41362592 603.271448,1.95064338" id="Fill-254" fill="#FFE28D"></path>
                <path d="M612.625317,1.95064338 C612.625317,0.874543685 613.49986,0 614.57596,0 C615.652008,0 616.526604,0.874543685 616.526604,1.95064338 C616.526604,3.41362592 614.57596,5.52677056 614.57596,5.52677056 C614.57596,5.52677056 612.625317,3.41362592 612.625317,1.95064338" id="Fill-256" fill="#FFE28D"></path>
                <path d="M621.979186,1.95064338 C621.979186,0.874543685 622.853729,0 623.929829,0 C625.005877,0 625.880473,0.874543685 625.880473,1.95064338 C625.880473,3.41362592 623.929829,5.52677056 623.929829,5.52677056 C623.929829,5.52677056 621.979186,3.41362592 621.979186,1.95064338" id="Fill-258" fill="#FFE28D"></path>
                <path d="M631.333055,1.95064338 C631.333055,0.874543685 632.207599,0 633.283698,0 C634.359746,0 635.234342,0.874543685 635.234342,1.95064338 C635.234342,3.41362592 633.283698,5.52677056 633.283698,5.52677056 C633.283698,5.52677056 631.333055,3.41362592 631.333055,1.95064338" id="Fill-260" fill="#FFE28D"></path>
                <path d="M640.686919,1.95064338 C640.686919,0.874543685 641.561462,0 642.637562,0 C643.713609,0 644.588205,0.874543685 644.588205,1.95064338 C644.588205,3.41362592 642.637562,5.52677056 642.637562,5.52677056 C642.637562,5.52677056 640.686919,3.41362592 640.686919,1.95064338" id="Fill-262" fill="#FFE28D"></path>
                <path d="M650.040788,1.95064338 C650.040788,0.874543685 650.915331,0 651.991431,0 C653.067478,0 653.942074,0.874543685 653.942074,1.95064338 C653.942074,3.41362592 651.991431,5.52677056 651.991431,5.52677056 C651.991431,5.52677056 650.040788,3.41362592 650.040788,1.95064338" id="Fill-264" fill="#FFE28D"></path>
                <path d="M528.440459,1.95064338 C528.440459,0.874543685 529.315003,0 530.391102,0 C531.46715,0 532.341746,0.874543685 532.341746,1.95064338 C532.341746,3.41362592 530.391102,5.52677056 530.391102,5.52677056 C530.391102,5.52677056 528.440459,3.41362592 528.440459,1.95064338" id="Fill-266" fill="#FFE28D"></path>
                <path d="M537.794323,1.95064338 C537.794323,0.874543685 538.668867,0 539.744966,0 C540.821014,0 541.69561,0.874543685 541.69561,1.95064338 C541.69561,3.41362592 539.744966,5.52677056 539.744966,5.52677056 C539.744966,5.52677056 537.794323,3.41362592 537.794323,1.95064338" id="Fill-268" fill="#FFE28D"></path>
                <path d="M547.148192,1.95064338 C547.148192,0.874543685 548.022736,0 549.098835,0 C550.174883,0 551.049479,0.874543685 551.049479,1.95064338 C551.049479,3.41362592 549.098835,5.52677056 549.098835,5.52677056 C549.098835,5.52677056 547.148192,3.41362592 547.148192,1.95064338" id="Fill-270" fill="#FFE28D"></path>
                <path d="M556.502061,1.95064338 C556.502061,0.874543685 557.376605,0 558.452704,0 C559.528752,0 560.403348,0.874543685 560.403348,1.95064338 C560.403348,3.41362592 558.452704,5.52677056 558.452704,5.52677056 C558.452704,5.52677056 556.502061,3.41362592 556.502061,1.95064338" id="Fill-272" fill="#FFE28D"></path>
                <path d="M565.855977,1.95064338 C565.855977,0.874543685 566.730468,0 567.806568,0 C568.882668,0 569.757211,0.874543685 569.757211,1.95064338 C569.757211,3.41362592 567.806568,5.52677056 567.806568,5.52677056 C567.806568,5.52677056 565.855977,3.41362592 565.855977,1.95064338" id="Fill-274" fill="#FFE28D"></path>
                <path d="M575.209846,1.95064338 C575.209846,0.874543685 576.084337,0 577.160437,0 C578.236537,0 579.11108,0.874543685 579.11108,1.95064338 C579.11108,3.41362592 577.160437,5.52677056 577.160437,5.52677056 C577.160437,5.52677056 575.209846,3.41362592 575.209846,1.95064338" id="Fill-276" fill="#FFE28D"></path>
                <path d="M584.563715,1.95064338 C584.563715,0.874543685 585.438206,0 586.514358,0 C587.590406,0 588.464949,0.874543685 588.464949,1.95064338 C588.464949,3.41362592 586.514358,5.52677056 586.514358,5.52677056 C586.514358,5.52677056 584.563715,3.41362592 584.563715,1.95064338" id="Fill-278" fill="#FFE28D"></path>
                <path d="M724.871782,1.95064338 C724.871782,0.874543685 725.746325,0 726.822425,0 C727.898472,0 728.773068,0.874543685 728.773068,1.95064338 C728.773068,3.41362592 726.822425,5.52677056 726.822425,5.52677056 C726.822425,5.52677056 724.871782,3.41362592 724.871782,1.95064338" id="Fill-280" fill="#FFE28D"></path>
                <path d="M734.225651,1.95064338 C734.225651,0.874543685 735.100194,0 736.176294,0 C737.252341,0 738.126937,0.874543685 738.126937,1.95064338 C738.126937,3.41362592 736.176294,5.52677056 736.176294,5.52677056 C736.176294,5.52677056 734.225651,3.41362592 734.225651,1.95064338" id="Fill-282" fill="#FFE28D"></path>
                <path d="M743.579567,1.95064338 C743.579567,0.874543685 744.454058,0 745.530158,0 C746.606257,0 747.480801,0.874543685 747.480801,1.95064338 C747.480801,3.41362592 745.530158,5.52677056 745.530158,5.52677056 C745.530158,5.52677056 743.579567,3.41362592 743.579567,1.95064338" id="Fill-284" fill="#FFE28D"></path>
                <path d="M659.394709,1.95064338 C659.394709,0.874543685 660.2692,0 661.3453,0 C662.4214,0 663.295943,0.874543685 663.295943,1.95064338 C663.295943,3.41362592 661.3453,5.52677056 661.3453,5.52677056 C661.3453,5.52677056 659.394709,3.41362592 659.394709,1.95064338" id="Fill-295" fill="#FFE28D"></path>
                <path d="M668.748573,1.95064338 C668.748573,0.874543685 669.623064,0 670.699216,0 C671.775263,0 672.649807,0.874543685 672.649807,1.95064338 C672.649807,3.41362592 670.699216,5.52677056 670.699216,5.52677056 C670.699216,5.52677056 668.748573,3.41362592 668.748573,1.95064338" id="Fill-297" fill="#FFE28D"></path>
                <path d="M678.102442,1.95064338 C678.102442,0.874543685 678.976933,0 680.053085,0 C681.129132,0 682.003676,0.874543685 682.003676,1.95064338 C682.003676,3.41362592 680.053085,5.52677056 680.053085,5.52677056 C680.053085,5.52677056 678.102442,3.41362592 678.102442,1.95064338" id="Fill-299" fill="#FFE28D"></path>
                <path d="M687.456311,1.95064338 C687.456311,0.874543685 688.330854,0 689.406954,0 C690.483001,0 691.357598,0.874543685 691.357598,1.95064338 C691.357598,3.41362592 689.406954,5.52677056 689.406954,5.52677056 C689.406954,5.52677056 687.456311,3.41362592 687.456311,1.95064338" id="Fill-301" fill="#FFE28D"></path>
                <path d="M696.81018,1.95064338 C696.81018,0.874543685 697.684723,0 698.760823,0 C699.836871,0 700.711467,0.874543685 700.711467,1.95064338 C700.711467,3.41362592 698.760823,5.52677056 698.760823,5.52677056 C698.760823,5.52677056 696.81018,3.41362592 696.81018,1.95064338" id="Fill-303" fill="#FFE28D"></path>
                <path d="M706.164044,1.95064338 C706.164044,0.874543685 707.038587,0 708.114687,0 C709.190734,0 710.06533,0.874543685 710.06533,1.95064338 C710.06533,3.41362592 708.114687,5.52677056 708.114687,5.52677056 C708.114687,5.52677056 706.164044,3.41362592 706.164044,1.95064338" id="Fill-305" fill="#FFE28D"></path>
                <path d="M715.517913,1.95064338 C715.517913,0.874543685 716.392456,0 717.468556,0 C718.544603,0 719.419199,0.874543685 719.419199,1.95064338 C719.419199,3.41362592 717.468556,5.52677056 717.468556,5.52677056 C717.468556,5.52677056 715.517913,3.41362592 715.517913,1.95064338" id="Fill-307" fill="#FFE28D"></path>
                <path d="M332.009131,1.95064338 C332.009131,0.874543685 332.883675,0 333.959775,0 C335.035822,0 335.910366,0.874543685 335.910366,1.95064338 C335.910366,3.41362592 333.959775,5.52677056 333.959775,5.52677056 C333.959775,5.52677056 332.009131,3.41362592 332.009131,1.95064338" id="Fill-309" fill="#FFE28D"></path>
                <path d="M341.363,1.95064338 C341.363,0.874543685 342.237544,0 343.313644,0 C344.389691,0 345.264235,0.874543685 345.264235,1.95064338 C345.264235,3.41362592 343.313644,5.52677056 343.313644,5.52677056 C343.313644,5.52677056 341.363,3.41362592 341.363,1.95064338" id="Fill-311" fill="#FFE28D"></path>
                <path d="M350.716869,1.95064338 C350.716869,0.874543685 351.591413,0 352.667513,0 C353.74356,0 354.618156,0.874543685 354.618156,1.95064338 C354.618156,3.41362592 352.667513,5.52677056 352.667513,5.52677056 C352.667513,5.52677056 350.716869,3.41362592 350.716869,1.95064338" id="Fill-313" fill="#FFE28D"></path>
                <path d="M360.070764,1.95064338 C360.070764,0.874543685 360.945308,0 362.021356,0 C363.097455,0 363.971999,0.874543685 363.971999,1.95064338 C363.971999,3.41362592 362.021356,5.52677056 362.021356,5.52677056 C362.021356,5.52677056 360.070764,3.41362592 360.070764,1.95064338" id="Fill-315" fill="#FFE28D"></path>
                <path d="M369.424628,1.95064338 C369.424628,0.874543685 370.299172,0 371.375219,0 C372.451319,0 373.325863,0.874543685 373.325863,1.95064338 C373.325863,3.41362592 371.375219,5.52677056 371.375219,5.52677056 C371.375219,5.52677056 369.424628,3.41362592 369.424628,1.95064338" id="Fill-317" fill="#FFE28D"></path>
                <path d="M378.778497,1.95064338 C378.778497,0.874543685 379.653041,0 380.729141,0 C381.805188,0 382.679732,0.874543685 382.679732,1.95064338 C382.679732,3.41362592 380.729141,5.52677056 380.729141,5.52677056 C380.729141,5.52677056 378.778497,3.41362592 378.778497,1.95064338" id="Fill-319" fill="#FFE28D"></path>
                <path d="M388.132366,1.95064338 C388.132366,0.874543685 389.00691,0 390.08301,0 C391.159057,0 392.033601,0.874543685 392.033601,1.95064338 C392.033601,3.41362592 390.08301,5.52677056 390.08301,5.52677056 C390.08301,5.52677056 388.132366,3.41362592 388.132366,1.95064338" id="Fill-321" fill="#FFE28D"></path>
                <path d="M266.532006,1.95064338 C266.532006,0.874543685 267.40655,0 268.48265,0 C269.558697,0 270.433293,0.874543685 270.433293,1.95064338 C270.433293,3.41362592 268.48265,5.52677056 268.48265,5.52677056 C268.48265,5.52677056 266.532006,3.41362592 266.532006,1.95064338" id="Fill-323" fill="#FFE28D"></path>
                <path d="M275.885901,1.95064338 C275.885901,0.874543685 276.760445,0 277.836493,0 C278.912592,0 279.787136,0.874543685 279.787136,1.95064338 C279.787136,3.41362592 277.836493,5.52677056 277.836493,5.52677056 C277.836493,5.52677056 275.885901,3.41362592 275.885901,1.95064338" id="Fill-325" fill="#FFE28D"></path>
                <path d="M285.239771,1.95064338 C285.239771,0.874543685 286.114314,0 287.190414,0 C288.266461,0 289.141005,0.874543685 289.141005,1.95064338 C289.141005,3.41362592 287.190414,5.52677056 287.190414,5.52677056 C287.190414,5.52677056 285.239771,3.41362592 285.239771,1.95064338" id="Fill-327" fill="#FFE28D"></path>
                <path d="M294.593634,1.95064338 C294.593634,0.874543685 295.468178,0 296.544278,0 C297.620325,0 298.494869,0.874543685 298.494869,1.95064338 C298.494869,3.41362592 296.544278,5.52677056 296.544278,5.52677056 C296.544278,5.52677056 294.593634,3.41362592 294.593634,1.95064338" id="Fill-329" fill="#FFE28D"></path>
                <path d="M303.947503,1.95064338 C303.947503,0.874543685 304.822047,0 305.898147,0 C306.974194,0 307.84879,0.874543685 307.84879,1.95064338 C307.84879,3.41362592 305.898147,5.52677056 305.898147,5.52677056 C305.898147,5.52677056 303.947503,3.41362592 303.947503,1.95064338" id="Fill-331" fill="#FFE28D"></path>
                <path d="M313.301372,1.95064338 C313.301372,0.874543685 314.175916,0 315.252016,0 C316.328115,0 317.202659,0.874543685 317.202659,1.95064338 C317.202659,3.41362592 315.252016,5.52677056 315.252016,5.52677056 C315.252016,5.52677056 313.301372,3.41362592 313.301372,1.95064338" id="Fill-333" fill="#FFE28D"></path>
                <path d="M322.655267,1.95064338 C322.655267,0.874543685 323.529811,0 324.605859,0 C325.681958,0 326.556502,0.874543685 326.556502,1.95064338 C326.556502,3.41362592 324.605859,5.52677056 324.605859,5.52677056 C324.605859,5.52677056 322.655267,3.41362592 322.655267,1.95064338" id="Fill-335" fill="#FFE28D"></path>
                <path d="M462.963334,1.95064338 C462.963334,0.874543685 463.837878,0 464.913977,0 C465.990025,0 466.864621,0.874543685 466.864621,1.95064338 C466.864621,3.41362592 464.913977,5.52677056 464.913977,5.52677056 C464.913977,5.52677056 462.963334,3.41362592 462.963334,1.95064338" id="Fill-337" fill="#FFE28D"></path>
                <path d="M472.31725,1.95064338 C472.31725,0.874543685 473.191742,0 474.267841,0 C475.343941,0 476.218485,0.874543685 476.218485,1.95064338 C476.218485,3.41362592 474.267841,5.52677056 474.267841,5.52677056 C474.267841,5.52677056 472.31725,3.41362592 472.31725,1.95064338" id="Fill-339" fill="#FFE28D"></path>
                <path d="M481.671119,1.95064338 C481.671119,0.874543685 482.545611,0 483.62171,0 C484.69781,0 485.572354,0.874543685 485.572354,1.95064338 C485.572354,3.41362592 483.62171,5.52677056 483.62171,5.52677056 C483.62171,5.52677056 481.671119,3.41362592 481.671119,1.95064338" id="Fill-341" fill="#FFE28D"></path>
                <path d="M491.024988,1.95064338 C491.024988,0.874543685 491.89948,0 492.975632,0 C494.051679,0 494.926223,0.874543685 494.926223,1.95064338 C494.926223,3.41362592 492.975632,5.52677056 492.975632,5.52677056 C492.975632,5.52677056 491.024988,3.41362592 491.024988,1.95064338" id="Fill-343" fill="#FFE28D"></path>
                <path d="M500.378852,1.95064338 C500.378852,0.874543685 501.253343,0 502.329495,0 C503.405543,0 504.280086,0.874543685 504.280086,1.95064338 C504.280086,3.41362592 502.329495,5.52677056 502.329495,5.52677056 C502.329495,5.52677056 500.378852,3.41362592 500.378852,1.95064338" id="Fill-345" fill="#FFE28D"></path>
                <path d="M509.732721,1.95064338 C509.732721,0.874543685 510.607265,0 511.683364,0 C512.759412,0 513.634008,0.874543685 513.634008,1.95064338 C513.634008,3.41362592 511.683364,5.52677056 511.683364,5.52677056 C511.683364,5.52677056 509.732721,3.41362592 509.732721,1.95064338" id="Fill-347" fill="#FFE28D"></path>
                <path d="M519.08659,1.95064338 C519.08659,0.874543685 519.961134,0 521.037233,0 C522.113281,0 522.987877,0.874543685 522.987877,1.95064338 C522.987877,3.41362592 521.037233,5.52677056 521.037233,5.52677056 C521.037233,5.52677056 519.08659,3.41362592 519.08659,1.95064338" id="Fill-349" fill="#FFE28D"></path>
                <path d="M397.486235,1.95064338 C397.486235,0.874543685 398.360779,0 399.436879,0 C400.512926,0 401.387522,0.874543685 401.387522,1.95064338 C401.387522,3.41362592 399.436879,5.52677056 399.436879,5.52677056 C399.436879,5.52677056 397.486235,3.41362592 397.486235,1.95064338" id="Fill-351" fill="#FFE28D"></path>
                <path d="M406.840125,1.95064338 C406.840125,0.874543685 407.714669,0 408.790716,0 C409.866816,0 410.74136,0.874543685 410.74136,1.95064338 C410.74136,3.41362592 408.790716,5.52677056 408.790716,5.52677056 C408.790716,5.52677056 406.840125,3.41362592 406.840125,1.95064338" id="Fill-353" fill="#FFE28D"></path>
                <path d="M416.193994,1.95064338 C416.193994,0.874543685 417.068538,0 418.144585,0 C419.220685,0 420.095229,0.874543685 420.095229,1.95064338 C420.095229,3.41362592 418.144585,5.52677056 418.144585,5.52677056 C418.144585,5.52677056 416.193994,3.41362592 416.193994,1.95064338" id="Fill-355" fill="#FFE28D"></path>
                <path d="M425.547863,1.95064338 C425.547863,0.874543685 426.422407,0 427.498507,0 C428.574554,0 429.44915,0.874543685 429.44915,1.95064338 C429.44915,3.41362592 427.498507,5.52677056 427.498507,5.52677056 C427.498507,5.52677056 425.547863,3.41362592 425.547863,1.95064338" id="Fill-357" fill="#FFE28D"></path>
                <path d="M434.901727,1.95064338 C434.901727,0.874543685 435.776271,0 436.85237,0 C437.928418,0 438.803014,0.874543685 438.803014,1.95064338 C438.803014,3.41362592 436.85237,5.52677056 436.85237,5.52677056 C436.85237,5.52677056 434.901727,3.41362592 434.901727,1.95064338" id="Fill-359" fill="#FFE28D"></path>
                <path d="M444.255596,1.95064338 C444.255596,0.874543685 445.13014,0 446.206239,0 C447.282287,0 448.156883,0.874543685 448.156883,1.95064338 C448.156883,3.41362592 446.206239,5.52677056 446.206239,5.52677056 C446.206239,5.52677056 444.255596,3.41362592 444.255596,1.95064338" id="Fill-361" fill="#FFE28D"></path>
                <path d="M453.609465,1.95064338 C453.609465,0.874543685 454.484009,0 455.560108,0 C456.636156,0 457.510752,0.874543685 457.510752,1.95064338 C457.510752,3.41362592 455.560108,5.52677056 455.560108,5.52677056 C455.560108,5.52677056 453.609465,3.41362592 453.609465,1.95064338" id="Fill-363" fill="#FFE28D"></path>
                <path d="M70.1006838,1.95064338 C70.1006838,0.874543685 70.9752275,0 72.0513272,0 C73.1273745,0 74.0019182,0.874543685 74.0019182,1.95064338 C74.0019182,3.41362592 72.0513272,5.52677056 72.0513272,5.52677056 C72.0513272,5.52677056 70.1006838,3.41362592 70.1006838,1.95064338" id="Fill-365" fill="#FFE28D"></path>
                <path d="M79.454558,1.95064338 C79.454558,0.874543685 80.3291017,0 81.4052014,0 C82.4812487,0 83.3557924,0.874543685 83.3557924,1.95064338 C83.3557924,3.41362592 81.4052014,5.52677056 81.4052014,5.52677056 C81.4052014,5.52677056 79.454558,3.41362592 79.454558,1.95064338" id="Fill-367" fill="#FFE28D"></path>
                <path d="M88.8084323,1.95064338 C88.8084323,0.874543685 89.682976,0 90.7590756,0 C91.835123,0 92.7096667,0.874543685 92.7096667,1.95064338 C92.7096667,3.41362592 90.7590756,5.52677056 90.7590756,5.52677056 C90.7590756,5.52677056 88.8084323,3.41362592 88.8084323,1.95064338" id="Fill-369" fill="#FFE28D"></path>
                <path d="M98.1623065,1.95064338 C98.1623065,0.874543685 99.0368502,0 100.11295,0 C101.188997,0 102.063541,0.874543685 102.063541,1.95064338 C102.063541,3.41362592 100.11295,5.52677056 100.11295,5.52677056 C100.11295,5.52677056 98.1623065,3.41362592 98.1623065,1.95064338" id="Fill-371" fill="#FFE28D"></path>
                <path d="M107.516181,1.95064338 C107.516181,0.874543685 108.390724,0 109.466824,0 C110.542871,0 111.417415,0.874543685 111.417415,1.95064338 C111.417415,3.41362592 109.466824,5.52677056 109.466824,5.52677056 C109.466824,5.52677056 107.516181,3.41362592 107.516181,1.95064338" id="Fill-373" fill="#FFE28D"></path>
                <path d="M116.87005,1.95064338 C116.87005,0.874543685 117.744593,0 118.820693,0 C119.89674,0 120.771284,0.874543685 120.771284,1.95064338 C120.771284,3.41362592 118.820693,5.52677056 118.820693,5.52677056 C118.820693,5.52677056 116.87005,3.41362592 116.87005,1.95064338" id="Fill-375" fill="#FFE28D"></path>
                <path d="M126.223929,1.95064338 C126.223929,0.874543685 127.098473,0 128.174573,0 C129.25062,0 130.125164,0.874543685 130.125164,1.95064338 C130.125164,3.41362592 128.174573,5.52677056 128.174573,5.52677056 C128.174573,5.52677056 126.223929,3.41362592 126.223929,1.95064338" id="Fill-377" fill="#FFE28D"></path>
                <path d="M4.62357451,1.95064338 C4.62357451,0.874543685 5.4981182,0 6.5742179,0 C7.65026524,0 8.52480893,0.874543685 8.52480893,1.95064338 C8.52480893,3.41362592 6.5742179,5.52677056 6.5742179,5.52677056 C6.5742179,5.52677056 4.62357451,3.41362592 4.62357451,1.95064338" id="Fill-379" fill="#FFE28D"></path>
                <path d="M13.9774488,1.95064338 C13.9774488,0.874543685 14.8519924,0 15.9280921,0 C17.0041395,0 17.8786832,0.874543685 17.8786832,1.95064338 C17.8786832,3.41362592 15.9280921,5.52677056 15.9280921,5.52677056 C15.9280921,5.52677056 13.9774488,3.41362592 13.9774488,1.95064338" id="Fill-381" fill="#FFE28D"></path>
                <path d="M23.3313178,1.95064338 C23.3313178,0.874543685 24.2058615,0 25.2819612,0 C26.3580085,0 27.2325522,0.874543685 27.2325522,1.95064338 C27.2325522,3.41362592 25.2819612,5.52677056 25.2819612,5.52677056 C25.2819612,5.52677056 23.3313178,3.41362592 23.3313178,1.95064338" id="Fill-383" fill="#FFE28D"></path>
                <path d="M32.685192,1.95064338 C32.685192,0.874543685 33.5597357,0 34.6358354,0 C35.7118827,0 36.5864264,0.874543685 36.5864264,1.95064338 C36.5864264,3.41362592 34.6358354,5.52677056 34.6358354,5.52677056 C34.6358354,5.52677056 32.685192,3.41362592 32.685192,1.95064338" id="Fill-385" fill="#FFE28D"></path>
                <path d="M42.0390663,1.95064338 C42.0390663,0.874543685 42.91361,0 43.9897096,0 C45.065757,0 45.9403007,0.874543685 45.9403007,1.95064338 C45.9403007,3.41362592 43.9897096,5.52677056 43.9897096,5.52677056 C43.9897096,5.52677056 42.0390663,3.41362592 42.0390663,1.95064338" id="Fill-387" fill="#FFE28D"></path>
                <path d="M51.3929405,1.95064338 C51.3929405,0.874543685 52.2674842,0 53.3435839,0 C54.4196836,0 55.2941749,0.874543685 55.2941749,1.95064338 C55.2941749,3.41362592 53.3435839,5.52677056 53.3435839,5.52677056 C53.3435839,5.52677056 51.3929405,3.41362592 51.3929405,1.95064338" id="Fill-389" fill="#FFE28D"></path>
                <path d="M60.7468095,1.95064338 C60.7468095,0.874543685 61.6213532,0 62.6974529,0 C63.7735526,0 64.6480439,0.874543685 64.6480439,1.95064338 C64.6480439,3.41362592 62.6974529,5.52677056 62.6974529,5.52677056 C62.6974529,5.52677056 60.7468095,3.41362592 60.7468095,1.95064338" id="Fill-391" fill="#FFE28D"></path>
                <path d="M201.054908,1.95064338 C201.054908,0.874543685 201.929451,0 203.005551,0 C204.081598,0 204.956142,0.874543685 204.956142,1.95064338 C204.956142,3.41362592 203.005551,5.52677056 203.005551,5.52677056 C203.005551,5.52677056 201.054908,3.41362592 201.054908,1.95064338" id="Fill-393" fill="#FFE28D"></path>
                <path d="M210.408777,1.95064338 C210.408777,0.874543685 211.28332,0 212.35942,0 C213.435467,0 214.310011,0.874543685 214.310011,1.95064338 C214.310011,3.41362592 212.35942,5.52677056 212.35942,5.52677056 C212.35942,5.52677056 210.408777,3.41362592 210.408777,1.95064338" id="Fill-395" fill="#FFE28D"></path>
                <path d="M219.762646,1.95064338 C219.762646,0.874543685 220.637189,0 221.713289,0 C222.789336,0 223.663932,0.874543685 223.663932,1.95064338 C223.663932,3.41362592 221.713289,5.52677056 221.713289,5.52677056 C221.713289,5.52677056 219.762646,3.41362592 219.762646,1.95064338" id="Fill-397" fill="#FFE28D"></path>
                <path d="M229.116535,1.95064338 C229.116535,0.874543685 229.991079,0 231.067127,0 C232.143226,0 233.01777,0.874543685 233.01777,1.95064338 C233.01777,3.41362592 231.067127,5.52677056 231.067127,5.52677056 C231.067127,5.52677056 229.116535,3.41362592 229.116535,1.95064338" id="Fill-399" fill="#FFE28D"></path>
                <path d="M238.470405,1.95064338 C238.470405,0.874543685 239.344948,0 240.420996,0 C241.497095,0 242.371639,0.874543685 242.371639,1.95064338 C242.371639,3.41362592 240.420996,5.52677056 240.420996,5.52677056 C240.420996,5.52677056 238.470405,3.41362592 238.470405,1.95064338" id="Fill-401" fill="#FFE28D"></path>
                <path d="M247.824274,1.95064338 C247.824274,0.874543685 248.698817,0 249.774917,0 C250.850964,0 251.725508,0.874543685 251.725508,1.95064338 C251.725508,3.41362592 249.774917,5.52677056 249.774917,5.52677056 C249.774917,5.52677056 247.824274,3.41362592 247.824274,1.95064338" id="Fill-403" fill="#FFE28D"></path>
                <path d="M257.178143,1.95064338 C257.178143,0.874543685 258.052686,0 259.128786,0 C260.204833,0 261.079429,0.874543685 261.079429,1.95064338 C261.079429,3.41362592 259.128786,5.52677056 259.128786,5.52677056 C259.128786,5.52677056 257.178143,3.41362592 257.178143,1.95064338" id="Fill-405" fill="#FFE28D"></path>
                <path d="M135.577798,1.95064338 C135.577798,0.874543685 136.452342,0 137.528442,0 C138.604489,0 139.479033,0.874543685 139.479033,1.95064338 C139.479033,3.41362592 137.528442,5.52677056 137.528442,5.52677056 C137.528442,5.52677056 135.577798,3.41362592 135.577798,1.95064338" id="Fill-407" fill="#FFE28D"></path>
                <path d="M144.931662,1.95064338 C144.931662,0.874543685 145.806206,0 146.882305,0 C147.958405,0 148.832896,0.874543685 148.832896,1.95064338 C148.832896,3.41362592 146.882305,5.52677056 146.882305,5.52677056 C146.882305,5.52677056 144.931662,3.41362592 144.931662,1.95064338" id="Fill-409" fill="#FFE28D"></path>
                <path d="M154.285547,1.95064338 C154.285547,0.874543685 155.16009,0 156.23619,0 C157.312237,0 158.186781,0.874543685 158.186781,1.95064338 C158.186781,3.41362592 156.23619,5.52677056 156.23619,5.52677056 C156.23619,5.52677056 154.285547,3.41362592 154.285547,1.95064338" id="Fill-411" fill="#FFE28D"></path>
                <path d="M163.639411,1.95064338 C163.639411,0.874543685 164.513954,0 165.590054,0 C166.666101,0 167.540645,0.874543685 167.540645,1.95064338 C167.540645,3.41362592 165.590054,5.52677056 165.590054,5.52677056 C165.590054,5.52677056 163.639411,3.41362592 163.639411,1.95064338" id="Fill-413" fill="#FFE28D"></path>
                <path d="M172.993295,1.95064338 C172.993295,0.874543685 173.867839,0 174.943939,0 C176.019986,0 176.89453,0.874543685 176.89453,1.95064338 C176.89453,3.41362592 174.943939,5.52677056 174.943939,5.52677056 C174.943939,5.52677056 172.993295,3.41362592 172.993295,1.95064338" id="Fill-415" fill="#FFE28D"></path>
                <path d="M182.347159,1.95064338 C182.347159,0.874543685 183.221703,0 184.297802,0 C185.37385,0 186.248393,0.874543685 186.248393,1.95064338 C186.248393,3.41362592 184.297802,5.52677056 184.297802,5.52677056 C184.297802,5.52677056 182.347159,3.41362592 182.347159,1.95064338" id="Fill-417" fill="#FFE28D"></path>
                <path d="M191.701039,1.95064338 C191.701039,0.874543685 192.575582,0 193.651682,0 C194.727729,0 195.602273,0.874543685 195.602273,1.95064338 C195.602273,3.41362592 193.651682,5.52677056 193.651682,5.52677056 C193.651682,5.52677056 191.701039,3.41362592 191.701039,1.95064338" id="Fill-419" fill="#FFE28D"></path>
            </g>
        </g>
    </g>
</svg>