<?xml version="1.0" encoding="UTF-8"?>
<svg width="38px" height="39px" viewBox="0 0 38 39" version="1.1" xmlns="http://www.w3.org/2000/svg" xmlns:xlink="http://www.w3.org/1999/xlink">
    <title>icon-microscope</title>
    <defs>
        <polygon id="path-1" points="0 0 23 0 23 26 0 26"></polygon>
    </defs>
    <g id="Web-Pages" stroke="none" stroke-width="1" fill="none" fill-rule="evenodd">
        <g id="Conf-mktg-page-design" transform="translate(-871.000000, -1326.000000)">
            <g id="icon-microscope" transform="translate(871.000000, 1326.270519)">
                <circle id="Oval" fill="#FFFFFF" cx="19" cy="19" r="19"></circle>
                <g id="Group-6" transform="translate(9.000000, 5.729481)">
                    <g id="Group-3">
                        <mask id="mask-2" fill="white">
                            <use xlink:href="#path-1"></use>
                        </mask>
                        <g id="Clip-2"></g>
                        <path d="M21.2392363,2.99033316 L21.2392363,2.99033316 C21.3372036,2.88028476 21.5111996,2.88028476 21.6197579,2.99033316 C21.9352202,3.2979337 22.4575864,3.28685244 22.7730487,2.96817063 C23.0775417,2.63878968 23.0775417,2.13325488 22.7620794,1.81457307 L21.2108673,0.254407843 C20.8954051,-0.0753552222 20.3734171,-0.0864364839 20.0469855,0.232245319 C19.7209321,0.539845861 19.7099628,1.06754319 20.0254251,1.39692414 L20.0360162,1.4080054 C20.1339835,1.50697253 20.1339835,1.68274427 20.0360162,1.79241055 L18.8286353,3.00141442 C18.763576,3.05643861 18.6656087,3.08930029 18.5786107,3.07821903 C18.0456534,2.97925189 17.5126961,3.14432448 17.1317962,3.52872963 L15.2719304,5.39687752 C15.1959017,5.46260086 15.0869651,5.49584465 14.9780285,5.45190171 L14.9780285,5.44082045 C14.7934414,5.37471499 14.6190672,5.34185332 14.4344801,5.34185332 C13.9991119,5.33077206 13.5860606,5.5065438 13.2811894,5.8252256 L8.65856988,10.484323 C8.01667599,11.1216866 8.01667599,12.1656179 8.65856988,12.8140627 L10.1920041,14.3635288 L10.1908693,14.3635288 C10.8217939,15.0005103 11.8551788,15.0005103 12.4970727,14.3635288 L13.1824655,13.6600598 C13.2800546,13.5500114 13.4544288,13.5500114 13.5629872,13.6489785 C13.5739565,13.6600598 13.5955169,13.6822223 13.6064862,13.7040027 C14.6724007,15.6378739 14.3463474,18.0444183 12.8015656,19.6278924 C10.8872315,21.5510645 7.78707693,21.5510645 5.87274282,19.6278924 C5.82924382,19.5839494 5.82924382,19.517844 5.86177351,19.4849823 C5.87274282,19.4632019 5.90527251,19.4521206 5.92721113,19.4521206 L6.3622011,19.4521206 C6.80816038,19.4521206 7.17809098,19.0784146 7.17809098,18.627904 C7.17809098,18.1663122 6.80816038,17.8036874 6.3622011,17.8036874 L0.815889879,17.8036874 C0.358961287,17.8036874 0,18.1663122 0,18.627904 C0,19.0784146 0.358961287,19.4521206 0.815889879,19.4521206 L1.68586982,19.4521206 C1.78383712,19.4410394 1.88180443,19.5071448 1.92530342,19.606112 L1.92530342,19.6049656 C2.643226,21.1540496 3.82866822,22.4509393 5.30801237,23.2969364 C5.4279183,23.3630418 5.48238661,23.5388136 5.40597967,23.6706424 C5.35151136,23.747447 5.26451337,23.8024712 5.16692432,23.8024712 L3.56767424,23.8024712 C2.95868829,23.8024712 2.48019932,24.2858434 2.48019932,24.9014266 C2.48019932,25.5055465 2.95868829,26 3.56767424,26 L15.5329244,26 C16.1313193,26 16.6207776,25.5055465 16.6207776,24.9014266 C16.6207776,24.2858434 16.1313193,23.8024712 15.5329244,23.8024712 L13.4445943,23.8024712 C13.2921587,23.7913899 13.172631,23.6706424 13.172631,23.516651 C13.172631,23.4176839 13.21613,23.3190989 13.303128,23.2747738 C17.2187942,21.0333021 18.6111403,16.0115799 16.4032826,12.0448703 C16.2292866,11.7372698 16.0443213,11.4514497 15.8483867,11.1767108 C15.7613887,11.0666624 15.772358,10.9130532 15.8703253,10.8140861 L17.0342072,9.62724472 C17.4691971,9.17673411 17.6212545,8.50650883 17.4147288,7.9020069 C17.3712298,7.79234062 17.4037595,7.68229222 17.4691971,7.61656888 L19.3290629,5.72664058 C19.6335559,5.40795878 19.8079301,4.99030984 19.8079301,4.55049839 C19.8079301,4.45191337 19.7969608,4.35294624 19.7750222,4.25397911 C19.7534618,4.15501198 19.7859915,4.06712611 19.8514291,4.01210191 L21.2392363,2.99033316 Z" id="Fill-1" fill="#165885" mask="url(#mask-2)"></path>
                    </g>
                    <path d="M6.84333783,13.1286942 C6.84333783,14.932265 5.38252804,16.4079834 3.59717791,16.4079834 C1.81144953,16.4079834 0.350261487,14.932265 0.350261487,13.1286942 C0.350261487,11.3251233 3.59717791,6.56935143 3.59717791,6.56935143 C3.59717791,6.56935143 6.84333783,11.3251233 6.84333783,13.1286942" id="Fill-4" fill="#4B9BD2"></path>
                </g>
            </g>
        </g>
    </g>
</svg>