<?xml version="1.0" encoding="UTF-8"?>
<svg width="19px" height="16px" viewBox="0 0 19 16" version="1.1" xmlns="http://www.w3.org/2000/svg" xmlns:xlink="http://www.w3.org/1999/xlink">
    <title>icon-twitter</title>
    <g id="Web-Pages" stroke="none" stroke-width="1" fill="none" fill-rule="evenodd">
        <g id="About-&gt;-Our-team-FOCUS" transform="translate(-257.000000, -730.000000)" fill="#151515">
            <g id="Group-6" transform="translate(248.642857, 483.567541)">
                <g id="Group-4" transform="translate(0.986356, 237.759281)">
                    <path d="M25.8003145,11.2494283 C25.1311779,11.5475331 24.4159821,11.7462697 23.6675214,11.8324173 C24.4355999,11.3752379 25.0254125,10.646395 25.3034731,9.77894821 C24.5814537,10.2028627 23.7865074,10.5141882 22.9386785,10.6796599 C22.2631447,9.95764054 21.2959032,9.5072847 20.2292934,9.5072847 C18.1762508,9.5072847 16.5134312,11.1696777 16.5134312,13.2231468 C16.5134312,13.5148546 16.5462697,13.7997388 16.6127995,14.0714023 C13.519162,13.9123277 10.783762,12.4350241 8.94864728,10.189642 C8.63049817,10.7393662 8.44540875,11.3752379 8.44540875,12.0575952 C8.44540875,13.3493829 9.10089826,14.4820961 10.1009782,15.1508063 C9.4919743,15.1311885 8.92220593,14.9652904 8.41854093,14.6872298 L8.41854093,14.7337154 C8.41854093,16.5355652 9.69710798,18.0324866 11.3995895,18.3766506 C11.088264,18.4632247 10.7568942,18.5092838 10.4191273,18.5092838 C10.1807287,18.5092838 9.94915372,18.4828424 9.71715222,18.4431804 C10.1875523,19.920484 11.5650612,20.993491 13.1882187,21.0263294 C11.9160487,22.0200123 10.3133619,22.616222 8.57121838,22.616222 C8.27311352,22.616222 7.97500866,22.5961777 7.68372738,22.5633393 C9.32607618,23.6167284 11.280177,24.2325559 13.3801317,24.2325559 C20.2160727,24.2325559 23.9524056,18.5689901 23.9524056,13.6607085 C23.9524056,13.5016339 23.945582,13.3361623 23.9387584,13.1770877 C24.6739985,12.6469814 25.3034731,11.9914919 25.8003145,11.2494283" id="icon-twitter"></path>
                </g>
            </g>
        </g>
    </g>
</svg>