<?xml version="1.0" encoding="UTF-8"?>
<svg width="17px" height="17px" viewBox="0 0 17 17" version="1.1" xmlns="http://www.w3.org/2000/svg" xmlns:xlink="http://www.w3.org/1999/xlink">
    <title>icon-linkedin</title>
    <g id="Web-Pages" stroke="none" stroke-width="1" fill="none" fill-rule="evenodd">
        <g id="About-&gt;-Our-team-FOCUS" transform="translate(-298.000000, -728.000000)" fill="#151515">
            <g id="Group-6" transform="translate(248.642857, 483.567541)">
                <g id="Group-3" transform="translate(41.580496, 237.759281)">
                    <g id="icon-linkedin" transform="translate(8.622011, 7.512370)">
                        <path d="M1.87648266,0 C2.90513634,0 3.75253885,0.847402511 3.75253885,1.87648266 C3.75253885,2.90513634 2.90513634,3.75253885 1.87648266,3.75253885 C0.847402511,3.75253885 0,2.90513634 0,1.87648266 C0,0.847402511 0.847402511,0 1.87648266,0 L1.87648266,0 Z M0.242236853,15.5556148 L3.44974278,15.5556148 L3.44974278,5.14497428 L0.242236853,5.14497428 L0.242236853,15.5556148 Z" id="Fill-59"></path>
                        <path d="M5.50815897,5.14497428 L8.59497295,5.14497428 L8.59497295,6.53698323 L8.65553216,6.53698323 C9.07902018,5.68958072 10.1686595,4.84217821 11.7423461,4.84217821 C15.0108378,4.84217821 15.6160034,7.02103047 15.6160034,9.80547485 L15.6160034,15.495482 L12.4084975,15.495482 L12.4084975,10.411067 C12.4084975,9.20030919 12.4084975,7.6266226 10.713266,7.6266226 C9.01846096,7.6266226 8.77665059,8.95807234 8.77665059,10.2895221 L8.77665059,15.4344964 L5.56871818,15.4344964 L5.56871818,5.14497428 L5.50815897,5.14497428 Z" id="Fill-61"></path>
                    </g>
                </g>
            </g>
        </g>
    </g>
</svg>