<?xml version="1.0" encoding="UTF-8"?>
<svg width="38px" height="39px" viewBox="0 0 38 39" version="1.1" xmlns="http://www.w3.org/2000/svg" xmlns:xlink="http://www.w3.org/1999/xlink">
    <title>icon-pros</title>
    <defs>
        <polygon id="path-1" points="0 0 32 0 32 11.99994 0 11.99994"></polygon>
    </defs>
    <g id="Web-Pages" stroke="none" stroke-width="1" fill="none" fill-rule="evenodd">
        <g id="Conf-mktg-page-design" transform="translate(-871.000000, -1564.000000)">
            <g id="icon-pros" transform="translate(871.000000, 1564.270519)">
                <circle id="Oval-Copy-6" fill="#FFFFFF" cx="19" cy="19" r="19"></circle>
                <g id="Group-8" transform="translate(3.000000, 10.729481)">
                    <g id="Group-3" transform="translate(0.000000, 4.000060)">
                        <mask id="mask-2" fill="white">
                            <use xlink:href="#path-1"></use>
                        </mask>
                        <g id="Clip-2"></g>
                        <path d="M32.000096,9.90662565 C32.000096,8.82659263 31.3599501,7.86661664 30.3735586,7.44017408 C29.2402168,6.94649959 27.9868177,6.6665266 26.6666667,6.6665266 C26.1465781,6.6665266 25.6533823,6.71983192 25.1601866,6.80003001 C25.6932414,7.70670068 26.0001081,8.74639454 26.0001081,9.85332033 L26.0001081,11.99994 L32.000096,11.99994 L32.000096,9.90662565 Z M26.6666667,5.33341337 C28.1332877,5.33341337 29.3333814,4.13332333 29.3333814,2.66670669 C29.3333814,1.20009004 28.1332877,0 26.6666667,0 C25.2000456,0 23.999952,1.20009004 23.999952,2.66670669 C23.999952,4.13332333 25.2000456,5.33341337 26.6666667,5.33341337 L26.6666667,5.33341337 Z M6.83990948,6.80003001 C6.34671373,6.71983192 5.85351798,6.6665266 5.33342938,6.6665266 C4.01327835,6.6665266 2.75987922,6.94649959 1.62653748,7.44017408 C0.64014599,7.86661664 0,8.82659263 0,9.90662565 L0,11.99994 L5.99998799,11.99994 L5.99998799,9.85332033 C5.99998799,8.74639454 6.30685468,7.70670068 6.83990948,6.80003001 L6.83990948,6.80003001 Z M5.33342938,5.33341337 C6.80005042,5.33341337 8.00014407,4.13332333 8.00014407,2.66670669 C8.00014407,1.20009004 6.80005042,0 5.33342938,0 C3.86680833,0 2.66671469,1.20009004 2.66671469,2.66670669 C2.66671469,4.13332333 3.86680833,5.33341337 5.33342938,5.33341337 L5.33342938,5.33341337 Z" id="Fill-1" fill="#165885" mask="url(#mask-2)"></path>
                    </g>
                    <path d="M16,9.00005102 C18.1735189,9.00005102 20.0934767,9.52013807 21.6532623,10.2001411 C23.0934707,10.8402851 24.0001441,12.280009 24.0001441,13.8402701 L23.9866976,15.9998559 L7.9864095,15.9998559 L7.9864095,13.8532363 C7.9864095,12.280009 8.89308289,10.8402851 10.3332913,10.2135875 C11.8930769,9.52013807 13.8135149,9.00005102 15.9865536,9.00005102 L16,9.00005102 Z" id="Fill-4" fill="#4B9BD2"></path>
                    <path d="M16,0 C18.213378,0 19.9998319,1.78644856 19.9998319,3.99981991 C19.9998319,6.21319127 18.213378,8.00012006 16,8.00012006 C13.786622,8.00012006 12.0001681,6.21319127 12.0001681,3.99981991 C12.0001681,1.78644856 13.786622,0 16,0" id="Fill-6" fill="#4B9BD2"></path>
                </g>
            </g>
        </g>
    </g>
</svg>