<?xml version="1.0" encoding="UTF-8"?>
<svg width="38px" height="39px" viewBox="0 0 38 39" version="1.1" xmlns="http://www.w3.org/2000/svg" xmlns:xlink="http://www.w3.org/1999/xlink">
    <title>icon-world</title>
    <g id="Web-Pages" stroke="none" stroke-width="1" fill="none" fill-rule="evenodd">
        <g id="Conf-mktg-page-design" transform="translate(-871.000000, -1486.000000)">
            <g id="icon-world" transform="translate(871.000000, 1486.270519)">
                <circle id="Oval-Copy-5" fill="#FFFFFF" cx="19" cy="19" r="19"></circle>
                <g id="Group-5" transform="translate(4.000000, 3.729481)">
                    <path d="M24.1458229,14.1897546 L24.1458229,14.1881787 C24.2729496,15.0628313 24.2729496,15.9795093 24.1458229,16.8683454 C24.089614,17.2066495 23.7933353,17.4603776 23.4408476,17.4603776 L21.8890615,17.4603776 C21.4940232,17.4603776 21.1699027,17.136257 21.1699027,16.7554023 C21.1557192,16.7270352 21.1699027,16.7128516 21.1699027,16.6844845 C21.1982698,16.2899715 21.2124534,15.9091168 21.2124534,15.4998949 C21.2124534,15.0911984 21.1840863,14.6961601 21.1557192,14.3153054 C21.1136938,13.9202671 21.4094472,13.581963 21.790302,13.5535959 C21.8044855,13.5394123 21.8186691,13.5394123 21.8470362,13.5394123 L23.3841134,13.5394123 C23.736601,13.5394123 24.0328798,13.7936657 24.0754304,14.1461533 L24.1458229,14.1897546 Z M22.7778977,20.4194876 L22.7763218,20.4194876 C22.0146123,21.5336847 21.0275419,22.4645462 19.8707941,23.1500847 L19.8697434,23.1485088 C19.7000661,23.2330848 19.4747051,23.1768759 19.3759456,23.0219074 C19.3055531,22.9089643 19.3055531,22.767654 19.361762,22.6688945 L19.361762,22.6678438 C19.7568003,21.9339761 20.0951044,21.172792 20.3771996,20.3968989 C20.4759591,20.1148038 20.7296872,19.9172846 21.0401495,19.9172846 L22.4789924,19.9172846 L22.4789924,19.9157087 C22.6481444,19.9157087 22.7747458,20.0428354 22.7747458,20.2119874 C22.7605623,20.2687216 22.746904,20.3249305 22.7185369,20.3811394 L22.7778977,20.4194876 Z M19.4631482,7.96685081 L19.4631482,7.96685081 C19.5760913,7.854433 19.7452433,7.82606588 19.8865536,7.9106419 C21.0149343,8.57359181 21.9878211,9.47608622 22.735347,10.5624415 C22.8341066,10.71741 22.7920813,10.9291127 22.6365875,11.0415305 C22.566195,11.0698976 22.4958025,11.0982648 22.4248848,11.0982648 L21.0569596,11.0982648 C20.7470226,11.0982648 20.4927693,10.9007456 20.3798261,10.6186504 L20.3798261,10.6170745 C20.097731,9.82752322 19.7452433,9.06581373 19.3507304,8.34665492 C19.265629,8.20534468 19.2939961,8.03619264 19.4069393,7.92324951 L19.4631482,7.96685081 Z M18.7439894,16.8525859 L18.7439894,16.8525859 C18.7014387,17.2050735 18.3915017,17.4729852 18.0390141,17.4729852 L12.8909086,17.4729852 C12.5242374,17.4729852 12.2137752,17.2050735 12.1854081,16.8384024 L12.1843574,16.8384024 C12.0714143,15.9642751 12.0714143,15.0754389 12.1843574,14.2007863 C12.2127245,13.8341151 12.5226615,13.5662035 12.8893327,13.5662035 L18.0374381,13.5662035 C18.3899258,13.5520199 18.7003881,13.8204569 18.7424134,14.187128 C18.841173,15.0470718 18.841173,15.935908 18.7424134,16.8100352 L18.7439894,16.8525859 Z M17.7569189,20.4489053 L17.7427354,20.4489053 C17.2205704,21.6056531 16.5297787,22.7056666 15.7255185,23.6927371 C15.5989172,23.8340473 15.3730309,23.8624144 15.2180624,23.7352877 C15.1896953,23.7069206 15.1755118,23.6927371 15.1618535,23.6790788 C14.3434098,22.6914831 13.6526181,21.5914695 13.1446367,20.4347218 C13.0600607,20.2513862 13.1446367,20.0402088 13.3137887,19.9698163 C13.3563394,19.9414492 13.3983647,19.9272656 13.455099,19.9272656 L17.3902477,19.9272656 C17.5026656,19.9130821 17.6156087,19.9834745 17.6723429,20.0822341 C17.7285518,20.1809937 17.7427354,20.3081204 17.6860012,20.40688 L17.7569189,20.4489053 Z M11.4662492,23.1148885 L11.4651986,23.1148885 C11.3380719,23.2136481 11.1689199,23.2414899 11.0417932,23.1569138 L11.0402172,23.1569138 C9.89817834,22.4803057 8.92476615,21.577286 8.17724022,20.491456 L8.16620857,20.491456 C8.05326544,20.3223039 8.09529079,20.1106012 8.25078459,19.9976581 C8.30699349,19.9556328 8.37738596,19.9272656 8.44830373,19.9272656 L9.80204535,19.9272656 C10.0983241,19.9130821 10.3520521,20.1106012 10.4649953,20.3926964 C10.7329069,21.1685894 11.0853945,21.9297736 11.4804328,22.6494577 L11.4788568,22.6478818 C11.5497746,22.7750085 11.5214075,22.9583441 11.4084644,23.0707619 L11.4662492,23.1148885 Z M6.76991629,16.8951366 L6.76834034,16.8951366 C6.62755541,16.0063004 6.62755541,15.0896224 6.76834034,14.2149698 L6.75573273,14.2149698 C6.79775808,13.8624822 7.09403681,13.6087542 7.44652444,13.6087542 L8.98412696,13.6087542 C9.3649817,13.5945706 9.68910222,13.9186911 9.68910222,14.2995459 C9.68910222,14.3137294 9.67491866,14.327913 9.67491866,14.3562801 C9.63289331,14.7371348 9.61870975,15.1179896 9.61870975,15.5266861 C9.61870975,15.9217244 9.63289331,16.3167627 9.66126042,16.6976174 C9.68910222,17.0784722 9.39282349,17.4167762 9.01249407,17.4588016 L8.94157629,17.4588016 L7.39031553,17.4588016 C7.0378279,17.4451434 6.74154918,17.19089 6.68534027,16.8525859 L6.76991629,16.8951366 Z M8.15202501,10.6664543 L8.15202501,10.6664543 C8.89955094,9.53807361 9.88662137,8.60721209 11.0433691,7.93060394 C11.1983376,7.83184437 11.4242239,7.88805328 11.5229835,8.05720531 C11.5791924,8.15596489 11.5791924,8.28309157 11.5229835,8.3960347 L11.5229835,8.39445875 C11.1137616,9.11361757 10.7754575,9.87532705 10.4933624,10.6512201 L10.4791788,10.6512201 C10.3662357,10.9191317 10.1125076,11.1166509 9.80204535,11.1166509 L8.34954416,11.1166509 C8.16620857,11.1166509 8.03908188,10.9753406 8.03908188,10.8061886 C8.02489833,10.7357961 8.05326544,10.6790619 8.08163255,10.622853 L8.15202501,10.6664543 Z M13.2013709,10.6522707 L13.199795,10.6522707 C13.7214346,9.48186471 14.3985681,8.38185115 15.2164865,7.40843896 C15.3294296,7.25347048 15.5553159,7.22510337 15.7102843,7.35223005 C15.7244679,7.36641361 15.7386515,7.38059717 15.7523097,7.39425541 C16.5565699,8.36766759 17.2473616,9.46768115 17.7695265,10.6386125 L17.7569189,10.6386125 C17.8273114,10.8077645 17.7427354,11.0189419 17.5735833,11.1040432 C17.5168491,11.1177015 17.4748238,11.131885 17.4322731,11.131885 L13.4971243,11.131885 C13.3705229,11.1177015 13.2575798,11.0614926 13.2013709,10.962733 L13.2013709,10.9611571 C13.1304531,10.8487392 13.1162696,10.7216126 13.1730038,10.622853 L13.2013709,10.6522707 Z M15.5001576,3.92086016 L15.5001576,3.92086016 C9.06870298,3.92086016 3.8643886,9.12517454 3.8643886,15.5566292 C3.8643886,21.9739002 9.06870298,27.1923982 15.5001576,27.1923982 C21.9174287,27.1923982 27.1359266,21.9739002 27.1359266,15.5566292 L27.1359266,15.5550532 C27.121743,9.12359859 21.9174287,3.91928421 15.5001576,3.91928421 L15.5001576,3.92086016 Z" id="Fill-1" fill="#165885"></path>
                    <path d="M31,15.5 C31,24.060564 24.060564,31 15.5,31 C6.93996136,31 0,24.060564 0,15.5 C0,6.93943605 6.93996136,0 15.5,0 C24.060564,0 31,6.93943605 31,15.5 Z" id="Stroke-3" stroke="#4B9BD2" stroke-width="1.57595065"></path>
                </g>
            </g>
        </g>
    </g>
</svg>