<?xml version="1.0" encoding="UTF-8"?>
<svg width="38px" height="38px" viewBox="0 0 38 38" version="1.1" xmlns="http://www.w3.org/2000/svg" xmlns:xlink="http://www.w3.org/1999/xlink">
    <title>icon-gift</title>
    <defs>
        <polygon id="path-1" points="0 0 1.72401292 0 1.72401292 3.37499398 0 3.37499398"></polygon>
        <polygon id="path-3" points="0 0 3.3104339 0 3.3104339 2.34054976 0 2.34054976"></polygon>
    </defs>
    <g id="Web-Pages" stroke="none" stroke-width="1" fill="none" fill-rule="evenodd">
        <g id="Conf-mktg-page-design" transform="translate(-803.000000, -2620.000000)">
            <g id="Group-26" transform="translate(0.000000, 2294.000000)">
                <g id="icon-gift" transform="translate(803.000000, 326.000000)">
                    <circle id="Oval-Copy-7" fill="#FFFFFF" cx="19" cy="19" r="19"></circle>
                    <g id="Group-19-Copy" transform="translate(7.000000, 4.000000)">
                        <path d="M5.10413908,16.0309925 L5.10413908,24.4685979 C5.10413908,24.9333384 5.49083587,25.3125512 5.96614554,25.3125512 L18.0352205,25.3125512 C18.5021612,25.3125512 18.897227,24.9256289 18.897227,24.4685979 L18.897227,16.0309925 L5.10413908,16.0309925 Z M18.0352205,26.9999759 L5.96614554,26.9999759 C4.53997038,26.9999759 3.38012617,25.8640239 3.38012617,24.4685979 L3.38012617,15.1872802 C3.38012617,14.7213351 3.76608451,14.3435678 4.24213262,14.3435678 L19.7592335,14.3435678 C20.2352816,14.3435678 20.6212399,14.7213351 20.6212399,15.1872802 L20.6212399,24.4685979 C20.6212399,25.8640239 19.4606573,26.9999759 18.0352205,26.9999759 L18.0352205,26.9999759 Z" id="Fill-1" fill="#13294B"></path>
                        <path d="M3.38000309,10.9689111 L3.37877236,10.9689111 L3.38000309,14.3440015 L20.621363,14.3435196 L20.621363,10.9689111 L3.38000309,10.9689111 Z M20.621363,16.0309443 L3.38000309,16.0309443 C2.42938375,16.0309443 1.65599018,15.2739643 1.65599018,14.3440015 L1.65599018,10.9689111 C1.65599018,10.0382256 2.42938375,9.28148641 3.38000309,9.28148641 L20.621363,9.28148641 C21.5719823,9.28148641 22.3453759,10.0382256 22.3453759,10.9689111 L22.3453759,14.3440015 C22.3453759,15.2739643 21.5719823,16.0309443 20.621363,16.0309443 L20.621363,16.0309443 Z" id="Fill-3" fill="#13294B"></path>
                        <path d="M12.0006584,27 C11.5246103,27 11.138652,26.6219918 11.138652,26.1562876 L11.138652,10.125271 C11.138652,9.65932595 11.5246103,9.28131776 12.0006584,9.28131776 C12.4767065,9.28131776 12.8626649,9.65932595 12.8626649,10.125271 L12.8626649,26.1562876 C12.8626649,26.6219918 12.4767065,27 12.0006584,27" id="Fill-5" fill="#13294B"></path>
                        <g id="Group-9" transform="translate(11.138652, 0.000000)">
                            <mask id="mask-2" fill="white">
                                <use xlink:href="#path-1"></use>
                            </mask>
                            <g id="Clip-8"></g>
                            <path d="M0.862006458,3.37499398 C0.385958345,3.37499398 0,2.99698579 0,2.53128162 L0,0.843615987 C0,0.377911822 0.385958345,-9.63692005e-05 0.862006458,-9.63692005e-05 C1.33805457,-9.63692005e-05 1.72401292,0.377911822 1.72401292,0.843615987 L1.72401292,2.53128162 C1.72401292,2.99698579 1.33805457,3.37499398 0.862006458,3.37499398" id="Fill-7" fill="#13294B" mask="url(#mask-2)"></path>
                        </g>
                        <path d="M18.0351221,4.56758693 C17.8140822,4.56758693 17.5940268,4.48519127 17.4256623,4.32039993 C17.0889334,3.99129911 17.0889334,3.45693189 17.4256623,3.12734922 L18.6435972,1.93453944 C18.9803262,1.60495677 19.5257877,1.60495677 19.8625167,1.93453944 C20.1992457,2.26364026 20.1992457,2.7982484 19.8625167,3.12783107 L18.6445818,4.32039993 C18.4762173,4.48519127 18.256162,4.56758693 18.0351221,4.56758693" id="Fill-10" fill="#13294B"></path>
                        <g id="Group-14" transform="translate(20.689566, 5.579601)">
                            <mask id="mask-4" fill="white">
                                <use xlink:href="#path-3"></use>
                            </mask>
                            <g id="Clip-13"></g>
                            <path d="M0.862281411,2.34054976 C0.525552446,2.34054976 0.206792205,2.14660674 0.0674730577,1.82352899 C-0.116644827,1.39396328 0.0888878383,0.899589277 0.527767768,0.718897025 L2.11393842,0.0662366101 C2.55503367,-0.114455642 3.05791179,0.0871969114 3.24301427,0.517244471 C3.42713215,0.946810185 3.22184563,1.44118419 2.7829657,1.62211736 L1.19679505,2.27453685 C1.08676739,2.31958946 0.974524399,2.34054976 0.862281411,2.34054976" id="Fill-12" fill="#13294B" mask="url(#mask-4)"></path>
                        </g>
                        <path d="M5.96619477,4.56758693 C5.74564714,4.56758693 5.52509952,4.48519127 5.35673503,4.32039993 L4.13830786,3.12783107 C3.8015789,2.7982484 3.8015789,2.26436303 4.13830786,1.93453944 C4.47503682,1.60495677 5.02049836,1.60495677 5.35722733,1.93453944 L6.5756545,3.12734922 C6.91238347,3.45693189 6.91238347,3.99081726 6.5756545,4.32039993 C6.40729002,4.48519127 6.18674239,4.56758693 5.96619477,4.56758693" id="Fill-15" fill="#13294B"></path>
                        <path d="M2.44833706,7.92015098 C2.33732481,7.92015098 2.22385109,7.89919068 2.11505415,7.85413808 L0.528391211,7.20171858 C0.0895112808,7.02078541 -0.117005972,6.52641141 0.0676042064,6.09684569 C0.251722091,5.66727998 0.756077097,5.46466373 1.19618776,5.64583783 L2.7828507,6.29849825 C3.22173063,6.4791905 3.42824789,6.9735645 3.24363771,7.40313021 C3.105057,7.72620796 2.78506603,7.92015098 2.44833706,7.92015098" id="Fill-17" fill="#13294B"></path>
                    </g>
                </g>
            </g>
        </g>
    </g>
</svg>