<?xml version="1.0" encoding="UTF-8"?>
<svg width="38px" height="38px" viewBox="0 0 38 38" version="1.1" xmlns="http://www.w3.org/2000/svg" xmlns:xlink="http://www.w3.org/1999/xlink">
    <title>icon-subscribe</title>
    <defs>
        <polygon id="path-1" points="1.51036922e-16 0 24.9908049 0 24.9908049 14 1.51036922e-16 14"></polygon>
    </defs>
    <g id="Web-Pages" stroke="none" stroke-width="1" fill="none" fill-rule="evenodd">
        <g id="Conf-mktg-page-design" transform="translate(-350.000000, -2620.000000)">
            <g id="Group-26" transform="translate(0.000000, 2294.000000)">
                <g id="icon-subscribe" transform="translate(350.000000, 326.000000)">
                    <circle id="Oval" fill="#FFFFFF" cx="19" cy="19" r="19"></circle>
                    <g id="Group-6" transform="translate(7.000000, 12.000000)">
                        <g id="Group-3">
                            <mask id="mask-2" fill="white">
                                <use xlink:href="#path-1"></use>
                            </mask>
                            <g id="Clip-2"></g>
                            <path d="M3.42685687,2.16870831 C3.42539602,2.17889802 3.42335082,2.18908772 3.4215978,2.19899437 L1.61685961,11.5217229 C1.6189048,11.5460649 1.608971,11.6431502 1.608971,11.6683414 C1.608971,12.0892327 1.98119643,12.4453062 2.42178979,12.4453062 L20.81218,12.4464384 C21.1890802,12.4464384 21.529459,12.1741469 21.6065921,11.8121294 L23.3672125,2.47015367 C23.368089,2.45939788 23.3911705,2.24909374 23.392047,2.23862099 C23.3870801,1.90207777 23.0320928,1.55364656 22.5955898,1.55364656 L4.20519952,1.55364656 C3.82946805,1.55364656 3.50574295,1.81121959 3.42685687,2.16870831 L3.42685687,2.16870831 Z M20.81218,14.0000849 L2.42178979,14.0000849 C1.08919939,13.9989527 0.00524622667,12.9519608 0.00524622667,11.6683414 C-0.00819362387,11.5684257 0.00378537335,11.3932194 0.0458579489,11.2092387 L1.83920148,1.94311963 C1.84095451,1.93208078 1.84241536,1.92132498 1.84446056,1.91085224 C2.05423909,0.803571248 3.04732718,0 4.20519952,0 L22.5955898,0 C23.9162012,0 24.9908049,1.04529363 24.9908049,2.33061136 C24.9908049,2.35042467 24.9802867,2.46958758 24.9791181,2.48940089 C24.9718138,2.58450478 24.9615878,2.67960867 24.939675,2.77471256 L23.1834372,12.0982902 C23.1822685,12.1022529 23.181392,12.1064986 23.1802233,12.1104612 C22.9546675,13.2050051 21.9586577,14.0000849 20.81218,14.0000849 L20.81218,14.0000849 Z" id="Fill-1" fill="#020303" mask="url(#mask-2)"></path>
                        </g>
                        <path d="M12.5222757,7.77862063 C12.3954737,7.77862063 12.2689638,7.74918371 12.1535563,7.69172511 L2.27789574,2.74066197 C1.88463402,2.54337801 1.73066008,2.0746517 1.93430303,1.69367005 C2.13853033,1.31297145 2.62178061,1.16380553 3.01504232,1.36108949 L12.5701917,6.15109873 L23.909043,1.90567247 C24.3224645,1.75197779 24.7881845,1.95067699 24.9459567,2.35033976 C25.1054819,2.75085167 24.8997937,3.20033076 24.4875409,3.35515763 L12.8115247,7.72653993 C12.7180301,7.76135475 12.6198607,7.77862063 12.5222757,7.77862063" id="Fill-4" fill="#020303"></path>
                    </g>
                </g>
            </g>
        </g>
    </g>
</svg>