<?xml version="1.0" encoding="UTF-8"?>
<svg width="8px" height="8px" viewBox="0 0 8 8" version="1.1" xmlns="http://www.w3.org/2000/svg" xmlns:xlink="http://www.w3.org/1999/xlink">
    <title>new-window-white</title>
    <g id="Symbols" stroke="none" stroke-width="1" fill="none" fill-rule="evenodd">
        <path d="M5.18743925,0.572266303 L5.18743925,1.28844625 L6.4711918,1.28844625 L2.95116736,4.80847069 L3.45786467,5.315168 L6.97788911,1.79514356 L6.97788911,3.07889612 L7.69406906,3.07889612 L7.69406906,0.572266303 L5.18743925,0.572266303 Z M6.50320101,6.86081457 L1.48994139,6.86081457 L1.48994139,1.84755494 L3.9965712,1.84755494 L3.9965712,1.131375 L1.48994139,1.131375 C1.09425196,1.131375 0.773761439,1.45186552 0.773761439,1.84755494 L0.773761439,6.86081457 C0.773761439,7.25650399 1.09425196,7.57699451 1.48994139,7.57699451 L6.50320101,7.57699451 C6.89889043,7.57699451 7.21938096,7.25650399 7.21938096,6.86081457 L7.21938096,4.35418476 L6.50320101,4.35418476 L6.50320101,6.86081457 Z" id="new-window-white" stroke="#FFFFFF" stroke-width="0.3" fill="#FFFFFF"></path>
    </g>
</svg>