<?xml version="1.0" encoding="UTF-8"?>
<svg width="24px" height="24px" viewBox="0 0 24 24" version="1.1" xmlns="http://www.w3.org/2000/svg" xmlns:xlink="http://www.w3.org/1999/xlink">
    <title>play button</title>
    <g id="Web-Pages" stroke="none" stroke-width="1" fill="none" fill-rule="evenodd">
        <g id="Conf-mktg-page-design" transform="translate(-544.000000, -3572.000000)">
            <g id="play-button" transform="translate(544.000000, 3572.000000)">
                <path d="M12,24 L12,24 C5.34857143,24 0,18.6171429 0,12 C0,5.34857143 5.34857143,0 12,0 C18.6171429,0 24,5.34857143 24,12 C24,18.6171429 18.6171429,24 12,24" id="Fill-1" fill="#FFFFFF"></path>
                <path d="M8.17167795,12.0410416 L8.17167795,7.97265606 C8.17167795,7.43601823 8.58370502,7 9.13307445,7 C9.3047524,7 9.47643035,7.03353986 9.61377271,7.13415946 L16.5495618,11.202545 C16.9959245,11.4708639 17.1332668,12.0410416 16.8585821,12.5105997 C16.7555753,12.6447591 16.6525686,12.7453787 16.5152262,12.8124585 L9.54510153,16.870782 C9.06440328,17.1391009 8.44636266,16.9714016 8.17167795,16.5353834 C8.06867118,16.3676841 8,16.1999847 8,16.0322854 L8.17167795,12.0410416 Z" id="Fill-3" fill="#000000"></path>
            </g>
        </g>
    </g>
</svg>