<?xml version="1.0" encoding="UTF-8"?>
<svg width="30px" height="25px" viewBox="0 0 30 25" version="1.1" xmlns="http://www.w3.org/2000/svg" xmlns:xlink="http://www.w3.org/1999/xlink">
    <title>twitter</title>
    <g id="Web-Pages" stroke="none" stroke-width="1" fill="none" fill-rule="evenodd">
        <g id="Conf-mktg-page-design" transform="translate(-1111.000000, -2908.000000)" fill="#1DA1F2" fill-rule="nonzero">
            <g id="Group-21-Copy" transform="translate(311.000000, 2903.000000)">
                <path d="M826.713814,11.9440259 C826.732279,12.2060006 826.732279,12.4685524 826.732279,12.7311041 C826.732279,20.7357589 820.639347,29.959 809.504383,29.959 C806.073784,29.959 802.886925,28.9653426 800.206185,27.2405795 C800.693608,27.2965521 801.161758,27.3150173 801.668396,27.3150173 C804.498762,27.3150173 807.10466,26.3588673 809.185455,24.7275842 C806.523007,24.6710346 804.292644,22.9278064 803.524031,20.5279102 C803.898528,20.5838828 804.273602,20.6213902 804.667141,20.6213902 C805.21071,20.6213902 805.754278,20.5463754 806.26034,20.414811 C803.485369,19.8522001 801.404979,17.4153736 801.404979,14.4719088 L801.404979,14.396894 C802.210522,14.8459441 803.148207,15.127538 804.141864,15.1644684 C802.510581,14.076754 801.442486,12.2210036 801.442486,10.1217436 C801.442486,8.99652182 801.741968,7.96593406 802.267072,7.06575662 C805.247467,10.7397501 809.728158,13.1390691 814.752129,13.4016209 C814.658072,12.9515322 814.602099,12.4829783 814.602099,12.0144244 C814.602099,8.67753587 817.301477,5.959 820.657177,5.959 C822.400406,5.959 823.975139,6.69010565 825.081319,7.87112691 C826.449473,7.60857516 827.761655,7.10251387 828.923807,6.40891561 C828.473718,7.81492352 827.517568,8.99594478 826.261359,9.74574643 C827.479484,9.61418203 828.660909,9.27707712 829.747815,8.80806159 C828.922653,10.0077211 827.892007,11.0758163 826.710871,11.9386595 L826.713814,11.9440259 Z" id="twitter"></path>
            </g>
        </g>
    </g>
</svg>