<?xml version="1.0" encoding="UTF-8"?>
<svg width="173px" height="46px" viewBox="0 0 173 46" version="1.1" xmlns="http://www.w3.org/2000/svg" xmlns:xlink="http://www.w3.org/1999/xlink">
    <title>unc-wi-logo-white</title>
    <defs>
        <polygon id="path-1" points="0 0 5.93183372 0 5.93183372 6.00933458 0 6.00933458"></polygon>
    </defs>
    <g id="Symbols" stroke="none" stroke-width="1" fill="none" fill-rule="evenodd">
        <g id="FOOTER" transform="translate(-255.000000, -447.000000)">
            <g id="unc-wi-logo-white" transform="translate(255.395756, 447.810317)">
                <polygon id="Fill-1" fill="#FFFFFF" points="43.1928468 44.9794709 43.7161586 44.9794709 43.7161586 0 43.1928468 0"></polygon>
                <g id="Group-61" transform="translate(0.000000, 3.006719)">
                    <path d="M21.8285034,10.9849018 L21.9190418,10.9849018 C21.9045557,10.9818839 21.889466,10.9818839 21.8737726,10.9818839 C21.8568721,10.9818839 21.8411788,10.9818839 21.8285034,10.9849018" id="Fill-2" fill="#FFFFFF"></path>
                    <path d="M21.7153305,11.3792267 C21.7153305,11.3858662 21.7165376,11.3931093 21.7177448,11.397938 L21.7171412,11.0683782 C21.7165376,11.0762249 21.7153305,11.08045 21.7153305,11.0876931 L21.7153305,11.3792267 Z" id="Fill-4" fill="#FFFFFF"></path>
                    <polygon id="Fill-6" fill="#FFFFFF" points="21.7176241 11.3980587 21.7176241 11.3980587 21.7170205 11.068499"></polygon>
                    <path d="M18.9283778,10.8664173 C18.9332065,10.8664173 18.9368281,10.8652101 18.9416568,10.8652101 L18.916306,10.8652101 C18.9205312,10.8652101 18.9259635,10.8664173 18.9283778,10.8664173" id="Fill-8" fill="#FFFFFF"></path>
                    <path d="M16.2864677,8.75029372 C16.3582948,8.81668854 16.4029604,8.80823829 16.4029604,8.80823829 C21.7863729,8.59939641 24.8701104,10.6443568 25.1338789,11.484553 L27.2862782,11.4459233 L27.9550551,9.98946245 C27.9954955,9.86753743 27.9761807,9.69370372 27.9315151,9.64481299 C27.2844674,8.92473102 21.8660467,7.37954254 15.3285715,7.37954254 C8.35168338,7.37954254 3.92797777,8.75512244 2.99603596,9.44623213 C2.99603596,9.44623213 2.76968999,9.57962535 2.76423958,9.78544929 C2.76244692,9.87960921 2.89704733,10.1415669 2.89704733,10.1415669 L3.08717794,10.5508005 C3.14632969,10.6709147 3.22781423,10.6654824 3.37086489,10.5821871 C3.37086489,10.5821871 3.4994294,10.5435574 3.52296938,10.4602621 C3.54650936,10.3745524 3.46743917,10.2315017 3.46743917,10.2315017 C3.33042441,9.9478148 3.51391554,9.9140138 3.52417656,9.90737432 L3.92375264,9.72388318 C4.11388325,9.66835297 4.13440529,9.76915238 4.19959293,9.92125687 C4.19959293,9.92125687 4.27383441,10.1325131 4.32574308,10.1626926 C4.4259389,10.2242587 4.74342684,10.0437855 5.69407991,9.81321439 C5.75926755,9.79933184 5.79306855,9.79389954 5.9192187,9.74078368 C6.01398222,9.70275756 5.93129049,9.38466603 5.93129049,9.38466603 C5.8968859,9.22773282 5.82505878,9.06898885 6.17031183,9.01044069 L6.76545083,8.89153361 C7.04129112,8.8191029 7.06724546,8.96275714 7.10044287,9.1221047 C7.10044287,9.1221047 7.11855054,9.3635404 7.17951306,9.46433981 C7.25737607,9.58867919 7.39982313,9.38768397 9.2154196,9.19453541 C9.2154196,9.19453541 9.4791881,9.18910311 9.53049319,9.09675395 C9.58421263,9.00017967 9.54196138,8.78650908 9.54196138,8.78650908 C9.52083576,8.56861336 9.43150455,8.40564426 9.85341344,8.38331146 L10.6453225,8.31088075 C11.2404615,8.21309929 11.1396621,8.41288733 11.1607878,8.63078305 C11.1607878,8.63078305 11.1807062,8.86678645 11.2259754,8.90843411 C11.270641,8.95249612 11.4577537,8.948271 11.4577537,8.948271 C12.4748016,8.84264288 13.0433826,8.84807518 14.124411,8.80280599 C14.124411,8.80280599 14.2747047,8.80280599 14.3308385,8.73822194 C14.3839544,8.67484507 14.368261,8.60845025 14.368261,8.60845025 C14.368261,8.48652522 14.3447211,8.29639461 14.4231877,8.21068493 C14.5125189,8.11531783 14.6513444,8.15696549 14.7925843,8.15696549 L15.7009861,8.15696549 C15.8416224,8.15696549 16.1265165,8.09539939 16.2073975,8.19438802 C16.2599097,8.25897207 16.2442164,8.64164766 16.2442164,8.64164766 C16.2442164,8.64164766 16.2430092,8.70864607 16.2864677,8.75029372" id="Fill-10" fill="#FFFFFF"></path>
                    <path d="M15.3693742,0 C10.1054723,0 6.86963034,1.69065349 4.79690485,3.72414568 C4.79690485,3.72414568 4.76008591,3.76036103 4.74077105,3.8128733 C4.70153775,3.91729424 4.69248391,4.07060591 4.90555092,3.99515725 C9.41375903,2.10471572 14.3396509,3.290165 15.908983,5.07497842 C15.9639096,5.15827373 15.9150188,5.17819218 15.8480204,5.17819218 C14.2623915,5.1938855 12.9350987,5.10153635 10.0052765,5.51258062 C8.41844035,5.73349429 7.00905945,5.96527256 5.81938504,6.27491385 C3.85953074,6.78675753 2.4694647,7.42173342 1.69264534,7.93659505 C1.40775121,8.0911139 1.38541841,8.20217432 1.31479846,8.33315319 C1.23089956,8.58666068 1.24176417,8.58666068 1.18623395,8.76049438 C1.08965967,9.0906577 1.04016536,9.29889599 1.02024691,9.40874924 C0.987049501,9.61095164 1.2061524,9.5397281 1.31962718,9.42444256 C1.55381981,9.18904275 2.20026389,8.61684014 3.15152055,8.17440922 C4.11967771,7.72473523 5.72281076,7.21168436 7.45873345,6.88997129 C9.77530899,6.46142293 12.5940708,6.18739341 15.1732077,6.18497905 C18.1639924,6.17833957 20.8427215,6.48617009 23.0856591,6.92256511 C25.363605,7.36741039 27.1659225,7.98367502 28.3308497,8.55285968 C28.8777016,8.81904254 29.1837213,9.0628926 29.5507036,9.3773626 C29.8404264,9.67070697 29.8579305,9.41780308 29.8518946,9.33994006 C29.8518946,9.33994006 29.796968,8.94338192 29.313493,8.05127701 C27.8268527,5.31399976 23.8479924,0 15.3693742,0" id="Fill-12" fill="#FFFFFF"></path>
                    <path d="M31.2713555,33.3282669 C31.2707519,33.3204203 31.2695447,33.3137808 31.2665268,33.3071413 C31.2659232,33.2992946 31.2659232,33.2890336 31.2653196,33.278169 C31.2623016,33.2654936 31.2610945,33.2534219 31.2586801,33.2401429 C31.251437,33.2365214 31.2508334,33.2286747 31.244194,33.2178101 C31.1675381,32.8266843 30.5989571,32.797712 29.0416968,32.7621002 L29.0054814,31.7812677 C29.0036707,31.7480703 28.9765091,31.7227195 28.9433117,31.7227195 C28.9113215,31.7239267 28.8847636,31.7504846 28.8847636,31.783682 C28.8847636,31.7842856 28.8847636,31.7848892 28.8853672,31.7854928 L28.8847636,31.7854928 L28.8847636,31.7885107 C28.873899,31.8331764 28.5539967,32.0848731 28.3511907,32.1862761 C27.0323482,32.9540416 21.8927857,34.1117258 15.4814607,34.1093114 C8.05852008,34.1147437 2.84290537,32.558087 2.0606537,31.7414308 C2.04435679,31.7239267 2.01840245,31.7178908 1.99546606,31.7269446 C1.97313326,31.7366021 1.95804353,31.7577277 1.95804353,31.7824749 L1.94053944,33.3904366 L1.9652866,33.4405345 C3.97886034,34.8728518 9.33873288,36.1711723 15.3764362,36.1741902 C16.7610699,36.1741902 18.1813154,36.1035703 19.6069932,35.9532766 C19.7391793,35.9484479 19.8224746,35.9297366 19.9033555,35.9309438 C19.9625073,35.9309438 20.0228662,35.9369797 20.1146118,35.9671591 C20.1242692,35.9683663 20.1882497,36.017257 20.180403,36.0474365 C20.1834209,36.0673549 20.1556558,36.1331462 19.9703539,36.2043697 C18.3998147,36.7216457 15.9866649,37.0161972 13.3290614,37.0161972 C8.57519248,37.0161972 3.03363957,36.0733908 0.0965742801,33.8401106 C0.0778630133,33.8262281 0.0525122648,33.8244173 0.0325938195,33.8346783 C0.0126753743,33.8443357 0,33.8666685 0,33.8890013 L0.0205220345,35.2060331 L0.0802773703,35.2054295 L0.0802773703,35.2060331 L0.0760522456,35.2060331 L0.0205220345,35.2060331 L0.0162969098,35.2060331 L0.0150897313,35.2060331 C0.0615661036,36.5327223 5.143184,38.9748444 15.6721949,38.9953664 C25.887943,38.9748444 31.274977,36.5339294 31.3238677,35.2060331 L31.2713555,33.3282669 Z" id="Fill-14" fill="#FFFFFF"></path>
                    <path d="M21.8992441,10.2315621 L19.0243485,10.2291477 C18.8843158,10.2291477 18.8209389,10.302182 18.819124,10.4416112 L18.819124,10.7633242 C18.8185246,10.9154287 18.8831086,10.9818235 19.0358167,10.9818235 L19.9261108,10.9818235 C20.0094062,10.9794092 20.0299282,11.0186425 20.031739,11.0295071 C20.0691615,11.1164239 19.9031745,11.1936834 19.849455,11.2268808 L19.410042,11.5147928 C19.3478723,11.5534226 19.2917385,11.6318892 19.2929457,11.7930475 L19.2724237,32.3947558 C19.3152785,32.7532878 19.8923099,32.7888996 20.5176283,32.7865924 C21.0463725,32.7828637 21.6692766,32.7532878 21.7356714,32.4007917 C21.7356714,32.4007917 21.7175637,12.7956092 21.7374822,11.1013342 C21.7386894,11.0234712 21.7743011,11.0059671 21.7863729,10.998724 C21.8056878,10.9848415 21.8962262,10.9794092 21.8962262,10.9794092 C22.0278086,10.9733733 22.0990322,10.9106 22.0990322,10.7772068 L22.0990322,10.4313501 C22.0929963,10.3070108 22.0115117,10.2382016 21.8992441,10.2315621" id="Fill-16" fill="#FFFFFF"></path>
                    <path d="M17.4969659,24.2997789 C17.4969659,24.2659779 17.470408,24.2400236 17.436607,24.2400236 L13.4456749,24.2400236 C13.4118739,24.2400236 13.3853159,24.2647707 13.3841088,24.2985717 L13.3816944,24.428947 C13.3804872,24.4452439 13.3865231,24.4615408 13.3979913,24.4724054 C13.4088559,24.4844772 13.4257564,24.4911167 13.4420533,24.4911167 L13.6183014,24.4911167 L13.659949,24.5792407 L13.899574,25.0826342 C13.9134565,25.0995347 13.9575185,25.1472182 14.0227062,25.1786049 C14.0975513,25.2075772 14.1977471,25.2111987 14.2430163,25.2124059 C14.569558,25.2154238 14.772364,25.2154238 14.9027393,25.2154238 C15.1640935,25.2154238 15.1314996,25.2099915 15.2039303,25.2099915 C15.2087591,25.2099915 15.2129842,25.2099915 15.2190201,25.2111987 C15.3053333,25.2099915 15.3964753,25.2232705 15.414583,25.2576751 C15.4218261,25.2667289 15.4320871,25.2866473 15.4320871,25.3089801 C15.4308799,25.3391596 15.4194117,25.3814109 15.3481882,25.4339231 C15.0059531,25.6578547 14.4355612,26.0332872 14.1687748,26.2071209 C14.1301451,26.2288502 14.0371923,26.2904163 13.9937339,26.3875941 C13.9647616,26.4600248 13.9611401,26.5179694 13.9611401,26.5427166 C13.9611401,26.552374 13.9611401,26.5590135 13.9623473,26.5602207 L13.9611401,30.3851657 L13.6605526,30.5040728 L13.6231301,30.5517564 C13.6219229,30.5529636 13.5808789,30.8656228 13.5808789,31.1203374 C13.5875183,31.2651989 13.5772573,31.3822952 13.6635706,31.4577438 C13.7824777,31.5205171 14.6093949,31.5217243 15.482185,31.5271566 C16.3217776,31.5229315 17.0949755,31.5181028 17.2090538,31.4655905 C17.2971779,31.3877275 17.2814845,31.2730455 17.2905384,31.1203374 C17.2905384,30.8595869 17.2519087,30.5378738 17.2519087,30.5366666 L17.210261,30.4865687 L16.906052,30.3827514 L16.906052,25.22991 L17.2289723,24.5937269 L17.2802774,24.4899095 L17.4384178,24.4911167 C17.4547147,24.4911167 17.4698044,24.4844772 17.480669,24.4724054 C17.4921372,24.4615408 17.4981731,24.4464511 17.4981731,24.4301542 L17.4969659,24.2997789 Z" id="Fill-18" fill="#FFFFFF"></path>
                    <path d="M27.4741151,11.3556264 L24.5980124,11.3525939 C24.4579797,11.3514012 24.3946028,11.4256427 24.3921842,11.5626575 L24.3921842,11.8843705 C24.3915848,12.036475 24.4561689,12.1058878 24.6094806,12.1058878 L25.4997747,12.1058878 C25.5818628,12.1004555 25.6029885,12.1396888 25.6078172,12.1493462 C25.6410146,12.2374703 25.4780455,12.3159369 25.4231189,12.3515486 L24.9831023,12.6358392 C24.9221398,12.6738653 24.8641952,12.7541427 24.8666096,12.912283 L24.8478983,31.4871386 C24.8913567,31.8504994 25.4653701,31.8843004 26.0912922,31.8819976 C26.6206399,31.8782645 27.2447512,31.8504994 27.3105425,31.4955889 C27.3105425,31.4955889 27.2930384,13.9178627 27.311146,12.2247949 C27.3123532,12.1463283 27.347965,12.1270134 27.3618475,12.1185632 C27.3799552,12.107095 27.4692864,12.1004555 27.4692864,12.1004555 C27.6008689,12.0956268 27.6732996,12.0316463 27.6732996,11.9006675 L27.6732996,11.5536036 C27.6666601,11.4256427 27.5851756,11.3616623 27.4741151,11.3556264" id="Fill-20" fill="#FFFFFF"></path>
                    <path d="M11.7607555,10.2345197 L8.88525628,10.2315017 C8.74582716,10.2315017 8.68245029,10.3021217 8.68063952,10.4415508 L8.68063952,10.7662818 C8.68063952,10.9183863 8.7440164,10.9817632 8.89672448,10.9817632 L9.7882258,10.9847811 C9.86971035,10.9793488 9.89143956,11.0185821 9.89385392,11.0294467 C9.93006927,11.1163636 9.76468582,11.193623 9.71096637,11.2322527 L9.27215699,11.5147325 C9.21059089,11.5539658 9.15324991,11.6342432 9.15324991,11.7929871 L9.13634941,32.3946954 C9.17860066,32.7532274 9.75261403,32.7888392 10.3803469,32.786532 C10.9096946,32.786532 11.5325987,32.7574526 11.5971828,32.4043529 C11.5971828,32.4043529 11.5808859,12.7955489 11.5989936,11.1018774 C11.5989936,11.0240144 11.6346053,11.0059068 11.6478843,11.001078 C11.6684063,10.9859883 11.7559268,10.9793488 11.7559268,10.9793488 C11.88932,10.9733129 11.9599399,10.9105397 11.9605435,10.7795608 L11.9605435,10.4312898 C11.953904,10.3069504 11.8736267,10.2381412 11.7607555,10.2345197" id="Fill-22" fill="#FFFFFF"></path>
                    <path d="M6.16687137,11.4092251 L3.29076859,11.4092251 C3.15073589,11.4068711 3.08735902,11.4768874 3.08615184,11.6193345 L3.08615184,11.9410476 C3.08615184,12.0931521 3.1501323,12.1583397 3.30223679,12.1583397 L4.19373811,12.1619612 C4.27461907,12.153511 4.2957447,12.1939515 4.29996982,12.2036089 C4.33437441,12.2941473 4.17080172,12.3683888 4.11466792,12.4058113 L3.67585854,12.6901018 C3.61549961,12.7293351 3.55876222,12.8096125 3.55936581,12.9653385 L3.54186172,31.5414013 C3.58411297,31.9059692 4.15872994,31.9373559 4.78525558,31.9373559 C5.31399976,31.9349415 5.93690387,31.9059692 6.00209151,31.5510587 C6.00209151,31.5510587 5.98639819,13.9709182 6.00450586,12.2790576 C6.00510945,12.2011945 6.04072122,12.1794653 6.05339659,12.174033 C6.07391863,12.1619612 6.16204266,12.153511 6.16204266,12.153511 C6.2942287,12.1498895 6.36545224,12.0840982 6.36605582,11.953723 L6.36605582,11.6090735 C6.35941634,11.4799054 6.27913897,11.4123034 6.16687137,11.4092251" id="Fill-24" fill="#FFFFFF"></path>
                    <path d="M84.4447919,1.23313284 L84.4447919,1.93571073 C81.9670581,1.97373685 81.0803855,2.96965911 81.0803855,5.34176487 L81.0803855,15.3299598 C81.0803855,19.9196524 78.1578063,24.8461479 70.1270513,24.8461479 C63.057814,24.8461479 59.432657,20.8087394 59.432657,15.5188832 L59.432657,4.7110141 C59.432657,2.34494424 58.7662945,1.97373685 56.2493273,1.93571073 L56.2493273,1.23313284 L65.7618939,1.23313284 L65.7618939,1.93571073 L65.4269018,1.93571073 C63.3934096,1.93571073 62.5037191,2.48980566 62.5037191,4.63918698 L62.5037191,14.922537 C62.5037191,19.9196524 65.4269018,22.9176803 70.9418968,22.9176803 C75.1205452,22.9176803 79.3776602,21.1775324 79.3776602,14.8869253 L79.3776602,6.26344565 C79.3776602,2.71373727 78.8223581,2.08419368 75.7500888,1.93571073 L75.7500888,1.23313284 L84.4447919,1.23313284 Z" id="Fill-26" fill="#FFFFFF"></path>
                    <path d="M107.796393,24.5113973 L88.630623,4.45171216 L88.630623,20.3273166 C88.630623,22.9927668 89.2239513,23.5456545 92.370462,23.5456545 L92.370462,24.2494396 L83.781387,24.2494396 L83.781387,23.5456545 L83.9286628,23.5456545 C86.2241127,23.5456545 86.9641131,22.767628 86.9641131,21.0667135 L86.9641131,2.86246166 C86.1154666,2.26913343 85.1485166,1.9733747 83.8544213,1.93595216 L83.8544213,1.23337427 L89.6645714,1.23337427 L107.094418,19.4008071 L107.094418,4.67322941 C107.094418,2.41761638 106.426848,2.01019364 103.471676,1.93595216 L103.471676,1.23337427 L112.13137,1.23337427 L112.13137,1.93595216 C109.353049,1.93595216 108.761532,2.41761638 108.761532,3.8595911 L108.761532,24.5113973 L107.796393,24.5113973 Z" id="Fill-28" fill="#FFFFFF"></path>
                    <path d="M134.219116,7.30324885 C133.001072,3.85977218 129.817743,1.6011412 125.781541,1.6011412 C119.602598,1.6011412 115.752302,6.07977344 115.752302,12.2955355 C115.752302,18.994169 120.565927,23.917043 126.188361,23.917043 C129.113354,23.917043 132.705917,22.9174992 135.219263,18.4412813 L135.923048,18.4412813 C135.441384,20.1035661 134.442444,22.4026375 133.555167,23.8415943 C131.184269,23.5120346 129.559407,24.8459668 125.191231,24.8459668 C117.675338,24.8459668 112.275025,19.8856704 112.275025,13.0385539 C112.275025,5.85704901 117.825028,0.677649652 125.560628,0.677649652 C130.224562,0.677649652 132.219424,2.15885767 133.369865,2.15885767 C133.776685,2.15885767 133.959572,2.04659007 134.035021,1.93552965 L134.587909,1.93552965 L134.923504,7.30324885 L134.219116,7.30324885 Z" id="Fill-30" fill="#FFFFFF"></path>
                    <path d="M64.4352047,31.377225 C64.5897235,31.0778448 64.5704087,30.9329833 64.1352208,30.9329833 L63.6137197,30.9329833 C63.2274226,30.9329833 63.1887929,31.0681873 63.3336543,31.3579102 L63.8841277,32.469118 L64.4352047,31.377225 Z M59.4495575,31.7442073 C59.1598346,31.1261319 59.0536029,30.9329833 58.5417593,30.9329833 L58.4644998,30.9329833 L58.4644998,30.5563437 L61.0249254,30.5563437 L61.0249254,30.9329833 C60.6283673,30.9716131 60.5897376,31.1454468 60.7732287,31.5220865 L62.5604565,35.2516644 L63.1791355,33.9859378 L62.0389554,31.590292 C61.7878622,31.0681873 61.6623157,30.9426408 61.3822503,30.9329833 L61.3822503,30.5563437 L65.6140145,30.5563437 L65.6140145,30.9329833 C65.2464286,31.0102428 65.1305395,31.1261319 64.8794464,31.6385792 L64.1738505,33.0684821 L65.1884841,35.1261179 L66.5218127,31.7442073 C66.7342761,31.2136523 66.6377019,30.9426408 66.0582562,30.9329833 L66.0582562,30.5563437 L68.0096602,30.5563437 L68.0096602,30.9329833 C67.5461037,30.9619556 67.3239828,31.1647616 67.0728897,31.8021519 L65.1208821,36.7002786 L64.4931493,36.7002786 L63.4592009,34.5756445 L62.4542248,36.7002786 L61.8071771,36.7002786 L59.4495575,31.7442073 Z" id="Fill-32" fill="#FFFFFF"></path>
                    <path d="M71.7180522,31.5417031 L70.9068283,33.8021448 L72.6071392,33.8021448 L71.7180522,31.5417031 Z M70.7136797,34.333907 L70.3074642,35.4638261 C70.1336304,35.9563549 70.1432879,36.1887367 71.0710046,36.1887367 L71.1965511,36.1887367 L71.1965511,36.5653764 L68.6361255,36.5653764 L68.6361255,36.1887367 L68.7815905,36.1887367 C69.2451471,36.1887367 69.4865828,35.9762733 69.7280185,35.3002534 L71.3800423,30.6912459 L71.2738105,30.4111804 L72.7037135,30.4111804 L74.6358027,35.3195682 C74.8868958,35.9563549 75.0999628,36.150107 75.6021491,36.1887367 L75.6021491,36.5653764 L72.4622778,36.5653764 L72.4622778,36.1887367 L72.8002878,36.1887367 C73.3893909,36.1887367 73.4763077,35.9279862 73.2837627,35.4541686 L72.82926,34.333907 L70.7136797,34.333907 Z" id="Fill-34" fill="#FFFFFF"></path>
                    <path d="M80.6789382,35.4638261 C80.6789382,35.9666159 80.8334571,36.1887367 81.5191345,36.1887367 L81.7509128,36.1887367 L81.7509128,36.5653764 L78.2730315,36.5653764 L78.2730315,36.1887367 L78.601384,36.1887367 C79.1331462,36.1887367 79.3456096,35.9762733 79.3456096,35.4638261 L79.3456096,31.0582281 L78.2054295,31.0582281 C77.461204,31.0582281 77.3459184,31.1747208 77.1618237,32.1984082 L76.7658691,32.1984082 L76.9397028,30.3918656 L77.2487405,30.3918656 C77.326,30.4594676 77.3742871,30.5077547 77.4328353,30.5270696 C77.4998337,30.546988 77.5770931,30.5560419 77.7122971,30.5560419 L82.3116472,30.5560419 C82.5723977,30.5560419 82.6206849,30.536727 82.7752037,30.3918656 L83.0842414,30.3918656 L83.2580751,32.1984082 L82.8621206,32.1984082 C82.6786294,31.1837747 82.5627403,31.0582281 81.8185147,31.0582281 L80.6789382,31.0582281 L80.6789382,35.4638261 Z" id="Fill-36" fill="#FFFFFF"></path>
                    <path d="M89.56679,31.087804 L87.450606,31.087804 L87.450606,33.2613289 L89.0163166,33.2613289 C89.5474751,33.2613289 89.7406237,33.0778377 89.7406237,32.5653905 L90.1269208,32.5653905 L90.1269208,34.4884258 L89.7406237,34.4884258 C89.7406237,33.9669247 89.6150771,33.7924874 88.8708516,33.7924874 L87.450606,33.7924874 L87.450606,35.5314281 C87.450606,35.947301 87.5278655,36.0342179 87.8085345,36.0342179 L89.4219285,36.0342179 C90.0496614,36.0342179 90.3496452,35.8597806 90.5325328,35.0485566 L90.9001186,35.0485566 L90.7842295,36.5653764 L84.9680435,36.5653764 L84.9680435,36.1887367 L85.363998,36.1887367 C85.9241288,36.1887367 86.1172774,35.9666159 86.1172774,35.4934019 L86.1172774,31.6382774 C86.1172774,31.1167763 85.9434437,30.9326816 85.2770812,30.9326816 L85.1805069,30.9326816 L85.1805069,30.5560419 L90.5035605,30.5560419 L90.6007383,31.9569725 L90.2331525,31.9569725 C90.1365782,31.3002674 90.0110316,31.087804 89.56679,31.087804" id="Fill-38" fill="#FFFFFF"></path>
                    <path d="M95.140997,33.6088756 L95.5182403,33.6088756 C96.6873927,33.6088756 97.3634127,33.2515507 97.3634127,32.2176023 C97.3634127,31.193915 96.581161,30.8269327 95.6437869,30.8269327 L95.140997,30.8269327 L95.140997,33.6088756 Z M95.140997,35.4830202 C95.140997,35.9761526 95.3540641,36.188616 95.9045374,36.188616 L96.1942603,36.188616 L96.1942603,36.5652557 L92.8129533,36.5652557 L92.8129533,36.188616 L92.9674722,36.188616 C93.5565753,36.188616 93.808272,36.0437546 93.808272,35.4830202 L93.808272,31.667129 C93.808272,31.2035724 93.6821218,30.9325608 93.0350742,30.9325608 L92.8322682,30.9325608 L92.8322682,30.5559211 C93.3151396,30.5275524 93.6821218,30.507634 94.07868,30.4786617 C94.6194959,30.440032 95.3154343,30.4110597 95.6631017,30.4110597 C97.0833473,30.4110597 97.8565451,30.5951544 98.3394165,31.0780258 C98.6581116,31.396721 98.802973,31.7637032 98.802973,32.1795762 C98.802973,32.9135408 98.2718145,33.49359 97.3730701,33.7350257 C98.0104603,34.2661843 98.3484703,35.0297247 99.0347513,35.7154021 C99.4307058,36.1113566 99.7017174,36.2272457 100.310135,36.2857939 L100.310135,36.6624336 C100.097672,36.6714874 100.001098,36.6714874 99.7113748,36.6714874 C98.5132502,36.6714874 98.0207214,36.4976537 97.5662187,36.0437546 C97.0833473,35.5602796 96.5232164,34.5462497 95.9045374,34.0150911 L95.140997,34.0150911 L95.140997,35.4830202 Z" id="Fill-40" fill="#FFFFFF"></path>
                    <path d="M106.111171,30.5561626 L109.183441,30.5561626 L109.183441,30.9328023 L109.019264,30.9328023 C108.49716,30.9328023 108.284696,31.1549231 108.284696,31.657713 L108.284696,35.4832616 C108.284696,35.9564756 108.448872,36.1888575 109.037976,36.1888575 L109.183441,36.1888575 L109.183441,36.5654972 L106.111171,36.5654972 L106.111171,36.1888575 L106.246375,36.1888575 C106.758219,36.1888575 106.951368,35.9474218 106.951368,35.5224949 L106.951368,31.657713 C106.951368,31.1549231 106.777534,30.9328023 106.236718,30.9328023 L106.111171,30.9328023 L106.111171,30.5561626 Z" id="Fill-42" fill="#FFFFFF"></path>
                    <path d="M112.526782,35.4060626 C112.526782,35.9957693 112.710273,36.1889178 113.484074,36.1889178 L113.484074,36.5655575 L111.14577,36.5655575 L111.14577,36.1889178 L111.203111,36.1889178 C111.792817,36.1889178 111.937679,35.9758508 111.937679,35.5798963 L111.937679,31.145326 C111.725215,31.0004646 111.464465,30.9328626 111.165084,30.9328626 L111.165084,30.5562229 L113.155118,30.5562229 L117.09716,34.6714944 L117.09716,31.753744 C117.09716,31.0584092 116.952298,30.9328626 116.178497,30.9328626 L116.081923,30.9328626 L116.081923,30.5562229 L118.57535,30.5562229 L118.57535,30.9328626 L118.478775,30.9328626 C117.879411,30.9328626 117.686866,31.0584092 117.686866,31.4253915 L117.686866,36.5945298 L117.155104,36.5945298 L112.526782,31.753744 L112.526782,35.4060626 Z" id="Fill-44" fill="#FFFFFF"></path>
                    <path d="M120.545465,34.7877457 L120.922105,34.7877457 C121.2408,35.7444347 121.811192,36.2369635 122.574128,36.2369635 C123.212122,36.2369635 123.694994,35.8313515 123.694994,35.289932 C123.694994,33.8503716 120.593752,33.8986588 120.593752,31.9858844 C120.593752,31.0581678 121.404976,30.4111201 122.554814,30.4111201 C123.298436,30.4111201 123.877881,30.6622132 124.023346,30.6622132 C124.090948,30.6622132 124.149496,30.6435019 124.23581,30.5559815 L124.438616,30.5559815 L124.622107,32.1210884 L124.23581,32.1210884 C124.023346,31.3388368 123.405271,30.8269931 122.661045,30.8269931 C122.120229,30.8269931 121.714014,31.1167159 121.714014,31.4933556 C121.714014,32.3824426 123.318354,32.5466188 124.40059,33.6282508 C124.796544,34.0242053 124.951063,34.4400783 124.951063,34.9036349 C124.951063,35.9080074 124.042661,36.7005201 122.892824,36.7005201 C122.120229,36.7005201 121.414634,36.3914824 121.2408,36.3914824 C121.153883,36.3914824 121.086281,36.4397695 121.037994,36.5460012 L120.786901,36.5460012 L120.545465,34.7877457 Z" id="Fill-46" fill="#FFFFFF"></path>
                    <path d="M130.803404,35.4638261 C130.803404,35.9666159 130.958526,36.1887367 131.644204,36.1887367 L131.875378,36.1887367 L131.875378,36.5653764 L128.398101,36.5653764 L128.398101,36.1887367 L128.726453,36.1887367 C129.257008,36.1887367 129.470075,35.9762733 129.470075,35.4638261 L129.470075,31.0582281 L128.329895,31.0582281 C127.586273,31.0582281 127.470384,31.1747208 127.286893,32.1984082 L126.890938,32.1984082 L127.064772,30.3918656 L127.373206,30.3918656 C127.451069,30.4594676 127.499356,30.5077547 127.557301,30.5270696 C127.624299,30.546988 127.702162,30.5560419 127.837366,30.5560419 L132.436113,30.5560419 C132.697467,30.5560419 132.745754,30.536727 132.900273,30.3918656 L133.208707,30.3918656 L133.383144,32.1984082 L132.98719,32.1984082 C132.803095,31.1837747 132.68781,31.0582281 131.943584,31.0582281 L130.803404,31.0582281 L130.803404,35.4638261 Z" id="Fill-48" fill="#FFFFFF"></path>
                    <path d="M135.319459,30.5561626 L138.391728,30.5561626 L138.391728,30.9328023 L138.227552,30.9328023 C137.706654,30.9328023 137.493587,31.1549231 137.493587,31.657713 L137.493587,35.4832616 C137.493587,35.9564756 137.657763,36.1888575 138.24747,36.1888575 L138.391728,36.1888575 L138.391728,36.5654972 L135.319459,36.5654972 L135.319459,36.1888575 L135.454663,36.1888575 C135.96711,36.1888575 136.160259,35.9474218 136.160259,35.5224949 L136.160259,31.657713 C136.160259,31.1549231 135.986425,30.9328023 135.445005,30.9328023 L135.319459,30.9328023 L135.319459,30.5561626 Z" id="Fill-50" fill="#FFFFFF"></path>
                    <path d="M144.232661,35.4638261 C144.232661,35.9666159 144.387784,36.1887367 145.073461,36.1887367 L145.305239,36.1887367 L145.305239,36.5653764 L141.827962,36.5653764 L141.827962,36.1887367 L142.155711,36.1887367 C142.686869,36.1887367 142.899333,35.9762733 142.899333,35.4638261 L142.899333,31.0582281 L141.759152,31.0582281 C141.01553,31.0582281 140.900245,31.1747208 140.71615,32.1984082 L140.320196,32.1984082 L140.494633,30.3918656 L140.803067,30.3918656 C140.880326,30.4594676 140.928614,30.5077547 140.987162,30.5270696 C141.05416,30.546988 141.13142,30.5560419 141.266624,30.5560419 L145.86537,30.5560419 C146.126724,30.5560419 146.175011,30.536727 146.330134,30.3918656 L146.638568,30.3918656 L146.812402,32.1984082 L146.416447,32.1984082 C146.232956,31.1837747 146.117067,31.0582281 145.372841,31.0582281 L144.232661,31.0582281 L144.232661,35.4638261 Z" id="Fill-52" fill="#FFFFFF"></path>
                    <path d="M153.51345,30.5561626 L156.015327,30.5561626 L156.015327,30.9328023 L155.947725,30.9328023 C155.175131,30.9328023 155.059242,31.2714158 155.059242,31.7349724 L155.059242,34.1402755 C155.059242,36.2950892 153.494135,36.7007011 152.343694,36.7007011 C150.605357,36.7007011 149.503203,35.9474218 149.503203,34.4686281 L149.503203,31.590111 C149.503203,31.106636 149.368602,30.9328023 148.827183,30.9328023 L148.663006,30.9328023 L148.663006,30.5561626 L151.687592,30.5561626 L151.687592,30.9328023 L151.522812,30.9328023 C151.1172,30.9328023 150.836531,31.116897 150.836531,31.590111 L150.836531,34.4686281 C150.836531,35.6480415 151.706303,36.0530499 152.585733,36.0530499 C153.851459,36.0530499 154.479796,35.3384002 154.479796,34.2754795 L154.479796,31.9275174 C154.479796,31.2424436 154.286044,30.9328023 153.687283,30.9328023 L153.51345,30.9328023 L153.51345,30.5561626 Z" id="Fill-54" fill="#FFFFFF"></path>
                    <path d="M161.778397,35.4638261 C161.778397,35.9666159 161.932916,36.1887367 162.619197,36.1887367 L162.851579,36.1887367 L162.851579,36.5653764 L159.373094,36.5653764 L159.373094,36.1887367 L159.701447,36.1887367 C160.233209,36.1887367 160.445068,35.9762733 160.445068,35.4638261 L160.445068,31.0582281 L159.305492,31.0582281 C158.561266,31.0582281 158.445377,31.1747208 158.261886,32.1984082 L157.865932,32.1984082 L158.039765,30.3918656 L158.348803,30.3918656 C158.426666,30.4594676 158.474953,30.5077547 158.532294,30.5270696 C158.6005,30.546988 158.677759,30.5560419 158.81236,30.5560419 L163.411106,30.5560419 C163.67246,30.5560419 163.720747,30.536727 163.875266,30.3918656 L164.184304,30.3918656 L164.358138,32.1984082 L163.962183,32.1984082 C163.778692,31.1837747 163.662199,31.0582281 162.918577,31.0582281 L161.778397,31.0582281 L161.778397,35.4638261 Z" id="Fill-56" fill="#FFFFFF"></path>
                    <g id="Group-60" transform="translate(166.068166, 30.556042)">
                        <mask id="mask-2" fill="white">
                            <use xlink:href="#path-1"></use>
                        </mask>
                        <g id="Clip-59"></g>
                        <path d="M4.5987465,0.53176213 L2.48316618,0.53176213 L2.48316618,2.70528702 L4.0482731,2.70528702 C4.57943164,2.70528702 4.7725802,2.52179589 4.7725802,2.00934861 L5.15948091,2.00934861 L5.15948091,3.93238397 L4.7725802,3.93238397 C4.7725802,3.41088285 4.64703364,3.23644556 3.90341168,3.23644556 L2.48316618,3.23644556 L2.48316618,4.97538619 C2.48316618,5.39125919 2.5604256,5.47817604 2.84049101,5.47817604 L4.45388508,5.47817604 C5.08222149,5.47817604 5.38160176,5.30373874 5.56509289,4.49251479 L5.93207515,4.49251479 L5.81618602,6.00933458 L0,6.00933458 L0,5.63269489 L0.395954548,5.63269489 C0.956688962,5.63269489 1.14983752,5.41057404 1.14983752,4.93736007 L1.14983752,1.08223553 C1.14983752,0.560734414 0.976003818,0.376639692 0.309037696,0.376639692 L0.212463416,0.376639692 L0.212463416,0 L5.53612061,0 L5.63269489,1.40093065 L5.26510903,1.40093065 C5.16853475,0.744225546 5.04298819,0.53176213 4.5987465,0.53176213" id="Fill-58" fill="#FFFFFF" mask="url(#mask-2)"></path>
                    </g>
                </g>
            </g>
        </g>
    </g>
</svg>