<?xml version="1.0" encoding="UTF-8"?>
<svg width="200px" height="36px" viewBox="0 0 200 36" version="1.1" xmlns="http://www.w3.org/2000/svg" xmlns:xlink="http://www.w3.org/1999/xlink">
    <title>Group 34</title>
    <defs>
        <polygon id="path-1" points="0 36.004 199.696 36.004 199.696 0 0 0"></polygon>
    </defs>
    <g id="Page-1" stroke="none" stroke-width="1" fill="none" fill-rule="evenodd">
        <g id="Group-34">
            <polygon id="Fill-1" fill="#5AA3D1" points="146.5116 13.5099 144.3626 13.5099 143.1246 9.7979 141.8246 13.5099 139.7256 13.5099 137.0136 5.1119 139.2756 4.7619 141.0746 10.7229 142.2756 7.2989 141.5746 5.0869 143.8496 4.7369 145.5246 10.7229 147.1736 4.8489 149.3106 4.8489"></polygon>
            <path d="M152.4481,10.0108 L154.3851,10.0108 L153.4231,7.0108 L152.4481,10.0108 Z M152.3601,4.8118 L154.7101,4.8118 L157.7091,13.2098 L155.5471,13.5598 L154.9101,11.6848 L151.9351,11.6848 L151.3601,13.4718 L149.2601,13.4718 L152.3601,4.8118 Z" id="Fill-2" fill="#5AA3D1"></path>
            <polygon id="Fill-3" fill="#5AA3D1" points="162.1874 6.6612 162.1874 13.4722 160.0384 13.4722 160.0384 6.6612 157.6014 6.6612 157.6014 4.8492 164.4244 4.8492 164.7244 6.6612"></polygon>
            <polygon id="Fill-4" fill="#5AA3D1" points="165.9921 13.4723 165.9921 4.8493 171.3661 4.8493 171.3661 6.5743 168.0921 6.5743 168.0921 8.1983 170.5911 8.1983 170.8661 9.9103 168.0921 9.9103 168.0921 11.7353 171.4781 11.7353 171.4781 13.4723"></polygon>
            <g id="Group-33">
                <path d="M175.9471,6.4615 L175.2601,6.4615 L175.2601,8.9735 L175.9221,8.9735 C176.8461,8.9735 177.3721,8.5235 177.3721,7.6985 C177.3721,6.8985 176.8721,6.4615 175.9471,6.4615 L175.9471,6.4615 Z M177.6961,13.5595 L175.8091,10.5105 L175.2721,10.5105 L175.2721,13.4725 L173.1471,13.4725 L173.1471,4.8495 L176.1591,4.8495 C178.2461,4.8495 179.4701,5.7985 179.4701,7.5735 C179.4701,8.7735 178.8711,9.5855 177.8461,10.0235 L179.9581,13.1975 L177.6961,13.5595 Z" id="Fill-5" fill="#5AA3D1"></path>
                <mask id="mask-2" fill="white">
                    <use xlink:href="#path-1"></use>
                </mask>
                <g id="Clip-8"></g>
                <polygon id="Fill-7" fill="#5AA3D1" mask="url(#mask-2)" points="137.014 31.212 139.152 31.212 139.152 22.589 137.014 22.589"></polygon>
                <polygon id="Fill-9" fill="#5AA3D1" mask="url(#mask-2)" points="146.5399 31.2124 143.1409 26.0514 143.1409 31.2124 141.1529 31.2124 141.1529 22.5894 143.2269 22.5894 146.4019 27.4134 146.4019 22.5894 148.3899 22.5894 148.3899 31.2124"></polygon>
                <path d="M153.0204,31.3125 C151.8584,31.3125 150.8834,31.0625 150.0084,30.6625 L150.3214,28.8375 C151.2084,29.3125 152.1954,29.6375 153.0574,29.6375 C153.6694,29.6375 154.0944,29.3755 154.0944,28.8625 C154.0944,28.3755 153.8454,28.1505 152.6324,27.6885 C150.9084,27.0255 150.1584,26.4635 150.1584,25.0395 C150.1584,23.3765 151.4584,22.4895 153.1084,22.4895 C154.2324,22.4895 154.9574,22.7025 155.7074,23.0645 L155.3824,24.8635 C154.6074,24.4145 153.7944,24.1645 153.1324,24.1645 C152.4834,24.1645 152.1704,24.4385 152.1704,24.8385 C152.1704,25.2765 152.4084,25.4885 153.4824,25.9015 C155.3704,26.5885 156.1074,27.2385 156.1074,28.6135 C156.1074,30.4875 154.7324,31.3125 153.0204,31.3125" id="Fill-10" fill="#5AA3D1" mask="url(#mask-2)"></path>
                <polygon id="Fill-11" fill="#5AA3D1" mask="url(#mask-2)" points="161.6161 24.4014 161.6161 31.2124 159.4671 31.2124 159.4671 24.4014 157.0301 24.4014 157.0301 22.5894 163.8531 22.5894 164.1531 24.4014"></polygon>
                <polygon id="Fill-12" fill="#5AA3D1" mask="url(#mask-2)" points="165.446 31.212 167.584 31.212 167.584 22.589 165.446 22.589"></polygon>
                <polygon id="Fill-13" fill="#5AA3D1" mask="url(#mask-2)" points="173.5106 24.4014 173.5106 31.2124 171.3616 31.2124 171.3616 24.4014 168.9246 24.4014 168.9246 22.5894 175.7476 22.5894 176.0476 24.4014"></polygon>
                <path d="M182.5585,30.3877 C181.7585,30.9497 180.9715,31.2997 179.9965,31.2997 C178.3715,31.2997 177.2975,30.5127 177.2975,28.5127 L177.2975,22.5897 L179.4475,22.5897 L179.4475,28.2127 C179.4475,29.0627 179.8225,29.4747 180.6215,29.4747 C181.1595,29.4747 181.7465,29.2127 182.3465,28.7627 L182.3465,22.5897 L184.4835,22.5897 L184.4835,31.2127 L182.6835,31.2127 L182.5585,30.3877 Z" id="Fill-14" fill="#5AA3D1" mask="url(#mask-2)"></path>
                <polygon id="Fill-15" fill="#5AA3D1" mask="url(#mask-2)" points="190.4052 24.4014 190.4052 31.2124 188.2562 31.2124 188.2562 24.4014 185.8192 24.4014 185.8192 22.5894 192.6422 22.5894 192.9422 24.4014"></polygon>
                <polygon id="Fill-16" fill="#5AA3D1" mask="url(#mask-2)" points="194.2098 31.2124 194.2098 22.5894 199.5838 22.5894 199.5838 24.3144 196.3098 24.3144 196.3098 25.9384 198.8088 25.9384 199.0838 27.6504 196.3098 27.6504 196.3098 29.4754 199.6958 29.4754 199.6958 31.2124"></polygon>
                <polygon id="Fill-17" fill="#5AA3D1" mask="url(#mask-2)" points="126.718 36.004 127.118 36.004 127.118 0 126.718 0"></polygon>
                <path d="M11.9129,9.877 C11.9669,9.93 11.9989,9.922 11.9989,9.922 C15.9519,9.769 18.2159,11.273 18.4089,11.887 L19.9879,11.859 L20.4789,10.789 C20.5089,10.702 20.4939,10.572 20.4639,10.537 C19.9879,10.009 16.0089,8.872 11.2099,8.872 C6.0879,8.872 2.8399,9.884 2.1549,10.39 C2.1549,10.39 1.9929,10.489 1.9858704,10.639 C1.9839,10.709 2.0839,10.902 2.0839,10.902 L2.2229,11.202 C2.2659,11.292 2.3269,11.285 2.4319,11.224 C2.4319,11.224 2.5239,11.195 2.5439,11.134 C2.5619,11.074 2.5029,10.967 2.5029,10.967 C2.3999,10.759 2.5369,10.732 2.5449,10.727 L2.8379,10.595 C2.9769,10.555 2.9939,10.629 3.0409,10.739 C3.0409,10.739 3.0939,10.893 3.1329,10.916 C3.2059,10.961 3.4399,10.829 4.1369,10.659 C4.1849,10.65 4.2109,10.644 4.3039,10.608 C4.3709,10.581 4.3109,10.345 4.3109,10.345 C4.2859,10.231 4.2329,10.111 4.4869,10.072 L4.9219,9.984 C5.1249,9.93 5.1439,10.036 5.1699,10.154 C5.1699,10.154 5.1839,10.329 5.2279,10.403 C5.2849,10.495 5.3899,10.349 6.7219,10.206 C6.7219,10.206 6.9149,10.201 6.9539,10.134 C6.9939,10.064 6.9609,9.908 6.9609,9.908 C6.9479,9.746 6.8819,9.628 7.1889,9.609 L7.7719,9.554 C8.2089,9.485 8.1359,9.631 8.1509,9.791 C8.1509,9.791 8.1659,9.966 8.1989,9.997 C8.2309,10.029 8.3689,10.025 8.3689,10.025 C9.1149,9.948 9.5339,9.953 10.3249,9.919 C10.3249,9.919 10.4369,9.918 10.4769,9.872 C10.5189,9.826 10.5069,9.776 10.5069,9.776 C10.5069,9.687 10.4879,9.544 10.5449,9.484 C10.6119,9.416 10.7139,9.444 10.8179,9.444 L11.4849,9.444 C11.5879,9.444 11.7959,9.398 11.8569,9.472 C11.8939,9.518 11.8819,9.803 11.8819,9.803 C11.8819,9.803 11.8819,9.848 11.9129,9.877" id="Fill-18" fill="#5AA3D1" mask="url(#mask-2)"></path>
                <path d="M11.2407,3.4566 C7.3767,3.4566 4.9987,4.6976 3.4767,6.1906 C3.4767,6.1906 3.4507,6.2156 3.4377,6.2556 C3.4087,6.3316 3.4007,6.4456 3.5577,6.3906 C6.8677,5.0016 10.4847,5.8716 11.6377,7.1796 C11.6787,7.2426 11.6397,7.2566 11.5927,7.2566 C10.4287,7.2706 9.4527,7.2016 7.3007,7.5026 C6.1377,7.6666 5.1017,7.8356 4.2287,8.0626 C2.7907,8.4366 1.7697,8.9066 1.1997,9.2856 C0.9897,9.3976 0.9737,9.4776 0.9227,9.5736 C0.8607,9.7616 0.8677,9.7596 0.8287,9.8876 C0.7577,10.1296 0.7197,10.2836 0.7067,10.3646 C0.6827,10.5106 0.8417,10.4606 0.9237,10.3756 C1.0987,10.2016 1.5727,9.7826 2.2707,9.4576 C2.9817,9.1266 4.1557,8.7506 5.4327,8.5146 C7.1337,8.2016 9.2037,8.0006 11.0967,7.9966 C13.2917,7.9896 15.2597,8.2186 16.9047,8.5386 C18.5777,8.8656 19.9007,9.3176 20.7557,9.7356 C21.1567,9.9306 21.3827,10.1106 21.6517,10.3376 C21.8637,10.5556 21.8767,10.3696 21.8727,10.3126 C21.8727,10.3126 21.8347,10.0226 21.4787,9.3666 C20.3857,7.3566 17.4677,3.4566 11.2407,3.4566" id="Fill-19" fill="#5AA3D1" mask="url(#mask-2)"></path>
                <path d="M0.0126,29.3023 C0.0126,30.1993 3.7426,32.0393 11.4626,32.0393 C18.9536,32.0393 22.9086,30.1993 22.9086,29.3023 L22.8706,27.9263 C22.8706,27.9533 22.8646,27.8353 22.8536,27.8663 C22.8416,27.6183 22.4456,27.5703 21.2346,27.5523 L21.2076,26.7893 C21.2076,26.8673 20.9516,27.0333 20.7926,27.1253 C19.8066,27.6933 16.0366,28.5413 11.3226,28.5413 C5.8636,28.5413 2.0406,27.4103 1.4376,26.7893 L1.4246,27.9673 C3.2226,29.2513 8.7576,30.4023 14.3466,29.8073 C14.5126,29.8033 14.5686,29.7683 14.7376,29.8163 C14.7836,29.8323 14.9376,29.9663 14.6336,30.0773 C11.3926,31.1473 3.3896,30.9083 -0.0004,28.3363 L0.0156,29.3023" id="Fill-20" fill="#5AA3D1" mask="url(#mask-2)"></path>
                <path d="M15.9816,11.5222 L16.0496,11.5222 C16.0386,11.5192 16.0266,11.5182 16.0156,11.5182 C16.0036,11.5182 15.9916,11.5192 15.9816,11.5222" id="Fill-21" fill="#5AA3D1" mask="url(#mask-2)"></path>
                <path d="M15.899,11.8109 C15.899,11.8149 15.901,11.8209 15.901,11.8239 L15.901,11.5829 C15.901,11.5859 15.899,11.5909 15.899,11.5959 L15.899,11.8109 Z" id="Fill-22" fill="#5AA3D1" mask="url(#mask-2)"></path>
                <polygon id="Fill-23" fill="#5AA3D1" mask="url(#mask-2)" points="15.9008 11.8238 15.9008 11.8238 15.9008 11.5828"></polygon>
                <path d="M13.8546,11.4344 C13.8566,11.4344 13.8576,11.4304 13.8636,11.4304 L13.8446,11.4304 C13.8476,11.4304 13.8506,11.4344 13.8546,11.4344" id="Fill-24" fill="#5AA3D1" mask="url(#mask-2)"></path>
                <path d="" id="Fill-25" fill="#5AA3D1" mask="url(#mask-2)"></path>
                <path d="M16.0343,10.9688 L13.9233,10.9668 C13.8203,10.9668 13.7753,11.0198 13.7732847,11.1198 L13.7732847,11.3588 C13.7723,11.4688 13.8203,11.5178 13.9333,11.5188 L14.5863,11.5188 C14.6463,11.5158 14.6623,11.5438 14.6653,11.5528 C14.6893,11.6188 14.5693,11.6708 14.5293,11.6988 L14.2063,11.9108 C14.1633,11.9368 14.1203,11.9968 14.1203,12.1128 L14.1063,27.2358 C14.1373,27.5018 14.5603,27.5278 15.0203,27.5248 C15.4073,27.5238 15.8663,27.5028 15.9143,27.2438 C15.9143,27.2438 15.9013,12.8498 15.9153,11.6048 C15.9183,11.5478 15.9423,11.5368 15.9523,11.5308 C15.9663,11.5218 16.0323,11.5158 16.0323,11.5158 C16.1283,11.5118 16.1803,11.4638 16.1803,11.3698 L16.1803,11.1138 C16.1773,11.0208 16.1173,10.9718 16.0343,10.9688" id="Fill-26" fill="#5AA3D1" mask="url(#mask-2)"></path>
                <path d="M12.5674,21.4893 L12.6154,21.3893 L12.7594,21.3893 L12.7574,21.2953 L9.8274,21.2953 L9.8274,21.3893 L9.9834,21.3893 L10.0254,21.4823 L10.2014,21.8493 C10.2014,21.8493 10.2324,21.8823 10.2724,21.8993 C10.3074,21.9153 10.3854,21.9223 10.4144,21.9223 C11.1844,21.9303 11.0164,21.9223 11.1364,21.9223 C11.1934,21.9233 11.2724,21.9233 11.3104,21.9693 C11.3364,22.0033 11.3584,22.0933 11.2504,22.1633 C10.9994,22.3313 10.5794,22.6063 10.3844,22.7343 C10.3594,22.7473 10.2934,22.7913 10.2724,22.8463 C10.2454,22.9053 10.2524,22.9503 10.2524,22.9503 L10.2524,25.7933 L10.0044,25.8893 C10.0044,25.8893 9.9274,26.4573 10.0134,26.5153 C10.0964,26.5733 12.4844,26.5733 12.5684,26.5193 C12.6494,26.4653 12.5784,25.8803 12.5784,25.8803 L12.3264,25.7933 L12.3264,21.9763 L12.5674,21.4893 Z" id="Fill-27" fill="#5AA3D1" mask="url(#mask-2)"></path>
                <path d="M20.1269,11.7946 L18.0159,11.7914815 C17.9129,11.7886 17.8669,11.8426 17.8639,11.9466 L17.8639,12.1816 C17.8639,12.2926 17.9119,12.3406 18.0229,12.3436 L18.6789,12.3436 C18.7379,12.3396 18.7539,12.3666 18.7569,12.3766 C18.7819,12.4426 18.6619,12.4976 18.6199,12.5236 L18.2989,12.7356 C18.2529,12.7606 18.2119,12.8196 18.2129,12.9376 L18.1999,26.5726 C18.2299,26.8366 18.6519,26.8606 19.1129,26.8596285 C19.5019,26.8596285 19.9579,26.8366 20.0059,26.5796 C20.0059,26.5796 19.9929,13.6736 20.0079,12.4306 C20.0079,12.3736 20.0349,12.3586 20.0429,12.3546 C20.0579,12.3456 20.1239,12.3396 20.1239,12.3396 C20.2199,12.3366 20.2729,12.2876 20.2729,12.1936 L20.2729,11.9366 C20.2679,11.8446 20.2099,11.7966 20.1269,11.7946" id="Fill-28" fill="#5AA3D1" mask="url(#mask-2)"></path>
                <path d="M8.5912,10.9688 L6.4812,10.9668 C6.3782,10.9668 6.3302,11.0208 6.3302,11.1228 L6.3302,11.3588 C6.3302,11.4688 6.3762,11.5188 6.4882,11.5188 L7.1432,11.5188 C7.2032,11.5158 7.2192,11.5448 7.2222,11.5528 C7.2462,11.6188 7.1262,11.6738 7.0852,11.6988 L6.7642,11.9108 C6.7202,11.9368 6.6762,11.9988 6.6772,12.1128 L6.6642,27.2398 C6.6942,27.5028 7.1172,27.5278 7.5772,27.5248 C7.9652,27.5248 8.4232,27.5028 8.4712,27.2448 C8.4712,27.2448 8.4602,12.8498 8.4742,11.6078 C8.4742,11.5498 8.4992,11.5368 8.5082,11.5308 C8.5232,11.5218 8.5892,11.5158 8.5892,11.5158 C8.6842,11.5138 8.7372,11.4638 8.7372,11.3698 L8.7372,11.1158 C8.7332,11.0208 8.6732,10.9718 8.5912,10.9688" id="Fill-29" fill="#5AA3D1" mask="url(#mask-2)"></path>
                <path d="M4.4835,11.8327 L2.3725,11.8297 C2.2705,11.8297 2.2225,11.8827 2.2215,11.9857 L2.2215,12.2217 C2.2215,12.3317 2.2685,12.3807 2.3805,12.3807 L3.0365,12.3817 C3.0945,12.3777 3.1105,12.4057 3.1135,12.4157 C3.1385,12.4807 3.0185,12.5367 2.9765,12.5647 L2.6575,12.7727 C2.6105,12.7997 2.5675,12.8617 2.5705,12.9767 L2.5575,26.6107 C2.5855,26.8757 3.0095,26.9027 3.4695,26.9007962 C3.8585,26.9007962 4.3145,26.8757 4.3635,26.6187 C4.3635,26.6187 4.3525,13.7117 4.3665,12.4697 C4.3665,12.4127 4.3925,12.3987 4.4005,12.3937 C4.4155,12.3817 4.4795,12.3777 4.4795,12.3777 C4.5765,12.3767 4.6305,12.3287 4.6305,12.2317 L4.6305,11.9777 C4.6245,11.8857 4.5655,11.8347 4.4835,11.8327" id="Fill-30" fill="#5AA3D1" mask="url(#mask-2)"></path>
                <path d="M115.0319,11.7475 C113.6249,7.7705 109.9489,5.1615 105.2869,5.1615 C98.1509,5.1615 93.7039,10.3345 93.7039,17.5135 C93.7039,25.2495 99.2629,30.9355 105.7569,30.9355 C109.1349,30.9355 113.2849,29.7805 116.1869,24.6115 L116.9999,24.6115 C116.4429,26.5305 115.2899,29.1855 114.2649,30.8485 C111.5269,30.4675 109.6509,32.0085 104.6049,32.0085 C95.9249,32.0085 89.6879,26.2795 89.6879,18.3715 C89.6879,10.0765 96.0979,4.0955 105.0319,4.0955 C110.4179,4.0955 112.7219,5.8055 114.0509,5.8055 C114.5209,5.8055 114.7319,5.6765 114.8199,5.5485 L115.4569,5.5485 L115.8459,11.7475 L115.0319,11.7475 Z" id="Fill-31" fill="#5AA3D1" mask="url(#mask-2)"></path>
                <path d="M79.5205,4.7369 L79.5205,5.5479 C82.9335,5.6339 83.7045,6.1049 83.7045,8.7099 L83.7045,25.7199 L63.5745,4.7369 L62.1895,4.7369 L60.4555,4.7369 L53.6605,4.7369 L52.0525,4.7369 L47.5045,4.7369 L47.5045,5.5479 C51.0525,5.7199 51.6935,6.4469 51.6935,10.5469 L51.6935,20.5059 C51.6935,27.7709 46.7775,29.7809 41.9515,29.7809 C35.5815,29.7809 32.2055,26.3189 32.2055,20.5469 L32.2055,8.6699 C32.2055,6.1879 33.2335,5.5479 35.5815,5.5479 L35.9685,5.5479 L35.9685,4.7369 L24.9825,4.7369 L24.9825,5.5479 C27.8895,5.5919 28.6585,6.0209 28.6585,8.7539 L28.6585,21.2359 C28.6585,27.3449 32.8455,32.0079 41.0095,32.0079 C50.2855,32.0079 53.6605,26.3189 53.6605,21.0179 L53.6605,9.4819 C53.6605,6.3149 55.1795,5.5619 57.1615,5.5619 C58.3495,5.5619 59.4975,5.9309 60.4555,6.6029 L60.4555,27.6429 C60.4555,29.6079 59.6005,30.5069 56.9495,30.5069 L56.7795,30.5069 L56.7795,31.3199 L66.6995,31.3199 L66.6995,30.5069 C63.0655,30.5069 62.3805,29.8679 62.3805,26.7899 L62.3805,8.4539 L84.5155,31.6219 L85.6305,31.6219 L85.6305,7.7709 C85.6305,6.1049 86.3135,5.5479 89.5225,5.5479 L89.5225,4.7369 L79.5205,4.7369 Z" id="Fill-32" fill="#5AA3D1" mask="url(#mask-2)"></path>
            </g>
        </g>
    </g>
</svg>