<?xml version="1.0" encoding="UTF-8"?>
<svg width="207px" height="55px" viewBox="0 0 207 55" version="1.1" xmlns="http://www.w3.org/2000/svg" xmlns:xlink="http://www.w3.org/1999/xlink">
    <title>WI-logo</title>
    <defs>
        <polygon id="path-1" points="0 0 7.12144928 0 7.12144928 7.21449275 0 7.21449275"></polygon>
    </defs>
    <g id="Symbols" stroke="none" stroke-width="1" fill="none" fill-rule="evenodd">
        <g id="Header" transform="translate(-250.000000, -117.000000)">
            <g id="WI-logo" transform="translate(250.000000, 117.128438)">
                <polygon id="Fill-1" fill="#4B9CD3" points="51.8550725 54 52.4833333 54 52.4833333 0 51.8550725 0"></polygon>
                <g id="Group-61" transform="translate(0.000000, 3.609710)">
                    <path d="M26.2061594,13.1878986 L26.3148551,13.1878986 C26.2974638,13.1842754 26.2793478,13.1842754 26.2605072,13.1842754 C26.2402174,13.1842754 26.2213768,13.1842754 26.2061594,13.1878986" id="Fill-2" fill="#4B9CD3"></path>
                    <path d="M26.0702899,13.6613043 C26.0702899,13.6692754 26.0717391,13.677971 26.0731884,13.6837681 L26.0724638,13.2881159 C26.0717391,13.2975362 26.0702899,13.3026087 26.0702899,13.3113043 L26.0702899,13.6613043 Z" id="Fill-4" fill="#4B9CD3"></path>
                    <polygon id="Fill-6" fill="#4B9CD3" points="26.0730435 13.683913 26.0730435 13.683913 26.0723188 13.2882609"></polygon>
                    <path d="M22.7244203,13.0456522 C22.7302174,13.0456522 22.7345652,13.0442029 22.7403623,13.0442029 L22.7099275,13.0442029 C22.715,13.0442029 22.7215217,13.0456522 22.7244203,13.0456522" id="Fill-8" fill="#4B9CD3"></path>
                    <path d="M19.5526812,10.5051449 C19.638913,10.5848551 19.6925362,10.5747101 19.6925362,10.5747101 C26.1555797,10.3239855 29.8577536,12.779058 30.1744203,13.7877536 L32.7584783,13.7413768 L33.5613768,11.9928261 C33.6099275,11.8464493 33.5867391,11.6377536 33.5331159,11.579058 C32.7563043,10.7145652 26.2512319,8.85949275 18.4026812,8.85949275 C10.0265942,8.85949275 4.71572464,10.510942 3.59688406,11.3406522 C3.59688406,11.3406522 3.32514493,11.5007971 3.31860145,11.7478986 C3.31644928,11.860942 3.47804348,12.1754348 3.47804348,12.1754348 L3.70630435,12.6667391 C3.77731884,12.810942 3.87514493,12.8044203 4.04688406,12.7044203 C4.04688406,12.7044203 4.20123188,12.6580435 4.22949275,12.5580435 C4.25775362,12.4551449 4.16282609,12.2834058 4.16282609,12.2834058 C3.99833333,11.9428261 4.21862319,11.9022464 4.23094203,11.8942754 L4.71065217,11.6739855 C4.93891304,11.6073188 4.96355072,11.7283333 5.04181159,11.910942 C5.04181159,11.910942 5.13094203,12.1645652 5.19326087,12.2007971 C5.31355072,12.2747101 5.69471014,12.0580435 6.83601449,11.7812319 C6.91427536,11.7645652 6.95485507,11.7580435 7.10630435,11.6942754 C7.22007246,11.6486232 7.1207971,11.2667391 7.1207971,11.2667391 C7.07949275,11.0783333 6.99326087,10.8877536 7.40775362,10.8174638 L8.12224638,10.6747101 C8.4534058,10.5877536 8.48456522,10.7602174 8.52442029,10.9515217 C8.52442029,10.9515217 8.54615942,11.2413768 8.61934783,11.3623913 C8.71282609,11.5116667 8.88384058,11.2703623 11.0635507,11.0384783 C11.0635507,11.0384783 11.3802174,11.0319565 11.4418116,10.921087 C11.5063043,10.8051449 11.4555797,10.5486232 11.4555797,10.5486232 C11.4302174,10.287029 11.322971,10.0913768 11.8294928,10.0645652 L12.7802174,9.9776087 C13.4947101,9.86021739 13.3736957,10.1000725 13.399058,10.3616667 C13.399058,10.3616667 13.422971,10.645 13.4773188,10.695 C13.530942,10.7478986 13.7555797,10.7428261 13.7555797,10.7428261 C14.9765942,10.6160145 15.6592029,10.6225362 16.957029,10.5681884 C16.957029,10.5681884 17.1374638,10.5681884 17.2048551,10.4906522 C17.2686232,10.4145652 17.2497826,10.3348551 17.2497826,10.3348551 C17.2497826,10.1884783 17.2215217,9.96021739 17.3157246,9.85731884 C17.422971,9.74282609 17.5896377,9.79282609 17.7592029,9.79282609 L18.8497826,9.79282609 C19.0186232,9.79282609 19.3606522,9.71891304 19.4577536,9.83775362 C19.5207971,9.91528986 19.5019565,10.3747101 19.5019565,10.3747101 C19.5019565,10.3747101 19.5005072,10.4551449 19.5526812,10.5051449" id="Fill-10" fill="#4B9CD3"></path>
                    <path d="M18.4516667,0 C12.1321014,0 8.24731884,2.02971014 5.75891304,4.47101449 C5.75891304,4.47101449 5.71471014,4.51449275 5.69152174,4.57753623 C5.64442029,4.70289855 5.63355072,4.88695652 5.88934783,4.79637681 C11.3016667,2.52681159 17.2154348,3.95 19.0994928,6.09275362 C19.1654348,6.19275362 19.1067391,6.21666667 19.0263043,6.21666667 C17.1226812,6.23550725 15.5292029,6.12463768 12.0118116,6.61811594 C10.1067391,6.88333333 8.41471014,7.1615942 6.98644928,7.53333333 C4.63355072,8.14782609 2.96471014,8.91014493 2.03210145,9.52826087 C1.69007246,9.71376812 1.66326087,9.84710145 1.57847826,10.0043478 C1.47775362,10.3086957 1.4907971,10.3086957 1.42413043,10.5173913 C1.30818841,10.9137681 1.24876812,11.1637681 1.22485507,11.2956522 C1.185,11.5384058 1.44804348,11.4528986 1.58427536,11.3144928 C1.86543478,11.0318841 2.64152174,10.3449275 3.78355072,9.81376812 C4.94586957,9.27391304 6.87050725,8.65797101 8.95456522,8.27173913 C11.7357246,7.75724638 15.1197826,7.42826087 18.2161594,7.42536232 C21.8067391,7.4173913 25.0226812,7.78695652 27.7154348,8.31086957 C30.4502174,8.84492754 32.6139855,9.58478261 34.0125362,10.2681159 C34.669058,10.5876812 35.0364493,10.8804348 35.477029,11.257971 C35.8248551,11.6101449 35.8458696,11.3065217 35.8386232,11.2130435 C35.8386232,11.2130435 35.7726812,10.7369565 35.1922464,9.66594203 C33.4074638,6.37971014 28.6306522,0 18.4516667,0" id="Fill-12" fill="#4B9CD3"></path>
                    <path d="M37.5427536,40.0121739 C37.542029,40.0027536 37.5405797,39.9947826 37.5369565,39.9868116 C37.5362319,39.9773913 37.5362319,39.9650725 37.5355072,39.952029 C37.5318841,39.9368116 37.5304348,39.9223188 37.5275362,39.9063768 C37.5188406,39.902029 37.5181159,39.8926087 37.5101449,39.8795652 C37.4181159,39.41 36.7355072,39.3752174 34.865942,39.3324638 L34.8224638,38.1549275 C34.8202899,38.1150725 34.7876812,38.0846377 34.7478261,38.0846377 C34.7094203,38.086087 34.6775362,38.117971 34.6775362,38.1578261 C34.6775362,38.1585507 34.6775362,38.1592754 34.6782609,38.16 L34.6775362,38.16 L34.6775362,38.1636232 C34.6644928,38.2172464 34.2804348,38.5194203 34.0369565,38.6411594 C32.4536232,39.5628986 26.2833333,40.9527536 18.5862319,40.9498551 C9.67463768,40.9563768 3.41304348,39.0875362 2.47391304,38.1071014 C2.45434783,38.086087 2.42318841,38.0788406 2.39565217,38.0897101 C2.36884058,38.1013043 2.35072464,38.1266667 2.35072464,38.1563768 L2.32971014,40.0868116 L2.35942029,40.1469565 C4.77681159,41.8665217 11.2115942,43.4252174 18.4601449,43.4288406 C20.1224638,43.4288406 21.8275362,43.344058 23.5391304,43.1636232 C23.6978261,43.1578261 23.7978261,43.1353623 23.8949275,43.1368116 C23.965942,43.1368116 24.0384058,43.144058 24.1485507,43.1802899 C24.1601449,43.1817391 24.2369565,43.2404348 24.2275362,43.2766667 C24.2311594,43.3005797 24.1978261,43.3795652 23.9753623,43.4650725 C22.0898551,44.086087 19.1927536,44.4397101 16.0021739,44.4397101 C10.2949275,44.4397101 3.64202899,43.3078261 0.115942029,40.6266667 C0.0934782609,40.61 0.0630434783,40.6078261 0.0391304348,40.6201449 C0.0152173913,40.6317391 0,40.6585507 0,40.6853623 L0.0246376812,42.2665217 L0.0963768116,42.2657971 L0.0963768116,42.2665217 L0.0913043478,42.2665217 L0.0246376812,42.2665217 L0.0195652174,42.2665217 L0.018115942,42.2665217 C0.0739130435,43.8592754 6.17463768,46.7911594 18.8152174,46.8157971 C31.0797101,46.7911594 37.5471014,43.8607246 37.6057971,42.2665217 L37.5427536,40.0121739 Z" id="Fill-14" fill="#4B9CD3"></path>
                    <path d="M26.291087,12.2834783 L22.8396377,12.2805797 C22.6715217,12.2805797 22.5954348,12.3682609 22.5932558,12.5356522 L22.5932558,12.9218841 C22.5925362,13.1044928 22.6700725,13.1842029 22.8534058,13.1842029 L23.9222464,13.1842029 C24.0222464,13.1813043 24.0468841,13.2284058 24.049058,13.2414493 C24.0939855,13.3457971 23.8947101,13.4385507 23.8302174,13.4784058 L23.3026812,13.824058 C23.2280435,13.8704348 23.1606522,13.9646377 23.1621014,14.1581159 L23.1374638,38.8914493 C23.188913,39.3218841 23.8816667,39.3646377 24.6323913,39.3618678 C25.2671739,39.3573913 26.015,39.3218841 26.0947101,38.8986957 C26.0947101,38.8986957 26.072971,15.3617391 26.0968841,13.3276812 C26.0983333,13.2342029 26.141087,13.2131884 26.1555797,13.2044928 C26.1787681,13.1878261 26.2874638,13.1813043 26.2874638,13.1813043 C26.4454348,13.174058 26.530942,13.0986957 26.530942,12.9385507 L26.530942,12.5233333 C26.5236957,12.374058 26.4258696,12.2914493 26.291087,12.2834783" id="Fill-16" fill="#4B9CD3"></path>
                    <path d="M21.005942,29.1730435 C21.005942,29.1324638 20.974058,29.1013043 20.9334783,29.1013043 L16.1421739,29.1013043 C16.1015942,29.1013043 16.0697101,29.1310145 16.0682609,29.1715942 L16.0653623,29.3281159 C16.063913,29.3476812 16.0711594,29.3672464 16.0849275,29.3802899 C16.097971,29.3947826 16.1182609,29.4027536 16.1378261,29.4027536 L16.3494203,29.4027536 L16.3994203,29.5085507 L16.6871014,30.1128986 C16.7037681,30.1331884 16.7566667,30.1904348 16.8349275,30.2281159 C16.9247826,30.2628986 17.0450725,30.2672464 17.0994203,30.2686957 C17.4914493,30.2723188 17.7349275,30.2723188 17.8914493,30.2723188 C18.2052174,30.2723188 18.166087,30.2657971 18.2530435,30.2657971 C18.2588406,30.2657971 18.263913,30.2657971 18.2711594,30.2672464 C18.3747826,30.2657971 18.4842029,30.2817391 18.505942,30.3230435 C18.5146377,30.333913 18.5269565,30.3578261 18.5269565,30.3846377 C18.5255072,30.4208696 18.5117391,30.4715942 18.4262319,30.5346377 C18.0153623,30.8034783 17.3305797,31.2542029 17.0102899,31.4628986 C16.963913,31.4889855 16.8523188,31.5628986 16.8001449,31.6795652 C16.7653623,31.7665217 16.7610145,31.836087 16.7610145,31.8657971 C16.7610145,31.8773913 16.7610145,31.8853623 16.7624638,31.8868116 L16.7610145,36.4788406 L16.4001449,36.6215942 L16.3552174,36.6788406 C16.3537681,36.6802899 16.3044928,37.0556522 16.3044928,37.3614493 C16.3124638,37.5353623 16.3001449,37.675942 16.4037681,37.7665217 C16.5465217,37.8418841 17.5392754,37.8433333 18.5871014,37.8498551 C19.5950725,37.8447826 20.5233333,37.8389855 20.6602899,37.775942 C20.766087,37.6824638 20.7472464,37.5447826 20.7581159,37.3614493 C20.7581159,37.0484058 20.7117391,36.6621739 20.7117391,36.6607246 L20.6617391,36.6005797 L20.2965217,36.475942 L20.2965217,30.2897101 L20.6842029,29.525942 L20.7457971,29.4013043 L20.9356522,29.4027536 C20.9552174,29.4027536 20.9733333,29.3947826 20.9863768,29.3802899 C21.0001449,29.3672464 21.0073913,29.3491304 21.0073913,29.3295652 L21.005942,29.1730435 Z" id="Fill-18" fill="#4B9CD3"></path>
                    <path d="M32.9839855,13.632971 L29.531087,13.6293304 C29.362971,13.6278986 29.2868841,13.717029 29.2839805,13.8815217 L29.2839805,14.2677536 C29.2832609,14.4503623 29.3607971,14.5336957 29.5448551,14.5336957 L30.6136957,14.5336957 C30.7122464,14.5271739 30.7376087,14.5742754 30.7434058,14.5858696 C30.7832609,14.6916667 30.5876087,14.7858696 30.5216667,14.8286232 L29.9934058,15.1699275 C29.9202174,15.2155797 29.8506522,15.3119565 29.8535507,15.5018116 L29.831087,37.8018116 C29.8832609,38.2380435 30.5723913,38.2786232 31.3238406,38.2758586 C31.9593478,38.2713768 32.7086232,38.2380435 32.7876087,37.8119565 C32.7876087,37.8119565 32.7665942,16.709058 32.7883333,14.6764493 C32.7897826,14.5822464 32.8325362,14.559058 32.8492029,14.548913 C32.870942,14.5351449 32.9781884,14.5271739 32.9781884,14.5271739 C33.1361594,14.5213768 33.2231159,14.4445652 33.2231159,14.2873188 L33.2231159,13.8706522 C33.2151449,13.717029 33.1173188,13.6402174 32.9839855,13.632971" id="Fill-20" fill="#4B9CD3"></path>
                    <path d="M14.1193478,12.287029 L10.6671739,12.2834058 C10.4997826,12.2834058 10.4236957,12.3681884 10.4215217,12.5355797 L10.4215217,12.9254348 C10.4215217,13.1080435 10.4976087,13.1841304 10.680942,13.1841304 L11.7512319,13.1877536 C11.849058,13.1812319 11.8751449,13.2283333 11.8780435,13.2413768 C11.9215217,13.3457246 11.722971,13.4384783 11.6584783,13.4848551 L11.1316667,13.8239855 C11.0577536,13.871087 10.988913,13.9674638 10.988913,14.1580435 L10.9686232,38.8913768 C11.0193478,39.3218116 11.7084783,39.3645652 12.4621014,39.3617953 C13.0976087,39.3617953 13.8454348,39.3268841 13.922971,38.902971 C13.922971,38.902971 13.9034058,15.3616667 13.9251449,13.3283333 C13.9251449,13.2348551 13.9678986,13.2131159 13.9838406,13.2073188 C14.0084783,13.1892029 14.1135507,13.1812319 14.1135507,13.1812319 C14.2736957,13.1739855 14.3584783,13.0986232 14.3592029,12.9413768 L14.3592029,12.5232609 C14.3512319,12.3739855 14.2548551,12.2913768 14.1193478,12.287029" id="Fill-22" fill="#4B9CD3"></path>
                    <path d="M7.40362319,13.6973188 L3.95072464,13.6973188 C3.7826087,13.6944928 3.70652174,13.7785507 3.70507246,13.9495652 L3.70507246,14.3357971 C3.70507246,14.5184058 3.78188406,14.5966667 3.96449275,14.5966667 L5.03478261,14.6010145 C5.13188406,14.5908696 5.15724638,14.6394203 5.16231884,14.6510145 C5.20362319,14.7597101 5.00724638,14.8488406 4.93985507,14.8937681 L4.41304348,15.2350725 C4.34057971,15.2821739 4.27246377,15.3785507 4.27318841,15.5655072 L4.25217391,37.8669565 C4.30289855,38.3046377 4.99275362,38.3423188 5.74492754,38.3423188 C6.37971014,38.3394203 7.12753623,38.3046377 7.2057971,37.8785507 C7.2057971,37.8785507 7.18695652,16.7727536 7.20869565,14.7415942 C7.20942029,14.6481159 7.25217391,14.622029 7.2673913,14.6155072 C7.29202899,14.6010145 7.39782609,14.5908696 7.39782609,14.5908696 C7.55652174,14.5865217 7.64202899,14.5075362 7.64275362,14.3510145 L7.64275362,13.9372464 C7.63478261,13.7821739 7.5384058,13.7010145 7.40362319,13.6973188" id="Fill-24" fill="#4B9CD3"></path>
                    <path d="M101.38,1.48043478 L101.38,2.32391304 C98.4053623,2.36956522 97.3408696,3.56521739 97.3408696,6.41304348 L97.3408696,18.4043478 C97.3408696,23.9144928 93.8321739,29.8289855 84.1908696,29.8289855 C75.703913,29.8289855 71.3517391,24.9818841 71.3517391,18.6311594 L71.3517391,5.6557971 C71.3517391,2.81521739 70.5517391,2.36956522 67.53,2.32391304 L67.53,1.48043478 L78.9502899,1.48043478 L78.9502899,2.32391304 L78.5481159,2.32391304 C76.1068116,2.32391304 75.0386957,2.98913043 75.0386957,5.56956522 L75.0386957,17.9152174 C75.0386957,23.9144928 78.5481159,27.5137681 85.1691304,27.5137681 C90.1857971,27.5137681 95.2966667,25.4246377 95.2966667,17.8724638 L95.2966667,7.51956522 C95.2966667,3.25797101 94.63,2.50217391 90.9415942,2.32391304 L90.9415942,1.48043478 L101.38,1.48043478 Z" id="Fill-26" fill="#4B9CD3"></path>
                    <path d="M129.41471,29.4271014 L106.40529,5.34449275 L106.40529,24.403913 C106.40529,27.603913 107.117609,28.2676812 110.895145,28.2676812 L110.895145,29.1126087 L100.583551,29.1126087 L100.583551,28.2676812 L100.760362,28.2676812 C103.516159,28.2676812 104.404565,27.3336232 104.404565,25.2915942 L104.404565,3.43652174 C103.385725,2.7242029 102.224855,2.36913043 100.671232,2.3242029 L100.671232,1.48072464 L107.646594,1.48072464 L128.571957,23.2915942 L128.571957,5.61043478 C128.571957,2.90246377 127.770507,2.41333333 124.222681,2.3242029 L124.222681,1.48072464 L134.619058,1.48072464 L134.619058,2.3242029 C131.283551,2.3242029 130.573406,2.90246377 130.573406,4.63362319 L130.573406,29.4271014 L129.41471,29.4271014 Z" id="Fill-28" fill="#4B9CD3"></path>
                    <path d="M161.136449,8.76789855 C159.67413,4.63384058 155.852391,1.92224638 151.006739,1.92224638 C143.588623,1.92224638 138.966159,7.29905797 138.966159,14.7613768 C138.966159,22.8034058 144.745145,28.7135507 151.495145,28.7135507 C155.006739,28.7135507 159.319783,27.5135507 162.337174,22.1396377 L163.182101,22.1396377 C162.603841,24.1352899 161.404565,26.8954348 160.339348,28.622971 C157.492971,28.2273188 155.542246,29.8287681 150.298043,29.8287681 C141.274855,29.8287681 134.791522,23.8736957 134.791522,15.6534058 C134.791522,7.03166667 141.454565,0.813550725 150.741522,0.813550725 C156.340797,0.813550725 158.735725,2.59181159 160.116884,2.59181159 C160.60529,2.59181159 160.824855,2.45702899 160.915435,2.32369565 L161.579203,2.32369565 L161.982101,8.76789855 L161.136449,8.76789855 Z" id="Fill-30" fill="#4B9CD3"></path>
                    <path d="M77.3575362,37.6698551 C77.5430435,37.3104348 77.5198551,37.1365217 76.9973913,37.1365217 L76.3713043,37.1365217 C75.9075362,37.1365217 75.8611594,37.2988406 76.0350725,37.6466667 L76.695942,38.9807246 L77.3575362,37.6698551 Z M71.372029,38.1104348 C71.0242029,37.3684058 70.8966667,37.1365217 70.2821739,37.1365217 L70.1894203,37.1365217 L70.1894203,36.6843478 L73.2633333,36.6843478 L73.2633333,37.1365217 C72.7872464,37.1828986 72.7408696,37.3915942 72.9611594,37.8437681 L75.1068116,42.3213043 L75.8495652,40.8017391 L74.4807246,37.9256522 C74.1792754,37.2988406 74.0285507,37.1481159 73.6923188,37.1365217 L73.6923188,36.6843478 L78.7727536,36.6843478 L78.7727536,37.1365217 C78.3314493,37.2292754 78.1923188,37.3684058 77.8908696,37.9836232 L77.0437681,39.7002899 L78.2618841,42.1705797 L79.8626087,38.1104348 C80.1176812,37.4734783 80.0017391,37.1481159 79.306087,37.1365217 L79.306087,36.6843478 L81.6488406,36.6843478 L81.6488406,37.1365217 C81.0923188,37.1713043 80.8256522,37.4147826 80.5242029,38.18 L78.1807246,44.0604348 L77.4271014,44.0604348 L76.1857971,41.5097101 L74.9792754,44.0604348 L74.2024638,44.0604348 L71.372029,38.1104348 Z" id="Fill-32" fill="#4B9CD3"></path>
                    <path d="M86.100942,37.8673188 L85.127029,40.581087 L87.1683333,40.581087 L86.100942,37.8673188 Z M84.8951449,41.2194928 L84.4074638,42.5760145 C84.1987681,43.1673188 84.2103623,43.4463043 85.3241304,43.4463043 L85.4748551,43.4463043 L85.4748551,43.8984783 L82.400942,43.8984783 L82.400942,43.4463043 L82.5755797,43.4463043 C83.1321014,43.4463043 83.4219565,43.1912319 83.7118116,42.3796377 L85.6951449,36.8463043 L85.5676087,36.5100725 L87.2842754,36.5100725 L89.6038406,42.4028261 C89.9052899,43.1673188 90.161087,43.3999275 90.7639855,43.4463043 L90.7639855,43.8984783 L86.9944203,43.8984783 L86.9944203,43.4463043 L87.4002174,43.4463043 C88.1074638,43.4463043 88.2118116,43.1332609 87.9806522,42.5644203 L87.435,41.2194928 L84.8951449,41.2194928 Z" id="Fill-34" fill="#4B9CD3"></path>
                    <path d="M96.858913,42.5760145 C96.858913,43.1796377 97.0444203,43.4463043 97.8676087,43.4463043 L98.1458696,43.4463043 L98.1458696,43.8984783 L93.9705072,43.8984783 L93.9705072,43.4463043 L94.3647101,43.4463043 C95.0031159,43.4463043 95.2581884,43.1912319 95.2581884,42.5760145 L95.2581884,37.2868841 L93.8893478,37.2868841 C92.9958696,37.2868841 92.8574638,37.4267391 92.6364493,38.6557246 L92.161087,38.6557246 L92.3697826,36.4868841 L92.7407971,36.4868841 C92.8335507,36.5680435 92.8915217,36.6260145 92.9618116,36.6492029 C93.0422464,36.6731159 93.135,36.6839855 93.2973188,36.6839855 L98.819058,36.6839855 C99.1321014,36.6839855 99.1900725,36.6607971 99.3755797,36.4868841 L99.7465942,36.4868841 L99.9552899,38.6557246 L99.4799275,38.6557246 C99.2596377,37.4376087 99.1205072,37.2868841 98.227029,37.2868841 L96.858913,37.2868841 L96.858913,42.5760145 Z" id="Fill-36" fill="#4B9CD3"></path>
                    <path d="M107.529203,37.3223913 L104.988623,37.3223913 L104.988623,39.9318116 L106.868333,39.9318116 C107.506014,39.9318116 107.737899,39.7115217 107.737899,39.0963043 L108.201667,39.0963043 L108.201667,41.405 L107.737899,41.405 C107.737899,40.778913 107.587174,40.5694928 106.693696,40.5694928 L104.988623,40.5694928 L104.988623,42.6571739 C104.988623,43.1564493 105.081377,43.2607971 105.418333,43.2607971 L107.35529,43.2607971 C108.108913,43.2607971 108.469058,43.0513768 108.688623,42.0774638 L109.129928,42.0774638 L108.990797,43.8984783 L102.008188,43.8984783 L102.008188,43.4463043 L102.483551,43.4463043 C103.156014,43.4463043 103.387899,43.1796377 103.387899,42.6115217 L103.387899,37.9832609 C103.387899,37.3571739 103.179203,37.1361594 102.379203,37.1361594 L102.263261,37.1361594 L102.263261,36.6839855 L108.653841,36.6839855 L108.770507,38.3658696 L108.329203,38.3658696 C108.213261,37.5774638 108.062536,37.3223913 107.529203,37.3223913" id="Fill-38" fill="#4B9CD3"></path>
                    <path d="M114.221304,40.349058 L114.674203,40.349058 C116.077826,40.349058 116.88942,39.9200725 116.88942,38.6787681 C116.88942,37.4497826 115.95029,37.0092029 114.824928,37.0092029 L114.221304,37.0092029 L114.221304,40.349058 Z M114.221304,42.599058 C114.221304,43.191087 114.477101,43.4461594 115.137971,43.4461594 L115.485797,43.4461594 L115.485797,43.8983333 L111.426377,43.8983333 L111.426377,43.4461594 L111.611884,43.4461594 C112.31913,43.4461594 112.621304,43.2722464 112.621304,42.599058 L112.621304,38.0178986 C112.621304,37.4613768 112.469855,37.1360145 111.693043,37.1360145 L111.449565,37.1360145 L111.449565,36.6838406 C112.029275,36.6497826 112.469855,36.6258696 112.945942,36.591087 C113.595217,36.5447101 114.430725,36.5099275 114.848116,36.5099275 C116.553188,36.5099275 117.481449,36.730942 118.061159,37.3106522 C118.443768,37.6932609 118.617681,38.1338406 118.617681,38.6331159 C118.617681,39.5142754 117.98,40.2106522 116.901014,40.5005072 C117.666232,41.1381884 118.072029,42.0548551 118.895942,42.8780435 C119.371304,43.3534058 119.696667,43.4925362 120.427101,43.5628261 L120.427101,44.015 C120.172029,44.0258696 120.056087,44.0258696 119.708261,44.0258696 C118.269855,44.0258696 117.678551,43.8171739 117.132899,43.2722464 C116.553188,42.6918116 115.880725,41.4744203 115.137971,40.8367391 L114.221304,40.8367391 L114.221304,42.599058 Z" id="Fill-40" fill="#4B9CD3"></path>
                    <path d="M127.391522,36.6841304 L131.079928,36.6841304 L131.079928,37.1363043 L130.882826,37.1363043 C130.256014,37.1363043 130.000942,37.402971 130.000942,38.0065942 L130.000942,42.5993478 C130.000942,43.1674638 130.198043,43.4464493 130.90529,43.4464493 L131.079928,43.4464493 L131.079928,43.8986232 L127.391522,43.8986232 L127.391522,43.4464493 L127.553841,43.4464493 C128.168333,43.4464493 128.400217,43.1565942 128.400217,42.6464493 L128.400217,38.0065942 C128.400217,37.402971 128.191522,37.1363043 127.542246,37.1363043 L127.391522,37.1363043 L127.391522,36.6841304 Z" id="Fill-42" fill="#4B9CD3"></path>
                    <path d="M135.093768,42.5066667 C135.093768,43.2146377 135.314058,43.4465217 136.243043,43.4465217 L136.243043,43.8986957 L133.435797,43.8986957 L133.435797,43.4465217 L133.504638,43.4465217 C134.212609,43.4465217 134.386522,43.1907246 134.386522,42.7153623 L134.386522,37.3914493 C134.131449,37.2175362 133.818406,37.1363768 133.458986,37.1363768 L133.458986,36.6842029 L135.848116,36.6842029 L140.580725,41.6247826 L140.580725,38.1218841 C140.580725,37.2871014 140.406812,37.1363768 139.477826,37.1363768 L139.361884,37.1363768 L139.361884,36.6842029 L142.355362,36.6842029 L142.355362,37.1363768 L142.23942,37.1363768 C141.519855,37.1363768 141.288696,37.2871014 141.288696,37.7276812 L141.288696,43.9334783 L140.65029,43.9334783 L135.093768,38.1218841 L135.093768,42.5066667 Z" id="Fill-44" fill="#4B9CD3"></path>
                    <path d="M144.72058,41.7643478 L145.172754,41.7643478 C145.555362,42.9128986 146.240145,43.5042029 147.156087,43.5042029 C147.922029,43.5042029 148.501739,43.0172464 148.501739,42.3672464 C148.501739,40.6389855 144.778551,40.6969565 144.778551,38.4005797 C144.778551,37.2868116 145.752464,36.51 147.132899,36.51 C148.025652,36.51 148.721304,36.8114493 148.895942,36.8114493 C148.977101,36.8114493 149.047391,36.7889855 149.151014,36.683913 L149.394493,36.683913 L149.614783,38.5628986 L149.151014,38.5628986 C148.895942,37.6237681 148.153913,37.0092754 147.260435,37.0092754 C146.611159,37.0092754 146.123478,37.3571014 146.123478,37.8092754 C146.123478,38.8766667 148.049565,39.0737681 149.348841,40.3723188 C149.824203,40.8476812 150.00971,41.3469565 150.00971,41.9034783 C150.00971,43.1092754 148.91913,44.0607246 147.538696,44.0607246 C146.611159,44.0607246 145.764058,43.6897101 145.555362,43.6897101 C145.451014,43.6897101 145.369855,43.7476812 145.311884,43.8752174 L145.010435,43.8752174 L144.72058,41.7643478 Z" id="Fill-46" fill="#4B9CD3"></path>
                    <path d="M157.035725,42.5760145 C157.035725,43.1796377 157.221957,43.4463043 158.045145,43.4463043 L158.322681,43.4463043 L158.322681,43.8984783 L154.148043,43.8984783 L154.148043,43.4463043 L154.542246,43.4463043 C155.179203,43.4463043 155.435,43.1912319 155.435,42.5760145 L155.435,37.2868841 L154.066159,37.2868841 C153.173406,37.2868841 153.034275,37.4267391 152.813986,38.6557246 L152.338623,38.6557246 L152.547319,36.4868841 L152.917609,36.4868841 C153.011087,36.5680435 153.069058,36.6260145 153.138623,36.6492029 C153.219058,36.6731159 153.312536,36.6839855 153.474855,36.6839855 L158.99587,36.6839855 C159.309638,36.6839855 159.367609,36.6607971 159.553116,36.4868841 L159.923406,36.4868841 L160.132826,38.6557246 L159.657464,38.6557246 C159.436449,37.4376087 159.298043,37.2868841 158.404565,37.2868841 L157.035725,37.2868841 L157.035725,42.5760145 Z" id="Fill-48" fill="#4B9CD3"></path>
                    <path d="M162.457464,36.6841304 L166.14587,36.6841304 L166.14587,37.1363043 L165.948768,37.1363043 C165.323406,37.1363043 165.067609,37.402971 165.067609,38.0065942 L165.067609,42.5993478 C165.067609,43.1674638 165.26471,43.4464493 165.972681,43.4464493 L166.14587,43.4464493 L166.14587,43.8986232 L162.457464,43.8986232 L162.457464,43.4464493 L162.619783,43.4464493 C163.235,43.4464493 163.466884,43.1565942 163.466884,42.6464493 L163.466884,38.0065942 C163.466884,37.402971 163.258188,37.1363043 162.608188,37.1363043 L162.457464,37.1363043 L162.457464,36.6841304 Z" id="Fill-50" fill="#4B9CD3"></path>
                    <path d="M173.158188,42.5760145 C173.158188,43.1796377 173.34442,43.4463043 174.167609,43.4463043 L174.44587,43.4463043 L174.44587,43.8984783 L170.271232,43.8984783 L170.271232,43.4463043 L170.66471,43.4463043 C171.302391,43.4463043 171.557464,43.1912319 171.557464,42.5760145 L171.557464,37.2868841 L170.188623,37.2868841 C169.29587,37.2868841 169.157464,37.4267391 168.936449,38.6557246 L168.461087,38.6557246 L168.670507,36.4868841 L169.040797,36.4868841 C169.133551,36.5680435 169.191522,36.6260145 169.261812,36.6492029 C169.342246,36.6731159 169.435,36.6839855 169.597319,36.6839855 L175.118333,36.6839855 C175.432101,36.6839855 175.490072,36.6607971 175.676304,36.4868841 L176.046594,36.4868841 L176.25529,38.6557246 L175.779928,38.6557246 C175.559638,37.4376087 175.420507,37.2868841 174.527029,37.2868841 L173.158188,37.2868841 L173.158188,42.5760145 Z" id="Fill-52" fill="#4B9CD3"></path>
                    <path d="M184.300217,36.6841304 L187.303841,36.6841304 L187.303841,37.1363043 L187.222681,37.1363043 C186.295145,37.1363043 186.156014,37.5428261 186.156014,38.0993478 L186.156014,40.987029 C186.156014,43.5739855 184.277029,44.060942 182.89587,44.060942 C180.808913,44.060942 179.485725,43.1565942 179.485725,41.3812319 L179.485725,37.9254348 C179.485725,37.345 179.32413,37.1363043 178.67413,37.1363043 L178.477029,37.1363043 L178.477029,36.6841304 L182.108188,36.6841304 L182.108188,37.1363043 L181.910362,37.1363043 C181.423406,37.1363043 181.086449,37.3573188 181.086449,37.9254348 L181.086449,41.3812319 C181.086449,42.7971739 182.130652,43.2834058 183.186449,43.2834058 C184.706014,43.2834058 185.460362,42.4254348 185.460362,41.1493478 L185.460362,38.3305072 C185.460362,37.5080435 185.227754,37.1363043 184.508913,37.1363043 L184.300217,37.1363043 L184.300217,36.6841304 Z" id="Fill-54" fill="#4B9CD3"></path>
                    <path d="M194.222681,42.5760145 C194.222681,43.1796377 194.408188,43.4463043 195.232101,43.4463043 L195.511087,43.4463043 L195.511087,43.8984783 L191.335,43.8984783 L191.335,43.4463043 L191.729203,43.4463043 C192.367609,43.4463043 192.621957,43.1912319 192.621957,42.5760145 L192.621957,37.2868841 L191.253841,37.2868841 C190.360362,37.2868841 190.221232,37.4267391 190.000942,38.6557246 L189.52558,38.6557246 L189.734275,36.4868841 L190.10529,36.4868841 C190.198768,36.5680435 190.256739,36.6260145 190.32558,36.6492029 C190.407464,36.6731159 190.500217,36.6839855 190.661812,36.6839855 L196.182826,36.6839855 C196.496594,36.6839855 196.554565,36.6607971 196.740072,36.4868841 L197.111087,36.4868841 L197.319783,38.6557246 L196.84442,38.6557246 C196.62413,37.4376087 196.484275,37.2868841 195.591522,37.2868841 L194.222681,37.2868841 L194.222681,42.5760145 Z" id="Fill-56" fill="#4B9CD3"></path>
                    <g id="Group-60" transform="translate(199.372754, 36.683986)">
                        <mask id="mask-2" fill="white">
                            <use xlink:href="#path-1"></use>
                        </mask>
                        <g id="Clip-59"></g>
                        <path d="M5.52101449,0.638405797 L2.98115942,0.638405797 L2.98115942,3.24782609 L4.86014493,3.24782609 C5.49782609,3.24782609 5.72971014,3.02753623 5.72971014,2.41231884 L6.1942029,2.41231884 L6.1942029,4.72101449 L5.72971014,4.72101449 C5.72971014,4.09492754 5.57898551,3.88550725 4.68623188,3.88550725 L2.98115942,3.88550725 L2.98115942,5.97318841 C2.98115942,6.47246377 3.07391304,6.57681159 3.41014493,6.57681159 L5.34710145,6.57681159 C6.10144928,6.57681159 6.46086957,6.3673913 6.68115942,5.39347826 L7.12173913,5.39347826 L6.9826087,7.21449275 L0,7.21449275 L0,6.76231884 L0.475362319,6.76231884 C1.14855072,6.76231884 1.38043478,6.49565217 1.38043478,5.92753623 L1.38043478,1.29927536 C1.38043478,0.673188406 1.17173913,0.452173913 0.371014493,0.452173913 L0.255072464,0.452173913 L0.255072464,0 L6.64637681,0 L6.76231884,1.68188406 L6.32101449,1.68188406 C6.20507246,0.893478261 6.05434783,0.638405797 5.52101449,0.638405797" id="Fill-58" fill="#4B9CD3" mask="url(#mask-2)"></path>
                    </g>
                </g>
            </g>
        </g>
    </g>
</svg>